<svg height="512pt" viewBox="0 -6 512 511" width="512pt" xmlns="http://www.w3.org/2000/svg"><path d="m325.082031 422.601562c0 38.15625-30.929687 69.085938-69.082031 69.085938s-69.082031-30.929688-69.082031-69.085938c0-38.152343 30.929687-69.082031 69.082031-69.082031s69.082031 30.929688 69.082031 69.082031zm0 0" fill="#ffde55"/><path d="m256 353.519531c-38.152344 0-69.082031 30.929688-69.082031 69.082031 0 26.390626 14.820312 49.296876 36.574219 60.929688 26.785156-30 71.914062-33.871094 95.96875-33.585938 3.617187-8.386718 5.625-17.628906 5.625-27.34375-.003907-38.152343-30.933594-69.082031-69.085938-69.082031zm0 0" fill="#ffcd00"/><path d="m408.695312 200.824219s1.546876-192.824219-152.695312-192.824219-152.695312 192.824219-152.695312 192.824219 1.1875 117.835937-59.515626 190.445312h424.421876c-60.703126-72.609375-59.515626-190.445312-59.515626-190.445312zm0 0" fill="#ffde55"/><path d="m182.886719 391.269531c24.882812-68.8125 32.496093-138.890625 34.578125-182.964843 1.183594-24.984376 8.363281-49.269532 20.613281-71.078126 26.132813-46.527343 7.503906-101.441406-4.496094-127.769531-131.667969 17.726563-130.277343 191.367188-130.277343 191.367188s1.1875 117.835937-59.515626 190.445312zm0 0" fill="#ffcd00"/><path d="m463.746094 435.027344h-415.492188c-22.414062 0-40.753906-18.339844-40.753906-40.753906 0-22.414063 18.339844-40.753907 40.753906-40.753907h415.492188c22.414062 0 40.753906 18.339844 40.753906 40.753907 0 22.414062-18.339844 40.753906-40.753906 40.753906zm0 0" fill="#ffeb99"/><path d="m125.882812 394.273438c0-22.414063 18.339844-40.753907 40.753907-40.753907h-118.382813c-22.414062 0-40.753906 18.339844-40.753906 40.753907 0 22.414062 18.339844 40.753906 40.753906 40.753906h118.382813c-22.414063 0-40.753907-18.339844-40.753907-40.753906zm0 0" fill="#ffde55"/><path d="m184.921875 84.183594c0 32.605468-26.433594 59.039062-59.039063 59.039062-32.605468 0-59.039062-26.433594-59.039062-59.039062 0-32.605469 26.433594-59.039063 59.039062-59.039063 32.605469 0 59.039063 26.433594 59.039063 59.039063zm0 0" fill="#ff929f"/><path d="m137.476562 108.554688v-48.742188c0-2.871094-1.640624-5.488281-4.21875-6.742188-2.582031-1.253906-5.652343-.929687-7.914062.84375l-24.1875 18.992188c-3.257812 2.558594-3.824219 7.269531-1.265625 10.527344 2.558594 3.257812 7.273437 3.828125 10.53125 1.269531l12.054687-9.464844v33.316407c0 4.140624 3.355469 7.5 7.5 7.5 4.140626 0 7.5-3.359376 7.5-7.5zm0 0"/><path d="m344.15625 263.84375v-12.449219c0-4.144531-3.355469-7.5-7.5-7.5-4.140625 0-7.5 3.355469-7.5 7.5v12.449219c0 4.140625 3.359375 7.5 7.5 7.5 4.144531 0 7.5-3.359375 7.5-7.5zm0 0"/><path d="m167.84375 251.394531v12.449219c0 4.140625 3.355469 7.5 7.5 7.5 4.140625 0 7.5-3.359375 7.5-7.5v-12.449219c0-4.144531-3.359375-7.5-7.5-7.5-4.144531 0-7.5 3.355469-7.5 7.5zm0 0"/><path d="m256 279.195312c9.707031 0 19.414062-3.140624 27.515625-9.421874 3.269531-2.539063 3.867187-7.25 1.328125-10.523438s-7.25-3.867188-10.523438-1.328125c-10.785156 8.363281-25.851562 8.363281-36.640624 0-3.273438-2.539063-7.984376-1.945313-10.523438 1.328125s-1.941406 7.984375 1.332031 10.523438c8.097657 6.28125 17.804688 9.421874 27.511719 9.421874zm0 0"/><path d="m463.746094 346.019531h-15.585938c-32.308594-66.257812-31.972656-144.324219-31.964844-145.132812.007813-1.039063.125-25.792969-6.742187-57.855469-11.578125-54.050781-33.804687-85.351562-50.410156-102.09375-26.617188-26.832031-61.289063-40.4375-103.042969-40.4375-24.363281 0-46.539062 4.691406-65.910156 13.941406-3.738282 1.785156-5.320313 6.261719-3.535156 10 1.785156 3.738282 6.261718 5.320313 10 3.535156 17.335937-8.277343 37.335937-12.476562 59.445312-12.476562 37.585938 0 68.652344 12.097656 92.347656 35.953125 52.902344 53.273437 52.855469 148.359375 52.847656 149.292969-.03125 3.292968-.394531 77.503906 30.386719 145.273437h-34.132812c-4.144531 0-7.5 3.359375-7.5 7.5s3.355469 7.5 7.5 7.5h66.296875c18.335937 0 33.253906 14.917969 33.253906 33.253907 0 18.335937-14.917969 33.253906-33.253906 33.253906h-415.492188c-18.335937 0-33.253906-14.917969-33.253906-33.253906 0-18.335938 14.917969-33.253907 33.253906-33.253907h315.972656c4.140626 0 7.5-3.359375 7.5-7.5s-3.359374-7.5-7.5-7.5h-283.808593c30.78125-67.765625 30.417969-141.980469 30.386719-145.253906-.003907-.238281-.101563-22.136719 5.609374-50.726563 43.90625 4.546876 76.007813-29.164062 76.007813-65.855468 0-36.6875-29.851563-66.539063-66.539063-66.539063-36.691406 0-66.539062 29.847657-66.539062 66.539063 0 28.230468 17.675781 52.390625 42.539062 62.042968-6.1875 30.453126-6.089843 53.609376-6.078124 54.675782.007812.792968.398437 78.757812-31.96875 145.117187h-15.582032c-26.609375 0-48.253906 21.644531-48.253906 48.253907 0 26.609374 21.644531 48.253906 48.253906 48.253906h133.796875c8.902344 33.066406 39.351563 56.660156 73.949219 56.660156 34.957031 0 65.082031-23.46875 73.960938-56.660156h133.785156c26.605468 0 48.253906-21.644532 48.253906-48.253906 0-26.609376-21.648438-48.253907-48.253906-48.253907zm-389.402344-261.835937c0-28.417969 23.121094-51.539063 51.539062-51.539063 28.417969 0 51.539063 23.121094 51.539063 51.539063 0 28.417968-23.121094 51.539062-51.539063 51.539062-28.417968 0-51.539062-23.121094-51.539062-51.539062zm181.65625 400.003906c-26.445312 0-49.875-17.136719-58.277344-41.660156h116.5625c-8.359375 24.605468-31.5625 41.660156-58.285156 41.660156zm0 0"/></svg>