<svg height="512pt" viewBox="-85 0 512 512" width="512pt" xmlns="http://www.w3.org/2000/svg"><path d="m171.332031 7.5c-70.816406 0-128.757812 57.941406-128.757812 128.757812v142.890626c0 70.816406 57.941406 128.757812 128.757812 128.757812 70.816407 0 128.757813-57.941406 128.757813-128.757812v-142.890626c0-70.816406-57.941406-128.757812-128.757813-128.757812zm81.816407 271.648438c0 21.710937-8.546876 42.214843-24.074219 57.742187-15.523438 15.523437-36.03125 24.074219-57.742188 24.074219-21.710937 0-42.21875-8.550782-57.742187-24.074219-15.523438-15.527344-24.074219-36.03125-24.074219-57.742187v-142.890626c0-21.710937 8.546875-42.21875 24.074219-57.742187 15.523437-15.523437 36.03125-24.074219 57.742187-24.074219 21.714844 0 42.21875 8.546875 57.742188 24.074219 15.527343 15.523437 24.074219 36.03125 24.074219 57.742187zm0 0" fill="#d8d7da"/><path d="m171.332031 407.90625c70.816407 0 128.757813-57.941406 128.757813-128.757812v-110.679688c0-114.027344-128.757813-114.027344-128.757813-114.027344 21.714844 0 42.21875 8.546875 57.742188 24.074219 15.527343 15.523437 24.074219 36.03125 24.074219 57.742187v142.890626c0 21.710937-8.546876 42.21875-24.074219 57.742187-15.523438 15.523437-36.027344 24.074219-57.742188 24.074219-21.710937 0-42.21875-8.550782-57.742187-24.074219-15.523438-15.523437-24.074219-36.03125-24.074219-57.742187v-142.890626c0-21.710937 8.550781-42.21875 24.074219-57.742187 15.523437-15.523437 36.03125-24.074219 57.742187-24.074219-117.453125 0-128.757812 114.023438-128.757812 114.023438v110.679687c0 70.820313 57.941406 128.761719 128.757812 128.761719zm0 0" fill="#c6c5ca"/><path d="m257.027344 504.5h-171.386719c-43.15625 0-78.140625-34.984375-78.140625-78.140625v-76.589844c0-90.484375 73.351562-163.835937 163.832031-163.835937 90.484375 0 163.832031 73.351562 163.832031 163.835937v76.589844c.003907 43.15625-34.980468 78.140625-78.136718 78.140625zm0 0" fill="#ffeb99"/><path d="m222.875 334.421875c0-29.140625-24.179688-52.632813-53.570312-51.503906-25.972657.996093-47.433594 21.628906-49.363282 47.550781-1.261718 16.933594 5.664063 32.285156 17.226563 42.527344 7.179687 6.359375 11.171875 15.574218 11.171875 25.160156v21.660156c0 12.648438 10.347656 22.992188 22.992187 22.992188 12.648438 0 22.992188-10.34375 22.992188-22.992188v-21.714844c0-9.773437 4.359375-18.925781 11.601562-25.488281 10.40625-9.425781 16.949219-23.042969 16.949219-38.191406zm0 0" fill="#acabb1"/><path d="m199.183594 188.292969c-9.046875-1.550781-18.363282-2.359375-27.851563-2.359375-90.480469 0-163.832031 73.351562-163.832031 163.832031v76.59375c0 43.15625 34.984375 78.140625 78.140625 78.140625h58.058594c-66.15625-50.71875-63.65625-173.160156-30.171875-230.570312 43.539062-74.648438 85.65625-85.636719 85.65625-85.636719zm0 0" fill="#ffde55"/><path d="m161.828125 342.039062c-9.929687-21.726562-2.957031-45.070312 3.152344-58.769531-23.992188 2.976563-43.21875 22.734375-45.042969 47.199219-1.261719 16.933594 5.667969 32.285156 17.230469 42.527344 7.179687 6.359375 11.171875 15.574218 11.171875 25.160156v21.660156c0 12.648438 10.347656 22.992188 22.992187 22.992188s22.992188-10.34375 22.992188-22.992188v-21.714844c0-3.351562.515625-6.636718 1.480469-9.761718-11.722657-15.574219-25.707032-28.210938-33.976563-46.300782zm0 0" fill="#898890"/><path d="m307.570312 245.996094c.007813-.140625.019532-.28125.019532-.429688v-109.308594c0-30.71875-10.082032-59.765624-29.15625-84.007812-2.5625-3.253906-7.28125-3.816406-10.535156-1.257812-3.253907 2.5625-3.816407 7.277343-1.253907 10.535156 16.972657 21.570312 25.945313 47.410156 25.945313 74.730468v92.582032c-9.585938-9.613282-20.308594-18.09375-31.941406-25.230469v-67.351563c0-23.714843-9.328126-46.105468-26.269532-63.046874-16.941406-16.941407-39.332031-26.269532-63.042968-26.269532-23.71875 0-46.105469 9.328125-63.046876 26.269532-16.941406 16.941406-26.269531 39.328124-26.269531 63.046874v67.351563c-11.632812 7.136719-22.355469 15.617187-31.941406 25.230469v-92.582032c-.003906-66.863281 54.394531-121.257812 121.253906-121.257812 26.976563 0 52.5625 8.769531 73.984375 25.363281 3.273438 2.535157 7.984375 1.9375 10.523438-1.335937 2.535156-3.273438 1.9375-7.984375-1.335938-10.523438-24.078125-18.648437-52.839844-28.503906-83.171875-28.503906-75.132812 0-136.257812 61.125-136.257812 136.257812v109.308594c0 .148438.015625.289063.023437.429688-22.003906 28.820312-35.097656 64.792968-35.097656 103.773437v76.589844c0 47.222656 38.417969 85.640625 85.640625 85.640625h171.386719c47.222656 0 85.640625-38.417969 85.640625-85.640625v-76.589844c-.003907-38.980469-13.09375-74.949219-35.097657-103.773437zm-210.554687-109.738282c0-19.707031 7.769531-38.332031 21.878906-52.441406 14.109375-14.105468 32.730469-21.875 52.4375-21.875s38.332031 7.769532 52.441407 21.875c14.105468 14.109375 21.875 32.734375 21.875 52.441406v59.148438c-22.492188-10.871094-47.703126-16.972656-74.316407-16.972656-26.609375 0-51.824219 6.101562-74.316406 16.972656zm230.648437 290.101563c0 38.953125-31.6875 70.640625-70.636718 70.640625h-171.386719c-38.953125 0-70.640625-31.6875-70.640625-70.640625v-76.589844c0-86.203125 70.132812-156.335937 156.332031-156.335937 86.203125 0 156.332031 70.132812 156.332031 156.335937zm0 0"/><path d="m169.019531 275.421875c-13.699219.527344-26.902343 5.917969-37.179687 15.1875-3.078125 2.773437-3.324219 7.515625-.550782 10.59375 2.773438 3.074219 7.515626 3.320313 10.59375.546875 7.675782-6.921875 17.515626-10.945312 27.710938-11.335938 12.097656-.46875 23.570312 3.894532 32.273438 12.269532 8.710937 8.382812 13.507812 19.652344 13.507812 31.738281 0 12.402344-5.28125 24.296875-14.484375 32.632813-8.9375 8.097656-14.066406 19.414062-14.066406 31.046874v21.71875c0 8.539063-6.949219 15.492188-15.488281 15.492188-8.542969 0-15.496094-6.949219-15.496094-15.492188v-21.660156c0-11.847656-4.992188-23.066406-13.695313-30.777344-10.394531-9.203124-15.761719-22.457031-14.722656-36.355468.203125-2.753906 4.558594-15.003906-3.867187-17.351563-9.167969-2.558593-10.816407 12.527344-11.09375 16.238281-1.386719 18.609376 5.804687 36.359376 19.734374 48.699219 5.496094 4.867188 8.644532 11.992188 8.644532 19.546875v21.660156c0 16.8125 13.679687 30.492188 30.492187 30.492188 16.816407 0 30.492188-13.679688 30.492188-30.492188v-21.71875c0-7.40625 3.328125-14.667968 9.136719-19.925781 12.335937-11.175781 19.410156-27.121093 19.410156-43.753906 0-16.199219-6.429688-31.308594-18.101563-42.542969s-27.027343-17.070312-43.25-16.457031zm0 0"/></svg>