<svg height="511pt" viewBox="-27 1 511 511.999" width="511pt" xmlns="http://www.w3.org/2000/svg"><path d="m429.539062 324.355469-18.027343-10.40625c-5.972657-3.445313-9.015625-10.367188-7.503907-17.097657 4.195313-18.683593 7.925782-49.542968.109376-83.378906-1.570313-6.796875 1.410156-13.832031 7.453124-17.320312l17.96875-10.371094c19.324219-11.160156 26.007813-36.101562 14.851563-55.429688-11.160156-19.328124-36.101563-26.007812-55.429687-14.851562l-17.980469 10.382812c-6.039063 3.484376-13.636719 2.589844-18.707031-2.195312-20.199219-19.058594-44.789063-33.511719-72.09375-41.675781-6.667969-1.992188-11.230469-8.136719-11.230469-15.09375v-18.839844c0-22.316406-18.257813-40.578125-40.574219-40.578125s-40.578125 18.261719-40.578125 40.578125v18.839844c0 6.957031-4.558594 13.101562-11.226563 15.09375-27.308593 8.164062-51.894531 22.617187-72.09375 41.675781-5.070312 4.785156-12.671874 5.679688-18.707031 2.195312l-16.367187-9.449218c-19.328125-11.160156-44.269532-4.476563-55.429688 14.851562-11.15625 19.328125-4.472656 44.269532 14.855469 55.429688l16.28125 9.398437c5.980469 3.453125 9.058594 10.40625 7.496094 17.128907-7.382813 31.789062-3.820313 64.480468.277343 83.769531 1.417969 6.664062-1.652343 13.476562-7.550781 16.882812l-16.507812 9.53125c-19.324219 11.15625-26.007813 36.097657-14.851563 55.425781 11.160156 19.328126 36.101563 26.011719 55.429688 14.851563l16.367187-9.449219c6.035157-3.484375 13.636719-2.589844 18.707031 2.195313 20.199219 19.058593 44.785157 33.511719 72.09375 41.675781 6.667969 1.992188 11.226563 8.136719 11.226563 15.09375v20.707031c0 22.316407 18.257813 40.574219 40.578125 40.574219 22.316406 0 40.574219-18.257812 40.574219-40.574219v-20.707031c0-6.957031 4.558593-13.101562 11.226562-15.09375 27.308594-8.164062 51.898438-22.617188 72.09375-41.675781 5.070313-4.785157 12.671875-5.679688 18.707031-2.195313l17.984376 10.382813c19.328124 11.160156 44.269531 4.476562 55.425781-14.851563 11.160156-19.328125 4.476562-44.269531-14.847657-55.429687zm-200.359374 5.558593c-40.820313 0-73.914063-33.09375-73.914063-73.914062s33.09375-73.914062 73.914063-73.914062c40.824218 0 73.914062 33.09375 73.914062 73.914062s-33.089844 73.914062-73.914062 73.914062zm0 0" fill="#ccf8ff"/><path d="m229.179688 129.835938c-69.675782 0-126.164063 56.484374-126.164063 126.164062s56.488281 126.164062 126.164063 126.164062c69.679687 0 126.164062-56.484374 126.164062-126.164062s-56.484375-126.164062-126.164062-126.164062zm0 200.078124c-40.820313 0-73.914063-33.09375-73.914063-73.914062s33.09375-73.914062 73.914063-73.914062c40.824218 0 73.914062 33.09375 73.914062 73.914062.003906 40.820312-33.089844 73.914062-73.914062 73.914062zm0 0" fill="#8ed7e8"/><path d="m242.359375 328.742188c-4.269531.769531-8.683594 1.171874-13.179687 1.171874-40.820313 0-73.914063-33.089843-73.914063-73.914062 0-12.25 2.988281-23.816406 8.265625-33.992188-21.765625-41.578124-34.820312-81.628906-42.53125-112.15625-5.78125 4.285157-11.300781 8.90625-16.523438 13.835938-5.070312 4.785156-12.671874 5.679688-18.707031 2.195312l-16.367187-9.449218c-19.328125-11.160156-44.269532-4.476563-55.429688 14.851562-11.15625 19.328125-4.472656 44.269532 14.855469 55.429688l16.28125 9.398437c5.980469 3.453125 9.058594 10.40625 7.496094 17.128907-7.382813 31.789062-3.820313 64.480468.277343 83.769531 1.417969 6.664062-1.652343 13.476562-7.550781 16.882812l-16.507812 9.53125c-19.324219 11.15625-26.007813 36.097657-14.851563 55.425781 11.160156 19.328126 36.101563 26.011719 55.429688 14.851563l16.367187-9.449219c6.035157-3.484375 13.636719-2.589844 18.707031 2.195313 20.199219 19.058593 44.785157 33.511719 72.09375 41.675781 6.667969 1.992188 11.226563 8.136719 11.226563 15.09375v20.707031c0 22.316407 18.257813 40.574219 40.578125 40.574219 22.316406 0 40.574219-18.257812 40.574219-40.574219v-20.707031c0-6.957031 4.558593-13.101562 11.226562-15.09375 22.195313-6.636719 42.597657-17.425781 60.300781-31.46875-38.84375-18.386719-71.175781-41.867188-98.117187-67.914062zm0 0" fill="#abebf4"/><path d="m289.09375 367.058594c-17.164062-11.839844-32.671875-24.722656-46.734375-38.316406-4.269531.769531-8.683594 1.171874-13.179687 1.171874-40.820313 0-73.914063-33.09375-73.914063-73.914062 0-12.25 3.117187-24.074219 8.265625-33.992188-9.785156-18.6875-17.800781-37.050781-24.371094-54.402343-22.355468 22.765625-36.140625 53.96875-36.140625 88.394531 0 69.679688 56.484375 126.164062 126.164063 126.164062 21.683594 0 42.085937-5.46875 59.910156-15.105468zm0 0" fill="#7ac1dd"/><path d="m433.289062 317.859375-18.027343-10.40625c-3.148438-1.816406-4.730469-5.417969-3.9375-8.957031 3.707031-16.5 8.648437-49.710938.101562-86.710938-.839843-3.636718.726563-7.308594 3.898438-9.136718l17.964843-10.375c11.082032-6.398438 37.609376-31.050782 17.597657-65.671876-18.789063-32.503906-54.589844-23.996093-65.675781-17.597656l-17.980469 10.382813c-3.1875 1.839843-7.128907 1.375-9.808594-1.15625-5.996094-5.65625-12.421875-10.964844-19.097656-15.785157-3.359375-2.425781-8.046875-1.667968-10.472657 1.691407-2.425781 3.355469-1.667968 8.042969 1.691407 10.46875 6.148437 4.4375 12.0625 9.328125 17.582031 14.535156 7.539062 7.113281 18.628906 8.414063 27.605469 3.234375l17.980469-10.382812c7.613281-4.394532 31.121093-11.800782 45.183593 12.109374 14.0625 23.910157-4.496093 40.785157-12.105469 45.179688l-17.964843 10.375c-8.921875 5.148438-13.347657 15.398438-11.011719 25.503906 7.875 34.105469 3.304688 64.789063-.121094 80.046875-2.242187 9.976563 2.207032 20.117188 11.070313 25.234375l18.027343 10.40625c7.609376 4.394532 23.707032 21.699219 12.105469 45.183594-11.601562 23.488281-37.570312 16.503906-45.183593 12.105469l-17.984376-10.378907c-8.972656-5.183593-20.0625-3.878906-27.601562 3.230469-19.578125 18.472657-43.46875 32.285157-69.097656 39.945313-9.761719 2.917968-16.578125 12.082031-16.578125 22.28125v20.707031c0 18.238281-14.835938 33.074219-33.074219 33.074219s-33.078125-14.835938-33.078125-33.074219v-20.707031c0-10.199219-6.816406-19.363282-16.578125-22.28125-25.628906-7.660156-49.519531-21.472656-69.097656-39.945313-7.539063-7.113281-18.632813-8.414062-27.601563-3.230469l-16.367187 9.445313c-7.613282 4.398437-32.191406 10.183594-45.183594-12.105469-12.996094-22.285156 4.496094-40.789062 12.105469-45.183594l16.507812-9.527343c8.757813-5.058594 13.234375-15.078125 11.136719-24.9375-2.730469-12.851563-8.226562-46.421875-.308594-80.511719 2.320313-9.992188-2.121094-20.167969-11.050781-25.324219l-16.285156-9.398437c-7.609375-4.398438-24.007813-21.667969-12.105469-45.183594 8.234375-16.273438 29.390625-21.226562 45.183594-12.109375l16.367187 9.449219c8.96875 5.179687 20.0625 3.882812 27.601563-3.234375 19.578125-18.46875 43.472656-32.28125 69.097656-39.945313 9.761719-2.917968 16.578125-12.078125 16.578125-22.28125v-18.835937c0-18.234375 14.839844-33.074219 33.078125-33.074219s33.074219 14.839844 33.074219 33.074219v18.839843c0 10.199219 6.816406 19.363282 16.578125 22.28125 9.699218 2.898438 19.203125 6.6875 28.253906 11.257813 3.699219 1.871094 8.210938.382813 10.074219-3.3125 1.867187-3.695313.386719-8.207031-3.3125-10.074219-9.839844-4.972656-20.171875-9.089844-30.71875-12.242187-3.457031-1.035157-5.875-4.285157-5.875-7.910157v-18.839843c0-26.507813-21.566407-48.074219-48.074219-48.074219-26.511719 0-48.078125 21.566406-48.078125 48.074219v18.839843c0 3.625-2.417969 6.875-5.875 7.910157-27.855469 8.328125-53.824219 23.335937-75.09375 43.40625-2.683594 2.53125-6.625 2.992187-9.8125 1.15625l-16.367187-9.449219c-22.957032-13.253906-52.417969-5.363281-65.671876 17.59375-13.253906 22.960938-5.359374 52.421875 17.597657 65.675781l16.28125 9.398438c3.125 1.804687 4.746093 5.480469 3.941406 8.941406-8.597656 37.023437-2.691406 73.191406.25 87.023437.738281 3.480469-.855469 7.03125-3.964844 8.828126l-16.507812 9.527343c-11.082031 6.398438-36.945313 31.722657-17.597657 65.675781 19.351563 33.949219 54.589844 23.996094 65.671876 17.59375l16.367187-9.449218c3.1875-1.839844 7.128906-1.375 9.8125 1.15625 21.269531 20.070312 47.234375 35.078125 75.09375 43.40625 3.457031 1.035156 5.875 4.285156 5.875 7.910156v20.703125c0 26.511719 21.566406 48.078125 48.078125 48.078125 26.507812 0 48.074219-21.566406 48.074219-48.078125v-20.703125c0-3.625 2.417969-6.875 5.875-7.910156 27.859375-8.328125 53.824219-23.335938 75.09375-43.40625 2.683593-2.53125 6.625-2.992188 9.808593-1.15625l17.984376 10.382812c11.082031 6.398438 47.703124 18.578125 65.671874-17.597656 17.148438-34.523438-6.511718-59.273438-17.59375-65.671875zm0 0"/><path d="m132.660156 325.042969c-2.414062-3.367188-7.101562-4.140625-10.464844-1.726563-3.367187 2.410156-4.140624 7.097656-1.730468 10.464844 25.078125 34.992188 65.71875 55.882812 108.714844 55.882812 73.703124 0 133.664062-59.960937 133.664062-133.664062s-59.960938-133.664062-133.664062-133.664062c-73.699219 0-133.660157 59.960937-133.660157 133.664062 0 16.855469 3.097657 33.289062 9.207031 48.84375 1.515626 3.855469 5.867188 5.753906 9.722657 4.242188 3.855469-1.515626 5.753906-5.867188 4.238281-9.726563-5.421875-13.800781-8.167969-28.390625-8.167969-43.359375 0-65.433594 53.230469-118.664062 118.664063-118.664062 65.429687 0 118.660156 53.230468 118.660156 118.664062 0 65.429688-53.230469 118.664062-118.660156 118.664062-38.175782 0-74.257813-18.550781-96.523438-49.621093zm0 0"/><path d="m310.59375 256c0-44.890625-36.519531-81.414062-81.414062-81.414062-44.890626 0-81.414063 36.519531-81.414063 81.414062s36.523437 81.414062 81.414063 81.414062c44.894531 0 81.414062-36.523437 81.414062-81.414062zm-147.828125 0c0-36.621094 29.796875-66.414062 66.417969-66.414062s66.414062 29.792968 66.414062 66.414062-29.792968 66.414062-66.414062 66.414062c-36.625 0-66.417969-29.792968-66.417969-66.414062zm0 0"/></svg>