<svg height="512pt" viewBox="0 -9 512 511" width="512pt" xmlns="http://www.w3.org/2000/svg"><path d="m464.171875 177.089844h-416.34375s9.414063 134.640625 128.21875 177.527344c18.558594 6.699218 30.792969 24.488281 30.792969 44.21875v65.929687c0 15.578125 15.972656 26.050781 30.257812 19.839844l43.160156-18.765625c14.542969-6.324219 23.949219-20.671875 23.949219-36.53125v-30.144532c0-19.800781 12.324219-37.636718 30.976563-44.28125 119.523437-42.585937 128.988281-177.792968 128.988281-177.792968zm0 0" fill="#ff929f"/><path d="m230.253906 229.101562c26.847656-25.390624 41.839844-52.011718 41.839844-52.011718h-224.265625s9.414063 134.640625 128.21875 177.527344c18.558594 6.699218 30.792969 24.488281 30.792969 44.21875v65.929687c0 15.578125 15.972656 26.050781 30.257812 19.839844l43.160156-18.765625c14.542969-6.320313 23.949219-20.671875 23.949219-36.53125v-21.128906c-43.476562-15.089844-70.699219-41.027344-87.753906-67.042969-23.339844-35.605469-17.132813-82.785157 13.800781-112.035157zm0 0" fill="#ff737d"/><path d="m432.738281 78.238281c0 38.789063-31.445312 70.234375-70.234375 70.234375-38.792968 0-70.238281-31.445312-70.238281-70.234375 0-38.792969 31.445313-70.238281 70.238281-70.238281 38.789063 0 70.234375 31.445312 70.234375 70.238281zm0 0" fill="#ffdaaa"/><path d="m219.734375 78.238281c0 38.789063-31.445313 70.234375-70.238281 70.234375-38.789063 0-70.234375-31.445312-70.234375-70.234375 0-38.792969 31.445312-70.238281 70.234375-70.238281 38.792968 0 70.238281 31.445312 70.238281 70.238281zm0 0" fill="#ffeb99"/><path d="m172.179688 11.742188c-20.09375 12.878906-56.175782 46.40625-63.730469 123.496093 11.546875 8.332031 25.722656 13.234375 41.046875 13.234375 38.789062 0 70.238281-31.445312 70.238281-70.234375 0-30.859375-19.886719-57.066406-47.554687-66.496093zm0 0" fill="#ffde55"/><path d="m339.820312 11.742188c20.097657 12.878906 56.171876 46.40625 63.726563 123.496093-11.546875 8.332031-25.71875 13.234375-41.042969 13.234375-38.792968 0-70.238281-31.445312-70.238281-70.234375 0-30.859375 19.886719-57.066406 47.554687-66.496093zm0 0" fill="#ffc477"/><path d="m326.238281 78.238281c0 38.789063-31.449219 70.234375-70.238281 70.234375s-70.238281-31.445312-70.238281-70.234375c0-38.792969 31.449219-70.238281 70.238281-70.238281s70.238281 31.445312 70.238281 70.238281zm0 0" fill="#abebf4"/><path d="m447.824219 195.777344h-383.648438c-31.171875 0-56.675781-25.503906-56.675781-56.675782 0-31.167968 25.503906-56.671874 56.675781-56.671874h383.648438c31.171875 0 56.675781 25.503906 56.675781 56.671874 0 31.171876-25.503906 56.675782-56.675781 56.675782zm0 0" fill="#ffa5b5"/><path d="m114.003906 139.101562c0-31.167968 25.503906-56.671874 56.671875-56.671874h-106.5c-31.171875 0-56.675781 25.503906-56.675781 56.671874 0 31.171876 25.503906 56.675782 56.675781 56.675782h106.5c-31.167969 0-56.671875-25.503906-56.671875-56.675782zm0 0" fill="#ff929f"/><path d="m256 311.863281c-15.519531 0-28.101562-12.578125-28.101562-28.097656v-20.429687c0-4.238282 3.4375-7.671876 7.671874-7.671876h40.859376c4.238281 0 7.671874 3.433594 7.671874 7.671876v20.429687c-.003906 15.519531-12.582031 28.097656-28.101562 28.097656zm0 0" fill="#57565c"/><path d="m191.976562 283.765625c0-13.183594-13.417968-23.871094-29.972656-23.871094-16.554687 0-29.972656 10.6875-29.972656 23.871094s13.417969 23.867187 29.972656 23.867187c16.554688 0 29.972656-10.683593 29.972656-23.867187zm0 0" fill="#fff"/><path d="m379.96875 283.765625c0-13.183594-13.417969-23.871094-29.972656-23.871094-16.554688 0-29.972656 10.6875-29.972656 23.871094s13.417968 23.867187 29.972656 23.867187c16.554687 0 29.972656-10.683593 29.972656-23.867187zm0 0" fill="#fff"/><path d="m177.933594 355.347656c17.496094 7.195313 28.90625 24.433594 28.90625 43.488282v65.929687c0 15.578125 15.972656 26.050781 30.257812 19.839844l43.160156-18.765625c14.542969-6.320313 23.949219-20.671875 23.949219-36.53125v-30.144532c0-19.800781 12.324219-37.636718 30.976563-44.28125-79.089844 26.894532-145.40625 4.875-157.25.464844zm0 0" fill="#f46262"/><path d="m336.65625 270.660156c4.144531 0 7.5-3.355468 7.5-7.5v-12.449218c0-4.140626-3.355469-7.5-7.5-7.5-4.140625 0-7.5 3.359374-7.5 7.5v12.449218c0 4.144532 3.359375 7.5 7.5 7.5zm0 0"/><path d="m175.34375 270.660156c4.140625 0 7.5-3.355468 7.5-7.5v-12.449218c0-4.140626-3.359375-7.5-7.5-7.5-4.144531 0-7.5 3.359374-7.5 7.5v12.449218c0 4.144532 3.355469 7.5 7.5 7.5zm0 0"/><path d="m512 139.101562c0-67.289062-71.84375-64.171874-71.84375-64.171874-1.742188-41.335938-35.898438-74.429688-77.652344-74.429688-10.855468 0-21.359375 2.195312-31.226562 6.527344-3.792969 1.667968-5.515625 6.089844-3.851563 9.882812 1.664063 3.792969 6.089844 5.519532 9.882813 3.851563 7.953125-3.492188 16.429687-5.261719 25.195312-5.261719 33.480469 0 60.921875 26.367188 62.648438 59.429688h-91.5c-1.742188-41.335938-35.898438-74.429688-77.652344-74.429688-20.582031 0-39.308594 8.054688-53.230469 21.160156-14.359375-13.5-33.441406-21.160156-53.273437-21.160156-41.753906 0-75.910156 33.09375-77.652344 74.429688 0 0-71.84375-2.714844-71.84375 64.171874 0 28.238282 18.34375 52.257813 43.730469 60.816407 8.335937 40.722656 36.78125 128.183593 129.769531 161.753906 15.457031 5.578125 25.839844 20.511719 25.839844 37.164063v65.929687c0 9.851563 4.921875 18.960937 13.160156 24.363281 4.832031 3.167969 14.394531 8.160156 27.589844 2.351563l43.15625-18.761719c17.289062-7.519531 28.460937-24.558594 28.460937-43.410156v-30.144532c0-16.722656 10.445313-31.679687 25.992188-37.21875 93.910156-33.457031 122.375-122.039062 130.570312-162.027343 25.386719-8.554688 43.730469-32.574219 43.730469-60.816407zm-256-123.601562c33.484375 0 60.921875 26.367188 62.648438 59.429688h-125.296876c1.726563-33.0625 29.164063-59.429688 62.648438-59.429688zm-106.503906 0c16.183594 0 31.753906 6.320312 43.382812 17.445312-8.582031 11.925782-13.875 26.359376-14.53125 41.984376h-91.5c1.726563-33.0625 29.164063-59.429688 62.648438-59.429688zm298.328125 172.777344h-316.898438c-4.140625 0-7.5 3.359375-7.5 7.5s3.359375 7.5 7.5 7.5c0 0 319.839844-.066406 321.292969-.167969-9.21875 39.625-37.289062 115.398437-119.554688 144.707031-21.507812 7.664063-35.957031 28.300782-35.957031 51.347656v30.144532c0 12.878906-7.632812 24.519531-19.441406 29.652344l-43.15625 18.765624c-11.125 4.550782-19.449219-2.878906-19.769531-12.960937v-65.929687c0-10.054688-2.757813-19.660157-7.65625-27.929688 13.210937 2.5625 29.703125 4.628906 48.589844 4.628906 8.890624 0 18.3125-.457031 28.164062-1.535156 4.117188-.449219 7.089844-4.152344 6.640625-8.269531-.449219-4.117188-4.132813-7.089844-8.269531-6.640625-52.972656 5.789062-93.300782-7.820313-101.140625-10.726563-.683594-.277343-91.578125-27.144531-120.886719-145.253906 1.453125.101563 38.179688.167969 38.179688.167969 4.140624 0 7.5-3.355469 7.5-7.5 0-4.140625-3.359376-7.5-7.5-7.5h-33.785157c-27.117187 0-49.175781-22.058594-49.175781-49.175782 0-27.113281 22.058594-49.171874 49.175781-49.171874h383.648438c27.117187 0 49.175781 22.058593 49.175781 49.171874 0 27.117188-22.058594 49.175782-49.175781 49.175782zm0 0"/><path d="m256 319.363281c19.628906 0 35.601562-15.96875 35.601562-35.597656v-20.429687c0-8.367188-6.804687-15.171876-15.171874-15.171876h-40.859376c-8.367187 0-15.171874 6.804688-15.171874 15.171876v20.429687c0 19.628906 15.972656 35.597656 35.601562 35.597656zm-20.601562-56.027343c0-.097657 41.203124-.097657 41.203124 0v20.429687c-.003906 11.355469-9.242187 20.597656-20.601562 20.597656s-20.601562-9.238281-20.601562-20.597656zm0 0"/></svg>