<svg height="512pt" viewBox="-22 0 512 512" width="512pt" xmlns="http://www.w3.org/2000/svg"><path d="m460.859375 428.941406c0-41.730468-101.488281-75.5625-226.679687-75.5625-125.191407 0-226.679688 33.832032-226.679688 75.5625 0 41.730469 101.488281 75.558594 226.679688 75.558594 125.191406 0 226.679687-33.828125 226.679687-75.558594zm0 0" fill="#ccf8ff"/><path d="m234.179688 353.378906c-125.191407 0-226.679688 33.832032-226.679688 75.5625 0 29.167969 49.574219 54.472656 122.179688 67.066406 94.714843-22.109374 128.976562-73.023437 128.976562-73.023437v-69.167969c-8.039062-.289062-16.207031-.4375-24.476562-.4375zm0 0" fill="#abebf4"/><path d="m234.179688 7.5c-91.808594 0-166.234376 74.425781-166.234376 166.230469 0 61.613281 74.863282 169.835937 124.109376 234.367187 21.210937 27.789063 63.039062 27.789063 84.246093 0 49.25-64.53125 124.109375-172.757812 124.109375-234.367187 0-91.804688-74.425781-166.230469-166.230468-166.230469zm0 244.972656c-43.488282 0-78.742188-35.253906-78.742188-78.742187s35.253906-78.738281 78.742188-78.738281c43.484374 0 78.742187 35.253906 78.742187 78.738281 0 43.488281-35.253906 78.742187-78.742187 78.742187zm0 0" fill="#ff929f"/><path d="m193.433594 241.121094c-22.777344-13.800782-37.996094-38.816406-37.996094-67.390625-16.917969-80.003907 27.023438-157.761719 27.207031-158.085938-66.574219 21.695313-114.699219 84.273438-114.699219 158.085938 0 61.613281 74.863282 169.835937 124.109376 234.367187 21.210937 27.789063 63.039062 27.789063 84.246093 0 7.710938-10.101562 16.046875-21.273437 24.628907-33.171875-27.566407-49.554687-74.132813-92.871093-107.496094-133.804687zm0 0" fill="#ff737d"/><path d="m433.394531 384.15625c-20.488281-11.605469-49.570312-21.277344-84.105469-27.964844-4.070312-.789062-8 1.871094-8.789062 5.9375-.785156 4.066406 1.871094 8.003906 5.9375 8.789063 32.960938 6.382812 60.472656 15.472656 79.566406 26.292969 12.476563 7.070312 27.355469 18.316406 27.355469 31.730468 0 16.210938-22.902344 33.527344-61.265625 46.3125-42.070312 14.023438-98.152344 21.746094-157.914062 21.746094-59.765626 0-115.847657-7.722656-157.914063-21.746094-38.363281-12.785156-61.265625-30.101562-61.265625-46.3125 0-12.449218 13.238281-25.535156 37.277344-36.84375 24.976562-11.753906 59.339844-20.71875 99.605468-26.019531 11.429688 16.226563 23.027344 31.917969 34.210938 46.570313 11.539062 15.121093 29.0625 23.792968 48.085938 23.792968 19.019531 0 36.542968-8.671875 48.082031-23.792968 57.320312-75.109376 125.648437-177.527344 125.648437-238.917969 0-95.792969-77.933594-173.730469-173.730468-173.730469-68.027344 0-130.152344 40.039062-158.277344 102.003906-1.710938 3.769532-.042969 8.214844 3.730468 9.925782 3.769532 1.710937 8.214844.042968 9.929688-3.730469 25.695312-56.617188 82.460938-93.199219 144.617188-93.199219 87.523437 0 158.730468 71.207031 158.730468 158.730469 0 25.847656-15.925781 90.074219-122.570312 229.816406-8.679688 11.371094-21.859375 17.894531-36.160156 17.894531-14.304688 0-27.484376-6.523437-36.160157-17.894531-106.648437-139.742187-122.570312-203.96875-122.570312-229.816406 0-13.167969 1.613281-26.257813 4.796875-38.902344 1.015625-4.015625-1.421875-8.09375-5.4375-9.105469-4.019532-1.011718-8.09375 1.425782-9.105469 5.441406-3.488281 13.839844-5.253906 28.160157-5.253906 42.566407 0 46.042969 38.433593 115.164062 81.832031 178.535156-38.519531 5.609375-71.65625 14.621094-96.390625 26.257813-20.933594 9.851562-45.890625 26.59375-45.890625 50.417968 0 23.667969 25.398438 45.167969 71.519531 60.542969 43.558594 14.519531 101.328125 22.515625 162.660157 22.515625 61.332031 0 119.097656-7.996094 162.660156-22.515625 46.121094-15.375 71.519531-36.875 71.519531-60.542969 0-20.640625-19.011719-35.746094-34.964844-44.785156zm0 0"/><path d="m320.421875 173.730469c0-47.554688-38.691406-86.242188-86.242187-86.242188-47.554688 0-86.242188 38.691407-86.242188 86.242188 0 47.554687 38.6875 86.242187 86.242188 86.242187 47.550781 0 86.242187-38.6875 86.242187-86.242187zm-157.484375 0c0-39.28125 31.957031-71.242188 71.242188-71.242188 39.28125 0 71.242187 31.960938 71.242187 71.242188 0 39.285156-31.960937 71.242187-71.242187 71.242187s-71.242188-31.957031-71.242188-71.242187zm0 0"/></svg>