<svg height="512pt" viewBox="0 0 512 512" width="512pt" xmlns="http://www.w3.org/2000/svg"><path d="m493.085938 493.082031c-15.21875 15.21875-40.121094 15.21875-55.339844 0l-86.84375-86.84375c-15.21875-15.21875-15.21875-40.121093 0-55.339843s40.121094-15.21875 55.339844 0l86.84375 86.84375c15.21875 15.21875 15.21875 40.121093 0 55.339843zm0 0" fill="#9ad880"/><path d="m406.242188 350.898438c-15.21875-15.21875-40.121094-15.21875-55.339844 0s-15.21875 40.121093 0 55.339843l58.671875 58.671875c22.203125-20.960937 33.617187-48.667968 39.476562-71.203125zm0 0" fill="#8dc971"/><path d="m413.269531 382.84375-30.421875 30.421875c-21.003906 21.003906-55.058594 21.003906-76.0625 0l-45.648437-45.648437 106.484375-106.484376 45.648437 45.648438c21.003907 21.003906 21.003907 55.058594 0 76.0625zm0 0" fill="#ffeb99"/><path d="m400.691406 395.425781c-18.179687-4.226562-27.546875-24.789062-18.980468-41.648437 9.761718-19.207032 11.59375-39.386719 11.59375-39.386719l-31.371094-47.570313-100.796875 100.796876 45.648437 45.648437c21.003906 21.003906 55.058594 21.003906 76.0625 0zm0 0" fill="#ffde55"/><path d="m419.609375 213.550781c0 113.800781-92.253906 206.054688-206.054687 206.054688-113.800782 0-206.054688-92.253907-206.054688-206.054688s92.253906-206.054687 206.054688-206.054687c113.800781 0 206.054687 92.253906 206.054687 206.054687zm0 0" fill="#b2e59c"/><path d="m337.214844 378.40625c-229.890625-35.964844-227.683594-270.144531-220.640625-346.722656-17.507813 9.34375-33.960938 21.410156-48.722657 36.171875-80.46875 80.46875-80.46875 210.933593 0 291.40625 73.476563 73.476562 188.640626 79.847656 269.363282 19.144531zm0 0" fill="#9ad880"/><path d="m319.277344 319.273438c-58.296875 58.296874-153.152344 58.296874-211.449219.003906-58.296875-58.296875-58.296875-153.15625 0-211.453125 58.296875-58.292969 153.152344-58.296875 211.449219 0s58.296875 153.152343 0 211.449219zm0 0" fill="#ccf8ff"/><path d="m259.992188 355.65625c-113.789063-52.75-141.03125-170.621094-144.957032-254.582031-2.457031 2.15625-4.863281 4.410156-7.207031 6.753906-58.296875 58.296875-58.296875 153.152344 0 211.449219 41.089844 41.089844 100.355469 53.207031 152.164063 36.378906zm0 0" fill="#abebf4"/><path d="m213.554688 258.621094c-15.519532 0-28.101563-12.578125-28.101563-28.097656v-20.429688c0-4.238281 3.433594-7.671875 7.671875-7.671875h40.859375c4.238281 0 7.671875 3.433594 7.671875 7.671875v20.429688c-.003906 15.519531-12.582031 28.097656-28.101562 28.097656zm0 0" fill="#57565c"/><path d="m149.53125 230.523438c0-13.183594-13.417969-23.871094-29.972656-23.871094-16.554688 0-29.972656 10.6875-29.972656 23.871094 0 13.179687 13.417968 23.867187 29.972656 23.867187 16.554687 0 29.972656-10.6875 29.972656-23.867187zm0 0" fill="#ffa6bb"/><path d="m337.523438 230.523438c0-13.183594-13.417969-23.871094-29.972657-23.871094-16.554687 0-29.972656 10.6875-29.972656 23.871094 0 13.179687 13.417969 23.867187 29.972656 23.867187 16.554688 0 29.972657-10.6875 29.972657-23.867187zm0 0" fill="#ffa6bb"/><path d="m301.710938 209.921875v-12.453125c0-4.140625-3.355469-7.5-7.5-7.5-4.144532 0-7.5 3.359375-7.5 7.5v12.453125c0 4.140625 3.355468 7.5 7.5 7.5 4.144531 0 7.5-3.359375 7.5-7.5zm0 0"/><path d="m140.398438 209.921875v-12.453125c0-4.140625-3.359376-7.5-7.5-7.5-4.144532 0-7.5 3.359375-7.5 7.5v12.453125c0 4.140625 3.355468 7.5 7.5 7.5 4.140624 0 7.5-3.359375 7.5-7.5zm0 0"/><path d="m498.390625 432.4375-65.875-65.875c15.027344-38.03125-21.140625-72.28125-21.140625-72.28125 10.320312-25.292969 15.734375-52.59375 15.734375-80.730469 0-57.042969-22.214844-110.671875-62.546875-151.007812-1.375-1.375-8.898438-9.753907-14.792969-3.789063-6.246093 6.320313 2.902344 13.117188 4.183594 14.394532 37.503906 37.503906 58.15625 87.363281 58.15625 140.402343 0 53.035157-20.652344 102.894531-58.15625 140.398438-37.5 37.5-87.359375 58.152343-140.398437 58.152343-53.035157 0-102.894532-20.652343-140.398438-58.152343-77.414062-77.417969-77.414062-203.382813 0-280.800781 33.101562-33.101563 76.980469-53.5 123.554688-57.441407 46.027343-3.898437 92.148437 8.375 129.875 34.554688 3.402343 2.363281 8.074218 1.519531 10.4375-1.886719 2.359374-3.402344 1.515624-8.074219-1.886719-10.4375-40.585938-28.160156-90.199219-41.367188-139.695313-37.175781-50.09375 4.238281-97.289062 26.179687-132.894531 61.785156-40.332031 40.332031-62.546875 93.960937-62.546875 151.003906s22.214844 110.671875 62.546875 151.003907c40.335937 40.335937 93.964844 62.550781 151.007813 62.550781 28.136718 0 55.441406-5.414063 80.730468-15.734375 0 0 18.089844 25.148437 50.53125 25.148437 16.371094 0 31.761719-6.375 43.335938-17.949219 0 0 35.035156-35.460937 36.976562-38.179687l62.652344 62.65625c5.945312 5.941406 18.332031 26.402344 0 44.730469-12.332031 12.332031-32.398438 12.332031-44.730469 0l-45.867187-45.867188c-2.929688-2.929687-7.675782-2.929687-10.605469 0-2.929687 2.929688-2.929687 7.679688 0 10.609375l45.867187 45.867188c8.777344 8.773437 20.484376 13.609375 32.972657 13.609375 12.484375 0 24.195312-4.835938 32.972656-13.609375 8.773437-8.777344 13.609375-20.488281 13.609375-32.976563 0-12.484375-4.835938-24.195312-13.609375-32.972656zm-120.847656-24.472656c-8.738281 8.742187-20.363281 13.324218-32.726563 13.554687-25.132812.46875-35.929687-16.757812-35.929687-16.757812 20.339843-10.167969 39.125-23.65625 55.671875-40.203125s30.039062-35.335938 40.203125-55.675782c0 0 37.230469 34.632813 3.207031 68.65625zm0 0"/><path d="m94.65625 291.25c-2.269531-3.46875-6.917969-4.441406-10.382812-2.175781-3.464844 2.269531-4.4375 6.917969-2.171876 10.382812 5.886719 9.007813 12.757813 17.457031 20.421876 25.121094 30.613281 30.613281 70.820312 45.917969 111.03125 45.917969 40.207031 0 80.417968-15.308594 111.027343-45.917969 29.609375-29.609375 45.917969-69.042969 45.917969-111.027344 0-41.988281-16.308594-81.417969-45.917969-111.027343-61.222656-61.222657-160.835937-61.222657-222.058593 0-44.296876 44.300781-57.992188 110.640624-34.886719 169.011718 1.523437 3.855469 5.882812 5.738282 9.734375 4.214844 3.851562-1.527344 5.734375-5.882812 4.210937-9.734375-20.902343-52.808594-8.519531-112.820313 31.550781-152.886719 55.371094-55.375 145.472657-55.371094 200.839844 0 26.78125 26.777344 41.527344 62.441406 41.527344 100.421875 0 37.976563-14.746094 73.640625-41.527344 100.417969-55.371094 55.375-145.46875 55.375-200.84375 0-6.933594-6.933594-13.148437-14.578125-18.472656-22.71875zm0 0"/><path d="m249.15625 230.523438v-20.429688c0-8.367188-6.808594-15.171875-15.171875-15.171875h-40.859375c-8.363281 0-15.171875 6.804687-15.171875 15.171875v20.429688c0 19.628906 15.972656 35.597656 35.601563 35.597656 19.628906 0 35.597656-15.96875 35.601562-35.597656zm-56.203125 0v-20.429688c0-.097656 41.203125-.097656 41.203125 0v20.425781c-.003906 11.359375-9.242188 20.601563-20.601562 20.601563-11.359376 0-20.601563-9.238282-20.601563-20.597656zm0 0"/></svg>