<svg height="512pt" viewBox="0 -7 512 511" width="512pt" xmlns="http://www.w3.org/2000/svg"><path d="m42.402344 252.683594h313.863281v-172.945313h-270.1875c-24.121094 0-43.675781 19.558594-43.675781 43.675781zm0 0" fill="#ffde55"/><path d="m42.402344 123.414062h313.863281v129.269532h-313.863281zm0 0" fill="#ffcd00"/><path d="m458.398438 293.679688h-344.378907v-239.105469c0-25.722657 20.851563-46.574219 46.574219-46.574219h251.230469c25.722656 0 46.574219 20.851562 46.574219 46.574219zm0 0" fill="#abebf4"/><path d="m114.019531 123.414062h344.378907v170.265626h-344.378907zm0 0" fill="#8ed7e8"/><path d="m300.449219 108.195312-26.117188 37.492188c-9.929687 14.257812-26.210937 22.757812-43.585937 22.757812h-182.914063c-22.273437 0-40.332031 18.054688-40.332031 40.328126v239.933593c0 22.273438 18.058594 40.328125 40.332031 40.328125h416.339844c22.273437 0 40.328125-18.054687 40.328125-40.328125v-328.636719c0-22.273437-18.054688-40.332031-40.328125-40.332031h-109.222656c-21.726563 0-42.078125 10.628907-54.5 28.457031zm0 0" fill="#ffeb99"/><path d="m300.449219 108.195312-26.117188 37.492188c-9.929687 14.257812-26.210937 22.757812-43.585937 22.757812h-182.914063c-22.273437 0-40.332031 18.054688-40.332031 40.328126v239.933593c0 22.273438 18.058594 40.328125 40.332031 40.328125h416.339844c22.273437 0 40.328125-18.054687 40.328125-40.328125v-328.636719c0-22.273437-18.054688-40.332031-40.328125-40.332031h-109.222656c-21.726563 0-42.078125 10.628907-54.5 28.457031zm0 0" fill="#ffeb99"/><path d="m169.09375 347.960938c-4.75-39.496094 8.800781-78.878907 36.265625-107.664063 33.5-35.113281 43.035156-66.832031 45.160156-75.667969-6.207031 2.488282-12.894531 3.8125-19.769531 3.8125h-182.917969c-22.273437 0-40.332031 18.058594-40.332031 40.332032v239.929687c0 22.277344 18.058594 40.332031 40.332031 40.332031h221.488281c-69.554687-2.746094-92.890624-80.109375-100.226562-141.074218zm0 0" fill="#ffde55"/><path d="m361.3125 409.726562h-210.625c-19.195312 0-34.753906-15.558593-34.753906-34.753906v-92.464844c0-19.195312 15.558594-34.753906 34.753906-34.753906h210.625c19.195312 0 34.753906 15.558594 34.753906 34.753906v92.464844c0 19.195313-15.558594 34.753906-34.753906 34.753906zm0 0" fill="#fff"/><path d="m150.6875 247.753906c-19.195312 0-34.753906 15.558594-34.753906 34.753906v92.464844c0 19.195313 15.558594 34.753906 34.753906 34.753906h31.75c-6.851562-20.226562-10.949219-41.867187-13.34375-61.761718-4.355469-36.191406 6.667969-72.277344 29.667969-100.210938zm0 0" fill="#ccf8ff"/><path d="m172.441406 310.285156h169.277344c4.140625 0 7.5-3.355468 7.5-7.5 0-4.140625-3.359375-7.5-7.5-7.5h-169.277344c-4.140625 0-7.5 3.359375-7.5 7.5 0 4.144532 3.359375 7.5 7.5 7.5zm0 0"/><path d="m170.28125 362.191406h169.277344c4.140625 0 7.5-3.355468 7.5-7.5 0-4.140625-3.359375-7.5-7.5-7.5h-169.277344c-4.140625 0-7.5 3.359375-7.5 7.5 0 4.144532 3.359375 7.5 7.5 7.5zm0 0"/><path d="m465.898438 72.285156v-17.710937c0-29.816407-24.257813-54.074219-54.074219-54.074219h-251.230469c-29.816406 0-54.074219 24.257812-54.074219 54.074219v17.664062h-20.441406c-28.21875 0-51.175781 22.960938-51.175781 51.179688v39.316406c-20.109375 5.652344-34.902344 24.144531-34.902344 46.039063v239.929687c0 26.375 21.457031 47.832031 47.832031 47.832031h416.335938c26.375 0 47.832031-21.457031 47.832031-47.832031v-328.632813c0-25.792968-20.527344-46.871093-46.101562-47.785156zm-379.820313 14.953125h20.441406v48.410157c0 4.144531 3.359375 7.5 7.5 7.5 4.144531 0 7.5-3.355469 7.5-7.5v-81.074219c0-21.546875 17.527344-39.074219 39.074219-39.074219h251.226562c21.546876 0 39.074219 17.527344 39.074219 39.074219v17.664062h-95.945312c-24.167969 0-46.839844 11.839844-60.652344 31.667969l-26.117187 37.496094c-8.527344 12.234375-22.519532 19.542968-37.433594 19.542968h-180.84375v-37.527343c0-19.949219 16.230468-36.179688 36.175781-36.179688zm410.921875 361.46875c0 18.101563-14.726562 32.828125-32.832031 32.828125h-416.335938c-18.105469 0-32.832031-14.726562-32.832031-32.828125v-239.933593c0-18.101563 14.726562-32.832032 32.832031-32.832032h182.914063c19.820312 0 38.414062-9.707031 49.742187-25.96875l26.117188-37.492187c11.007812-15.804688 29.082031-25.242188 48.34375-25.242188h109.21875c18.105469 0 32.832031 14.730469 32.832031 32.832031zm0 0"/><path d="m361.3125 240.253906h-210.625c-23.296875 0-42.253906 18.953125-42.253906 42.253906v92.464844c0 23.300782 18.957031 42.253906 42.253906 42.253906h156.589844c4.144531 0 7.5-3.359374 7.5-7.5 0-4.140624-3.355469-7.5-7.5-7.5h-156.589844c-15.027344 0-27.253906-12.226562-27.253906-27.253906v-92.464844c0-15.027343 12.226562-27.253906 27.253906-27.253906h210.625c15.027344 0 27.253906 12.226563 27.253906 27.253906v92.464844c0 15.027344-12.226562 27.253906-27.253906 27.253906h-23.132812c-4.144532 0-7.5 3.359376-7.5 7.5 0 4.140626 3.355468 7.5 7.5 7.5h23.132812c23.300781 0 42.253906-18.957031 42.253906-42.253906v-92.464844c0-23.300781-18.957031-42.253906-42.253906-42.253906zm0 0"/></svg>