<svg height="512pt" viewBox="0 -54 512 512" width="512pt" xmlns="http://www.w3.org/2000/svg"><path d="m432.699219 396.960938h-353.398438c-39.65625 0-71.800781-32.144532-71.800781-71.800782v-245.859375c0-39.65625 32.144531-71.800781 71.800781-71.800781h353.398438c39.65625 0 71.800781 32.144531 71.800781 71.800781v245.859375c0 39.65625-32.144531 71.800782-71.800781 71.800782zm0 0" fill="#8ed7e8"/><path d="m256 7.5h-176.699219c-39.65625 0-71.800781 32.144531-71.800781 71.800781v245.859375c0 39.65625 32.144531 71.800782 71.800781 71.800782h176.699219zm0 0" fill="#7ac1dd"/><path d="m432.699219 396.960938h-353.398438c-28.105469 0-52.433593-16.140626-64.226562-39.664063l199.246093-185.3125c23.492188-21.847656 59.867188-21.847656 83.359376 0l199.246093 185.316406c-11.792969 23.519531-36.121093 39.660157-64.226562 39.660157zm0 0" fill="#abebf4"/><path d="m184.121094 358.488281c.371094-33.753906 21.851562-63.300781 53.234375-75.734375 30.957031-12.261718 49.0625-41.976562 49.0625-41.976562v-77.097656c-22.773438-13.0625-52.101563-10.292969-72.097657 8.304687l-199.246093 185.3125c11.792969 23.519531 36.121093 39.664063 64.226562 39.664063h109.378907c-3.503907-12.292969-4.703126-25.550782-4.558594-38.472657zm0 0" fill="#8ed7e8"/><path d="m432.699219 7.5h-353.398438c-28.105469 0-52.433593 16.140625-64.226562 39.664062l199.246093 185.3125c23.492188 21.851563 59.867188 21.851563 83.359376 0l199.246093-185.3125c-11.792969-23.523437-36.121093-39.664062-64.226562-39.664062zm0 0" fill="#ccf8ff"/><path d="m127.070312 7.5h-47.769531c-28.105469 0-52.433593 16.140625-64.226562 39.664062l199.246093 185.3125c16.929688 15.746094 40.550782 20.144532 61.21875 13.195313-72.109374-68.941406-134.429687-193.152344-148.46875-238.171875zm0 0" fill="#abebf4"/><path d="m344.15625 114.320312v-12.449218c0-4.144532-3.355469-7.5-7.5-7.5-4.140625 0-7.5 3.355468-7.5 7.5v12.449218c0 4.144532 3.359375 7.5 7.5 7.5 4.144531 0 7.5-3.355468 7.5-7.5zm0 0"/><path d="m167.84375 101.871094v12.449218c0 4.144532 3.355469 7.5 7.5 7.5 4.140625 0 7.5-3.355468 7.5-7.5v-12.449218c0-4.144532-3.359375-7.5-7.5-7.5-4.144531 0-7.5 3.355468-7.5 7.5zm0 0"/><path d="m256 129.675781c9.707031 0 19.414062-3.144531 27.515625-9.425781 3.269531-2.539062 3.867187-7.25 1.328125-10.523438-2.539062-3.273437-7.25-3.867187-10.523438-1.328124-10.785156 8.367187-25.851562 8.367187-36.640624 0-3.273438-2.539063-7.984376-1.945313-10.523438 1.328124-2.539062 3.273438-1.941406 7.984376 1.332031 10.523438 8.097657 6.28125 17.804688 9.425781 27.511719 9.425781zm0 0"/><path d="m432.699219 0h-227.660157c-4.140624 0-7.5 3.359375-7.5 7.5s3.359376 7.5 7.5 7.5h227.660157c23.144531 0 43.464843 12.296875 54.792969 30.695312l-194.921876 181.289063c-20.503906 19.074219-52.636718 19.074219-73.144531 0l-194.917969-181.292969c11.328126-18.394531 31.648438-30.691406 54.792969-30.691406h92.914063c4.140625 0 7.5-3.359375 7.5-7.5s-3.359375-7.5-7.5-7.5h-92.914063c-43.726562 0-79.300781 35.574219-79.300781 79.300781v245.859375c0 43.726563 35.574219 79.300782 79.300781 79.300782h353.398438c43.726562 0 79.300781-35.574219 79.300781-79.300782v-245.859375c0-43.726562-35.574219-79.300781-79.300781-79.300781zm-261.914063 202.230469-152.847656 142.160156c-1.90625-6.074219-2.9375-12.53125-2.9375-19.230469v-245.859375c0-6.699219 1.03125-13.15625 2.941406-19.230469zm261.914063 187.230469h-353.398438c-23.144531 0-43.46875-12.296876-54.792969-30.695313l157.292969-146.292969 27.410157 25.496094c13.117187 12.203125 29.953124 18.300781 46.789062 18.300781s33.671875-6.097656 46.789062-18.300781l191.269532-177.898438c1.910156 6.074219 2.941406 12.535157 2.941406 19.230469v245.859375c0 6.699219-1.03125 13.15625-2.941406 19.234375l-134.117188-124.746093c-3.035156-2.820313-7.78125-2.648438-10.601562.386718-2.820313 3.03125-2.648438 7.777344.386718 10.597656l137.765626 128.136719c-11.328126 18.398438-31.648438 30.691407-54.792969 30.691407zm0 0"/></svg>