<svg height="512pt" viewBox="-75 0 512 512.001" width="512pt" xmlns="http://www.w3.org/2000/svg"><path d="m180.878906 312.058594c-49.179687 0-89.417968-40.238282-89.417968-89.417969v-125.722656c0-49.179688 40.238281-89.417969 89.417968-89.417969 49.179688 0 89.421875 40.238281 89.421875 89.417969v125.722656c0 49.179687-40.238281 89.417969-89.421875 89.417969zm0 0" fill="#898890"/><path d="m179.601562 72.265625c17.675782-17.335937 28.113282-41.347656 33.785157-58.613281-10.085938-3.96875-21.054688-6.152344-32.507813-6.152344-49.179687 0-89.417968 40.238281-89.417968 89.417969v125.722656c0 49.179687 40.238281 89.417969 89.417968 89.417969 7.71875 0 15.214844-.992188 22.371094-2.855469-47.648438-25.65625-53.183594-114.898437-51.691406-171.589844.648437-24.554687 10.503906-48.144531 28.042968-65.347656zm0 0" fill="#74747c"/><path d="m91.460938 159.777344v62.863281c0 49.179687 40.238281 89.417969 89.417968 89.417969 49.179688 0 89.421875-40.238282 89.421875-89.417969v-62.863281zm0 0" fill="#d8d7da"/><path d="m180.511719 504.5c-14.210938 0-25.835938-11.628906-25.835938-25.835938v-107.695312h51.675781v107.695312c-.003906 14.207032-11.628906 25.835938-25.839843 25.835938zm0 0" fill="#d8d7da"/><path d="m154.675781 446.875c20.863281-2.765625 38.246094-9.308594 51.675781-16.257812v-59.648438h-51.675781zm0 0" fill="#c6c5ca"/><path d="m180.878906 396.019531c-95.601562 0-173.378906-77.777343-173.378906-173.378906v-62.863281c0-11.589844 9.398438-20.988282 20.988281-20.988282 11.59375 0 20.992188 9.398438 20.992188 20.988282v62.863281c0 72.453125 58.945312 131.398437 131.398437 131.398437s131.402344-58.945312 131.402344-131.398437v-62.863281c0-11.589844 9.394531-20.988282 20.988281-20.988282s20.992188 9.398438 20.992188 20.988282v62.863281c0 95.601563-77.777344 173.378906-173.382813 173.378906zm0 0" fill="#eaeaea"/><path d="m91.460938 222.640625c0 49.179687 40.238281 89.417969 89.417968 89.417969 7.71875 0 15.214844-.992188 22.371094-2.855469-41.804688-22.507813-51.191406-93.949219-51.859375-149.425781h-59.929687zm0 0" fill="#c6c5ca"/><path d="m180.878906 319.558594c53.441406 0 96.917969-43.476563 96.917969-96.917969v-125.722656c.003906-53.441407-43.476563-96.917969-96.917969-96.917969-53.4375 0-96.917968 43.476562-96.917968 96.917969v125.722656c0 53.441406 43.480468 96.917969 96.917968 96.917969zm-81.917968-152.28125h138.625c4.144531 0 7.5-3.355469 7.5-7.5 0-4.140625-3.355469-7.5-7.5-7.5h-138.625v-55.359375c0-45.167969 36.75-81.917969 81.917968-81.917969 45.171875 0 81.917969 36.75 81.917969 81.917969v125.722656c0 45.167969-36.746094 81.917969-81.917969 81.917969-45.167968 0-81.917968-36.75-81.917968-81.917969zm0 0"/><path d="m333.273438 131.289062c-15.710938 0-28.492188 12.78125-28.492188 28.488282v62.863281c0 68.316406-55.582031 123.898437-123.898438 123.898437-68.320312 0-123.902343-55.582031-123.902343-123.898437v-62.863281c0-15.707032-12.78125-28.488282-28.488281-28.488282-15.710938 0-28.492188 12.78125-28.492188 28.488282v62.863281c0 42.902344 15.347656 84.53125 43.21875 117.214844 2.691406 3.152343 7.421875 3.527343 10.574219.839843 3.152343-2.6875 3.527343-7.417968.839843-10.570312-25.558593-29.972656-39.632812-68.144531-39.632812-107.484375v-62.863281c0-7.4375 6.050781-13.488282 13.492188-13.488282 7.4375 0 13.488281 6.050782 13.488281 13.488282v62.863281c0 76.589844 62.3125 138.898437 138.902343 138.898437 76.585938 0 138.898438-62.308593 138.898438-138.898437v-62.863281c0-7.4375 6.050781-13.488282 13.492188-13.488282 7.4375 0 13.488281 6.050782 13.488281 13.488282v62.863281c0 91.464844-74.414063 165.878906-165.878907 165.878906-38.28125 0-75.660156-13.410156-105.246093-37.753906-3.195313-2.632813-7.921875-2.171875-10.554688 1.023437-2.632812 3.199219-2.171875 7.925782 1.023438 10.558594 23.484375 19.328125 51.476562 32.324219 81.070312 37.972656v78.34375c0 18.382813 14.953125 33.335938 33.335938 33.335938 18.382812 0 33.335937-14.953125 33.335937-33.335938v-53.339843c0-4.144531-3.355468-7.5-7.5-7.5-4.140625 0-7.5 3.355469-7.5 7.5v53.339843c0 10.109376-8.226562 18.335938-18.335937 18.335938s-18.335938-8.226562-18.335938-18.335938v-76.128906c6.195313.648438 12.4375.984375 18.703125.984375 99.738282 0 180.882813-81.140625 180.882813-180.878906v-62.859375c0-15.710938-12.78125-28.492188-28.488281-28.492188zm0 0"/></svg>