<svg height="512pt" viewBox="0 -81 512 512" width="512pt" xmlns="http://www.w3.org/2000/svg"><path d="m94.757812 109.230469h-57.5c-16.433593 0-29.757812 13.324219-29.757812 29.757812v72.355469c0 16.433594 13.324219 29.757812 29.757812 29.757812h57.5l24.570313-66.242187zm0 0" fill="#ff929f"/><path d="m417.160156 313.078125c-7.8125-7.566406-7.199218-20.34375.679688-27.84375 30.484375-29.03125 47.269531-68.121094 47.269531-110.070313 0-41.949218-16.789063-81.039062-47.273437-110.066406-7.875-7.503906-8.179688-19.96875-.679688-27.847656 7.5-7.875 19.964844-8.179688 27.84375-.679688 38.367188 36.539063 59.5 85.757813 59.5 138.597657 0 52.832031-21.128906 102.054687-59.496094 138.589843-3.8125 3.628907-16.3125 10.488282-27.84375-.679687zm0 0" fill="#abebf4"/><path d="m348.738281 263.261719c-5.882812-9.148438-3.722656-21.253907 5.289063-27.34375 20.226562-13.671875 32.300781-36.382813 32.300781-60.753907 0-24.375-12.074219-47.085937-32.308594-60.757812-9.015625-6.085938-11.382812-18.332031-5.296875-27.34375 6.089844-9.011719 18.332032-11.382812 27.347656-5.292969 31.085938 21.003907 49.648438 55.917969 49.648438 93.394531 0 37.472657-18.554688 72.382813-49.636719 93.390626-3.378906 2.28125-19.527343 6.867187-27.34375-5.292969zm0 0" fill="#ccf8ff"/><path d="m94.757812 109.230469v131.871093l156.308594 95.542969c27.671875 16.914063 63.179688-3 63.179688-35.429687v-252.097656c0-32.429688-35.507813-52.34375-63.179688-35.429688zm0 0" fill="#eaeaea"/><path d="m55.0625 175.164062c20.644531 0 41.097656-3.546874 60.472656-10.433593l-20.777344-55.5h-57.5c-16.433593 0-29.757812 13.324219-29.757812 29.757812v36.175781zm0 0" fill="#ff737d"/><path d="m130.789062 158.515625 183.457032-84.773437v-24.625c0-32.429688-35.507813-52.34375-63.179688-35.429688l-156.3125 95.542969v61.503906c12.375-2.789063 24.457032-6.871094 36.035156-12.21875zm0 0" fill="#d8d7da"/><path d="m296.703125 6.359375c-15.683594-8.796875-34.207031-8.449219-49.546875.929687l-154.511719 94.441407h-55.386719c-20.542968 0-37.257812 16.714843-37.257812 37.257812v72.355469c0 20.542969 16.714844 37.257812 37.257812 37.257812h55.386719l154.511719 94.441407c20.996094 12.152343 41.980469 5.171875 49.546875.929687 15.683594-8.792968 25.046875-24.78125 25.046875-42.761718v-252.09375c-.003906-17.980469-9.363281-33.964844-25.046875-42.757813zm10.042969 294.851563c0 12.480468-6.496094 23.574218-17.382813 29.679687-10.882812 6.101563-23.734375 5.863281-34.386719-.648437l-156.308593-95.542969c-1.222657-.746094-2.574219-1.09375-3.910157-1.089844v-.007813h-57.5c-12.273437 0-22.257812-9.988281-22.257812-22.257812v-72.355469c0-12.273437 9.984375-22.257812 22.257812-22.257812h50v91.683593c0 4.144532 3.355469 7.5 7.5 7.5 4.140626 0 7.5-3.355468 7.5-7.5v-94.976562l152.71875-93.351562c10.648438-6.507813 23.503907-6.75 34.390626-.644532 10.882812 6.105469 17.382812 17.199219 17.382812 29.675782v252.09375zm0 0"/><path d="m480.851562 68.222656c-2.234374-3.488281-6.875-4.5-10.363281-2.261718-3.484375 2.238281-4.496093 6.875-2.257812 10.363281 18.820312 29.320312 28.769531 63.5 28.769531 98.839843 0 50.765626-20.304688 98.054688-57.171875 133.164063-.082031.078125-8.738281 8.136719-17.449219-.636719-6.269531-6.308594-1.835937-14.675781.632813-17.027344 31.984375-30.457031 49.597656-71.476562 49.597656-115.5 0-44.019531-17.613281-85.039062-49.601563-115.5-2.359374-2.246093-7.351562-9.871093-.417968-17.242187 6.929687-7.371094 14.878906-2.667969 17.238281-.421875 3.671875 3.5 7.234375 7.175781 10.59375 10.929688 2.761719 3.085937 7.503906 3.351562 10.589844.589843 3.085937-2.761719 3.351562-7.503906.589843-10.589843-3.621093-4.050782-7.46875-8.019532-11.429687-11.789063-5.261719-5.011719-23.417969-15.746094-38.445313.9375-14.816406 16.445313-4.320312 33.4375.9375 38.449219 28.984376 27.601562 44.945313 64.761718 44.945313 104.636718s-16.453125 76.527344-44.945313 104.636719c-17.554687 17.324219-5.808593 33.738281-.722656 38.664063 6.191406 6 22.148438 16.132812 38.234375.722656 39.757813-38.082031 61.824219-89.113281 61.824219-144.023438 0-38.21875-10.769531-75.199218-31.148438-106.941406zm0 0"/><path d="m380.269531 75.554688c-12.425781-8.394532-29.566406-5.25-37.757812 7.308593-13.210938 20.25 1.289062 33.691407 7.308593 37.757813 18.164063 12.273437 29.011719 32.664062 29.011719 54.542968 0 21.878907-10.84375 42.265626-29.003906 54.539063-12.347656 8.34375-15.597656 24.867187-7.398437 37.617187 14.957031 20.078126 34.953124 9.40625 37.851562 7.445313 33.148438-22.398437 52.941406-59.632813 52.941406-99.601563-.003906-39.96875-19.796875-77.207031-52.953125-99.609374zm-8.328125 186.746093c-1.410156.78125-12.164062 4.269531-16.894531-3.09375-3.753906-5.835937-2.355469-13.335937 3.179687-17.074219 22.292969-15.066406 35.601563-40.101562 35.601563-66.96875 0-26.871093-13.3125-51.90625-35.609375-66.96875-2.699219-1.824218-8.996094-8.476562-3.28125-16.929687 3.769531-5.574219 11.363281-7.042969 16.933594-3.28125 29.023437 19.609375 46.351562 52.199219 46.351562 87.179687-.003906 34.957032-17.300781 67.523438-46.28125 87.136719zm0 0"/></svg>