<svg height="512pt" viewBox="0 -37 512.0005 512" width="512pt" xmlns="http://www.w3.org/2000/svg"><g fill="#8ed7e8"><path d="m274.457031 25.953125c0-10.191406-8.265625-18.453125-18.457031-18.453125s-18.453125 8.261719-18.453125 18.453125v187.464844h36.90625v-187.464844zm0 0"/><path d="m142.824219 53.957031c-3.867188-9.429687-14.644531-13.9375-24.078125-10.070312-9.429688 3.871093-13.9375 14.648437-10.066406 24.078125l59.683593 145.453125h39.894531zm0 0"/><path d="m127.921875 213.417969-87.234375-86.628907c-7.230469-7.179687-18.914062-7.140624-26.097656.09375-7.179688 7.230469-7.140625 18.914063.09375 26.097657l60.859375 60.4375zm0 0"/><path d="m403.320312 67.964844c3.871094-9.429688-.636718-20.207032-10.066406-24.078125-9.425781-3.871094-20.207031.640625-24.078125 10.070312l-65.433593 159.460938h39.898437zm0 0"/><path d="m497.410156 126.882812c-7.179687-7.234374-18.867187-7.273437-26.097656-.09375l-87.234375 86.628907h52.378906l60.863281-60.4375c7.234376-7.183594 7.273438-18.867188.089844-26.097657zm0 0"/></g><path d="m256 93.492188c-101.75 0-190.503906 52.109374-237.515625 129.390624-14.554687 23.925782-14.554687 54.121094 0 78.046876 47.011719 77.28125 135.765625 129.386718 237.515625 129.386718s190.507812-52.105468 237.515625-129.386718c14.554687-23.925782 14.554687-54.121094 0-78.046876-47.007813-77.28125-135.765625-129.390624-237.515625-129.390624zm0 0" fill="#e1fcff"/><path d="m295.75 96.183594c-12.972656-1.769532-26.253906-2.691406-39.75-2.691406-101.75 0-190.503906 52.109374-237.515625 129.390624-14.550781 23.925782-14.550781 54.121094 0 78.046876 47.011719 77.28125 135.765625 129.386718 237.515625 129.386718 13.496094 0 26.769531-.917968 39.738281-2.6875-.367187-.21875-107.96875-64.714844-113.191406-165.722656-5.234375-101.183594 113.203125-165.722656 113.203125-165.722656zm0 0" fill="#b6f1ff"/><path d="m378.019531 261.90625c0 67.390625-54.628906 122.019531-122.019531 122.019531s-122.019531-54.628906-122.019531-122.019531 54.628906-122.019531 122.019531-122.019531 122.019531 54.628906 122.019531 122.019531zm0 0" fill="#9ad880"/><path d="m303.007812 261.90625c0 25.960938-21.046874 47.007812-47.007812 47.007812s-47.007812-21.046874-47.007812-47.007812 21.046874-47.007812 47.007812-47.007812 47.007812 21.046874 47.007812 47.007812zm0 0" fill="#ffeb99"/><path d="m236.917969 141.367188c-58.324219 9.164062-102.9375 59.644531-102.9375 120.539062 0 62.464844 46.941406 113.964844 107.46875 121.160156-27.753907-28.796875-56.277344-70.363281-58.902344-121.160156-2.609375-50.433594 25.511719-91.765625 54.371094-120.539062zm0 0" fill="#8dc971"/><path d="m499.921875 218.984375c-13.558594-22.289063-30.515625-42.5625-50.199219-60.1875l26.875-26.6875c2.066406-2.050781 10.074219-5.953125 15.492188.054687 5.417968 6.007813 2.023437 13.433594-.054688 15.496094l-10.046875 9.976563c-2.9375 2.917969-2.953125 7.664062-.035156 10.601562 1.464844 1.476563 3.394531 2.214844 5.320313 2.214844 1.910156 0 3.820312-.726563 5.285156-2.179687l10.042968-9.972657c4.917969-4.886719 13.53125-22.644531.128907-36.703125-14.914063-15.644531-31.804688-4.988281-36.703125-.128906l-27.792969 27.601562c-25.300781-21.109374-44.714844-29.367187-47.457031-30.777343l19.480468-47.480469c2.632813-6.414062 5.980469-26.371094-14.15625-33.859375-20.136718-7.492187-31.230468 7.742187-33.863281 14.15625l-19.582031 47.71875c-19.65625-5.972656-40.015625-9.902344-60.703125-11.699219v-61.175781c0-14.308594-11.644531-25.953125-25.953125-25.953125s-25.953125 11.644531-25.953125 25.953125v61.175781c-20.6875 1.796875-41.050781 5.726563-60.707031 11.699219l-19.582032-47.71875c-2.628906-6.414063-15.25-21.988281-33.859374-14.15625-18.609376 7.832031-16.789063 27.445313-14.15625 33.859375l19.480468 47.480469c-2.742187 1.410156-23.84375 10.910156-47.460937 30.777343l-27.792969-27.601562c-4.894531-4.863281-20.78125-16.558594-36.699219.128906-14.460937 15.160156-4.792969 31.816406.125 36.703125l27.113281 26.921875c-9.035156 10.621094-17.214843 21.90625-24.429687 33.761719-16.105469 26.476563-16.105469 59.367187 0 85.839844 24.152344 39.703125 59.074219 73.011719 100.992187 96.332031 43.113282 23.980469 92.535157 36.660156 142.929688 36.660156s99.820312-12.679687 142.929688-36.660156c41.921874-23.320312 76.839843-56.628906 100.992187-96.332031 16.105469-26.472657 16.105469-59.363281 0-85.839844zm-123.808594-162.183594c1.109375-2.707031 6.679688-9.011719 14.296875-5.976562 7.617188 3.035156 7.085938 11.585937 5.976563 14.292969l-19.148438 46.664062c-6.65625-2.992188-13.433593-5.734375-20.3125-8.21875zm-131.070312-30.847656c0-6.042969 4.917969-10.957031 10.957031-10.957031 6.042969 0 10.957031 4.917968 10.957031 10.957031v60.25c-3.644531-.132813-18.265625-.132813-21.914062 0zm-129.429688 39.164063c-1.109375-2.707032-2.105469-10.804688 5.976563-14.292969 8.085937-3.488281 13.1875 3.269531 14.296875 5.976562l19.1875 46.761719c-6.878907 2.484375-13.652344 5.230469-20.3125 8.222656zm-95.648437 82.542968c-2.078125-2.0625-6.414063-8.765625-.054688-15.496094 6.363282-6.730468 13.425782-2.105468 15.492188-.054687l26.875 26.6875c-5.460938 4.886719-10.707032 9.976563-15.730469 15.257813zm467.144531 149.375c-22.800781 37.484375-55.816406 68.957032-95.46875 91.015625-40.886719 22.746094-87.792969 34.769531-135.640625 34.769531s-94.75-12.023437-135.640625-34.769531c-39.652344-22.058593-72.664063-53.53125-95.46875-91.015625-13.179687-21.667968-13.179687-48.589844 0-70.253906 22.804687-37.488281 55.816406-68.960938 95.46875-91.019531 40.886719-22.746094 87.792969-34.769531 135.640625-34.769531s94.753906 12.023437 135.640625 34.769531c39.652344 22.054687 72.667969 53.53125 95.46875 91.015625 13.183594 21.667968 13.183594 48.589844 0 70.257812zm0 0"/><path d="m256 132.386719c-71.417969 0-129.519531 58.101562-129.519531 129.519531 0 20.75 4.761719 40.574219 14.152343 58.925781 1.886719 3.6875 6.40625 5.144531 10.089844 3.257813 3.6875-1.882813 5.144532-6.402344 3.261719-10.089844-8.300781-16.214844-12.507813-33.742188-12.507813-52.09375 0-63.148438 51.375-114.523438 114.523438-114.523438s114.523438 51.375 114.523438 114.523438-51.375 114.523438-114.523438 114.523438c-32.203125 0-63.101562-13.675782-84.773438-37.523438-2.785156-3.0625-7.527343-3.289062-10.59375-.503906-3.0625 2.785156-3.289062 7.527344-.503906 10.589844 24.507813 26.96875 59.453125 42.433593 95.871094 42.433593 71.417969 0 129.519531-58.101562 129.519531-129.519531s-58.101562-129.519531-129.519531-129.519531zm0 0"/><path d="m310.503906 261.90625c0-30.054688-24.449218-54.503906-54.503906-54.503906s-54.503906 24.449218-54.503906 54.503906 24.449218 54.503906 54.503906 54.503906 54.503906-24.449218 54.503906-54.503906zm-94.011718 0c0-21.785156 17.722656-39.507812 39.507812-39.507812s39.511719 17.722656 39.511719 39.507812-17.726563 39.507812-39.511719 39.507812-39.507812-17.722656-39.507812-39.507812zm0 0"/></svg>