<svg height="512pt" viewBox="0 -117 512 512" width="512pt" xmlns="http://www.w3.org/2000/svg"><path d="m29.925781 83.660156h148.265625c12.332032 0 22.421875-10.089844 22.421875-22.425781 0-12.332031-10.089843-22.421875-22.421875-22.421875h-148.265625c-12.335937 0-22.425781 10.089844-22.425781 22.421875 0 12.335937 10.089844 22.425781 22.425781 22.425781zm0 0" fill="#ffeb99"/><path d="m178.191406 83.660156c12.332032 0 22.421875-10.089844 22.421875-22.425781 0-12.332031-10.089843-22.421875-22.421875-22.421875h-89.480468c8.46875 13.136719 17.921874 29.003906 25.8125 44.847656zm0 0" fill="#ffde55"/><path d="m109.59375 161.261719h148.261719c12.335937 0 22.425781-10.089844 22.425781-22.425781 0-12.332032-10.089844-22.425782-22.425781-22.425782h-148.261719c-12.335938 0-22.425781 10.09375-22.425781 22.425782 0 12.335937 10.089843 22.425781 22.425781 22.425781zm0 0" fill="#c8efb9"/><path d="m280.28125 138.835938c0-12.332032-10.089844-22.425782-22.425781-22.425782h-129.800781c2.523437 8.320313 3.921874 15.976563 3.695312 22.425782-.273438 7.765624-2.589844 15.121093-6.199219 22.425781h132.304688c12.335937 0 22.425781-10.089844 22.425781-22.425781zm0 0" fill="#b2e59c"/><path d="m73.410156 238.863281h148.265625c12.335938 0 22.425781-10.089843 22.425781-22.425781 0-12.332031-10.089843-22.421875-22.425781-22.421875h-148.265625c-12.332031 0-22.421875 10.089844-22.421875 22.421875 0 12.335938 10.089844 22.425781 22.421875 22.425781zm0 0" fill="#ffeb99"/><path d="m244.101562 216.4375c0-12.332031-10.089843-22.421875-22.425781-22.421875h-117.914062c-9.667969 13.128906-19.941407 27.535156-27.441407 44.847656h145.355469c12.335938 0 22.425781-10.089843 22.425781-22.425781zm0 0" fill="#ffde55"/><path d="m66.277344 138.835938c0 12.386718-10.042969 22.425781-22.425782 22.425781-12.386718 0-22.425781-10.039063-22.425781-22.425781 0-12.382813 10.039063-22.425782 22.425781-22.425782 12.382813 0 22.425782 10.042969 22.425782 22.425782zm0 0" fill="#c8efb9"/><path d="m446.023438 270.175781h-227.738282c-32.296875 0-58.476562-26.183593-58.476562-58.476562v-145.722657c0-32.296874 26.179687-58.476562 58.476562-58.476562h227.738282c32.292968 0 58.476562 26.179688 58.476562 58.476562v145.71875c0 32.296876-26.179688 58.480469-58.476562 58.480469zm0 0" fill="#8ed7e8"/><path d="m504.5 89.542969v-23.566407c0-32.296874-26.179688-58.476562-58.476562-58.476562h-227.738282c-32.296875 0-58.476562 26.179688-58.476562 58.476562v23.566407c29.183594-2.023438 86.273437 13.128906 136.714844 41.953125-.785157 0 72.046874 0 71.261718 0 50.441406-28.824219 107.53125-43.976563 136.714844-41.953125zm0 0" fill="#7ac1dd"/><path d="m361.871094 118.09375 131.878906 127.375c-10.59375 14.941406-28.015625 24.707031-47.726562 24.707031h-227.738282c-19.710937 0-37.132812-9.765625-47.726562-24.707031l131.878906-127.375c16.574219-16.011719 42.859375-16.011719 59.433594 0zm0 0" fill="#abebf4"/><path d="m361.871094 159.578125 131.878906-127.371094c-10.59375-14.945312-28.015625-24.707031-47.726562-24.707031h-227.738282c-19.710937 0-37.132812 9.761719-47.726562 24.707031l131.878906 127.371094c16.574219 16.011719 42.859375 16.011719 59.433594 0zm0 0" fill="#ccf8ff"/><path d="m446.023438 0h-227.738282c-34.5625 0-55.675781 30.5625-56.140625 31.3125h-132.21875c-16.5 0-29.925781 13.421875-29.925781 29.921875s13.425781 29.925781 29.925781 29.925781h122.382813v17.75h-42.71875c-16.5 0-29.925782 13.425782-29.925782 29.925782s13.425782 29.925781 29.925782 29.925781h42.71875v42.933593c0 6.847657 1.050781 13.453126 2.992187 19.667969h-81.890625c-8.226562 0-14.921875-6.695312-14.921875-14.925781s6.695313-14.925781 14.921875-14.925781h52.140625c4.140625 0 7.5-3.359375 7.5-7.5s-3.359375-7.5-7.5-7.5h-52.140625c-16.5 0-29.921875 13.425781-29.921875 29.925781s13.421875 29.925781 29.921875 29.925781h88.773438c11.640625 18.773438 32.429687 31.308594 56.101562 31.308594h227.738282c36.378906 0 65.976562-29.597656 65.976562-65.976563v-145.71875c0-13.75-9.714844-65.976562-65.976562-65.976562zm-227.738282 15h227.738282c14.347656 0 27.988281 6.097656 37.589843 16.570312l-48.347656 46.695313c-2.980469 2.878906-3.0625 7.625-.1875 10.605469 2.878906 2.980468 7.625 3.0625 10.605469.183594l46.441406-44.851563c3.199219 6.757813 4.875 14.148437 4.875 21.773437v145.71875c0 7.78125-1.761719 15.15625-4.890625 21.761719l-97.964844-94.621093 28.324219-27.355469c2.976562-2.878907 3.0625-7.625.183594-10.605469-2.878906-2.976562-7.625-3.0625-10.605469-.183594l-55.386719 53.496094c-13.742187 13.273438-35.269531 13.273438-49.015625 0l-126.949219-122.617188c9.601563-10.472656 23.242188-16.570312 37.589844-16.570312zm-50.976562 196.695312v-145.71875c0-7.605468 1.671875-15.011718 4.875-21.777343l97.980468 94.636719-97.964843 94.621093c-3.132813-6.601562-4.890625-13.980469-4.890625-21.761719zm-137.382813-135.535156c-8.230469 0-14.925781-6.695312-14.925781-14.925781 0-8.226563 6.695312-14.921875 14.925781-14.921875h125.371094c-1.972656 6.3125-2.988281 12.925781-2.988281 19.664062v10.183594zm79.667969 77.601563c-8.230469 0-14.925781-6.695313-14.925781-14.925781 0-8.230469 6.695312-14.925782 14.925781-14.925782h42.714844v29.851563zm336.429688 108.914062h-227.738282c-14.859375 0-28.257812-6.398437-37.582031-16.578125l100.257813-96.832031 16.265624 15.707031c9.792969 9.460938 22.359376 14.191406 34.929688 14.1875 12.566406 0 25.136719-4.726562 34.929688-14.1875l16.265624-15.707031 100.253907 96.832031c-9.328125 10.179688-22.71875 16.578125-37.582031 16.578125zm0 0"/><path d="m73.777344 138.835938c0-16.5-13.425782-29.925782-29.925782-29.925782s-29.925781 13.425782-29.925781 29.925782c0 16.503906 13.425781 29.925781 29.925781 29.925781s29.925782-13.421875 29.925782-29.925781zm-44.851563 0c0-8.230469 6.695313-14.925782 14.925781-14.925782 8.230469 0 14.925782 6.695313 14.925782 14.925782 0 8.230468-6.695313 14.925781-14.925782 14.925781-8.230468 0-14.925781-6.695313-14.925781-14.925781zm0 0"/></svg>