<svg height="512pt" viewBox="0 -4 512 512" width="512pt" xmlns="http://www.w3.org/2000/svg"><path d="m75.710938 496.128906c-17.679688 0-32.148438-14.464844-32.148438-32.148437v-424.332031c0-17.679688 14.46875-32.148438 32.148438-32.148438 17.683593 0 32.148437 14.46875 32.148437 32.148438v424.332031c0 17.683593-14.464844 32.148437-32.148437 32.148437zm0 0" fill="#c8efb9"/><path d="m43.5625 44.828125v206.671875c10.160156 3.167969 20.960938 4.875 32.148438 4.875 11.191406 0 21.988281-1.707031 32.152343-4.875v-206.671875c-10.164062-3.167969-20.960937-4.875-32.152343-4.875-11.1875 0-21.988282 1.707031-32.148438 4.875zm0 0" fill="#b2e59c"/><path d="m143.925781 148.164062c0 37.671876-30.542969 68.210938-68.214843 68.210938-37.671876 0-68.210938-30.539062-68.210938-68.210938 0-37.671874 30.539062-68.210937 68.210938-68.210937 37.671874 0 68.214843 30.539063 68.214843 68.210937zm0 0" fill="#ffa5b5"/><path d="m62.71875 148.164062c0-27.84375 16.710938-51.78125 40.625-62.382812-8.445312-3.746094-17.800781-5.828125-27.632812-5.828125-37.671876 0-68.210938 30.539063-68.210938 68.210937 0 37.671876 30.539062 68.210938 68.210938 68.210938 9.832031 0 19.1875-2.085938 27.632812-5.828125-23.914062-10.601563-40.625-34.539063-40.625-62.382813zm0 0" fill="#ff929f"/><path d="m256 496.128906c-17.683594 0-32.148438-14.464844-32.148438-32.148437v-424.332031c0-17.679688 14.464844-32.148438 32.148438-32.148438s32.148438 14.46875 32.148438 32.148438v424.332031c0 17.683593-14.464844 32.148437-32.148438 32.148437zm0 0" fill="#ccf8ff"/><path d="m223.851562 261.605469v202.375c10.160157 3.167969 20.957032 4.875 32.148438 4.875s21.988281-1.707031 32.148438-4.875v-202.375c-10.160157-3.167969-20.957032-4.875-32.148438-4.875s-21.988281 1.707031-32.148438 4.875zm0 0" fill="#abebf4"/><path d="m324.210938 364.941406c0 37.671875-30.539063 68.210938-68.210938 68.210938s-68.210938-30.539063-68.210938-68.210938 30.539063-68.210937 68.210938-68.210937 68.210938 30.539062 68.210938 68.210937zm0 0" fill="#ffeb99"/><path d="m436.289062 496.128906c-17.683593 0-32.148437-14.464844-32.148437-32.148437v-424.332031c0-17.679688 14.464844-32.148438 32.148437-32.148438 17.679688 0 32.148438 14.46875 32.148438 32.148438v424.332031c0 17.683593-14.46875 32.148437-32.148438 32.148437zm0 0" fill="#c8efb9"/><path d="m404.136719 148.476562v206.675782c10.164062 3.167968 20.960937 4.875 32.148437 4.875 11.191406 0 21.992188-1.707032 32.152344-4.875v-206.675782c-10.160156-3.167968-20.960938-4.875-32.152344-4.875-11.1875 0-21.984375 1.707032-32.148437 4.875zm0 0" fill="#b2e59c"/><path d="m504.5 251.816406c0 37.671875-30.539062 68.210938-68.210938 68.210938-37.671874 0-68.214843-30.539063-68.214843-68.210938 0-37.675781 30.542969-68.214844 68.214843-68.214844 37.671876 0 68.210938 30.539063 68.210938 68.214844zm0 0" fill="#ffa5b5"/><path d="m423.292969 251.816406c0-27.84375 16.710937-51.785156 40.625-62.386718-8.441407-3.742188-17.800781-5.828126-27.628907-5.828126-37.675781 0-68.214843 30.542969-68.214843 68.214844s30.542969 68.210938 68.214843 68.210938c9.828126 0 19.1875-2.085938 27.628907-5.828125-23.914063-10.601563-40.625-34.542969-40.625-62.382813zm0 0" fill="#ff929f"/><path d="m243.003906 364.941406c0-27.84375 16.714844-51.785156 40.628906-62.382812-8.445312-3.746094-17.804687-5.828125-27.632812-5.828125-37.671875 0-68.210938 30.539062-68.210938 68.210937s30.539063 68.210938 68.210938 68.210938c9.828125 0 19.1875-2.085938 27.632812-5.828125-23.914062-10.601563-40.628906-34.539063-40.628906-62.382813zm0 0" fill="#ffde55"/><path d="m115.359375 83.699219v-44.050781c0-21.863282-17.785156-39.648438-39.648437-39.648438-21.859376 0-39.648438 17.785156-39.648438 39.648438v44.007812c-3.976562 2.449219-7.75 5.277344-11.257812 8.464844-3.066407 2.785156-3.292969 7.53125-.507813 10.597656 2.785156 3.0625 7.53125 3.289062 10.59375.503906 11.191406-10.167968 25.6875-15.769531 40.820313-15.769531 33.476562 0 60.714843 27.234375 60.714843 60.710937 0 33.476563-27.238281 60.710938-60.714843 60.710938-33.476563 0-60.710938-27.234375-60.710938-60.710938 0-8.199218 1.605469-16.148437 4.769531-23.628906 1.613281-3.816406-.171875-8.214844-3.988281-9.832031-3.816406-1.609375-8.214844.171875-9.828125 3.988281-3.949219 9.339844-5.953125 19.253906-5.953125 29.472656 0 27.21875 14.441406 51.121094 36.0625 64.464844v251.351563c0 21.863281 17.785156 39.648437 39.648438 39.648437 21.863281 0 39.648437-17.785156 39.648437-39.648437v-251.351563c21.621094-13.34375 36.0625-37.246094 36.0625-64.464844.003906-27.21875-14.441406-51.121093-36.0625-64.464843zm-64.296875-7.125v-36.925781c0-13.589844 11.058594-24.648438 24.648438-24.648438 13.589843 0 24.648437 11.058594 24.648437 24.648438v36.945312c-18.898437-7.515625-41.441406-2.722656-49.296875-.019531zm49.296875 387.40625c0 13.59375-11.054687 24.648437-24.648437 24.648437-13.589844 0-24.648438-11.058594-24.648438-24.648437v-244.246094c7.734375 2.671875 25.953125 7 49.300781 0v244.246094zm0 0"/><path d="m295.648438 300.476562v-260.828124c0-21.863282-17.785157-39.648438-39.648438-39.648438s-39.648438 17.785156-39.648438 39.648438v260.828124c-21.621093 13.34375-36.0625 37.246094-36.0625 64.464844 0 41.746094 33.964844 75.710938 75.710938 75.710938 8.628906 0 16.917969-1.46875 24.648438-4.140625v27.46875c0 13.589843-11.058594 24.648437-24.648438 24.648437-13.59375 0-24.648438-11.058594-24.648438-24.648437 0 0 1.558594-12.972657-7.5-12.851563-8.144531.109375-7.5 12.851563-7.5 12.851563 0 21.863281 17.785157 39.648437 39.648438 39.648437s39.648438-17.785156 39.648438-39.648437v-34.574219c21.621093-13.34375 36.0625-37.246094 36.0625-64.464844s-14.441407-51.121094-36.0625-64.464844zm-64.296876-260.828124c0-13.589844 11.058594-24.648438 24.648438-24.648438 13.59375 0 24.648438 11.058594 24.648438 24.648438v253.722656c-20.578126-6.890625-41.566407-2.671875-49.296876 0zm24.648438 386.003906c-33.476562 0-60.710938-27.234375-60.710938-60.710938 0-33.476562 27.234376-60.710937 60.710938-60.710937s60.710938 27.234375 60.710938 60.710937c0 33.476563-27.234376 60.710938-60.710938 60.710938zm0 0"/><path d="m512 251.816406c0-27.21875-14.441406-51.121094-36.0625-64.46875v-71.019531c0-4.140625-3.359375-7.5-7.5-7.5-4.144531 0-7.5 3.359375-7.5 7.5v63.917969c-18.492188-6.882813-41.566406-2.671875-49.300781 0v-140.597656c0-13.589844 11.058593-24.648438 24.648437-24.648438 13.59375 0 24.652344 11.058594 24.652344 24.648438v43.878906c0 4.140625 3.355469 7.5 7.5 7.5 4.140625 0 7.5-3.359375 7.5-7.5v-43.878906c0-21.863282-17.789062-39.648438-39.652344-39.648438-21.859375 0-39.648437 17.785156-39.648437 39.648438v147.699218c-21.617188 13.347656-36.0625 37.25-36.0625 64.46875s14.445312 51.117188 36.0625 64.464844v147.699219c0 21.863281 17.789062 39.648437 39.648437 39.648437 21.863282 0 39.652344-17.785156 39.652344-39.648437v-147.699219c21.621094-13.347656 36.0625-37.246094 36.0625-64.464844zm-51.0625 212.164063c0 13.59375-11.058594 24.648437-24.648438 24.648437-13.59375 0-24.648437-11.058594-24.648437-24.648437v-140.59375c7.730469 2.667969 24.648437 7.300781 49.296875 0zm-24.648438-151.453125c-33.476562 0-60.714843-27.234375-60.714843-60.710938 0-33.476562 27.238281-60.714844 60.714843-60.714844 33.476563 0 60.710938 27.238282 60.710938 60.714844 0 33.476563-27.234375 60.710938-60.710938 60.710938zm0 0"/></svg>