<svg height="512pt" viewBox="0 -33 512 511" width="512pt" xmlns="http://www.w3.org/2000/svg"><path d="m504.5 314.078125v-80.175781c0-45.21875-36.65625-81.878906-81.875-81.878906h-150.703125c-45.21875 0-81.875 36.660156-81.875 81.878906v80.175781c0 45.222656 36.65625 81.878906 81.875 81.878906h34.496094c18.726562 0 37.011719 5.382813 52.949219 15.214844 29.324218 18.082031 61.710937 24.699219 86.988281 26.753906 13.085937 1.0625 20.222656-14.945312 10.683593-23.964843-2.964843-2.804688-5.734374-5.679688-8.324218-8.605469-4.304688-4.859375-2.578125-12.570313 3.472656-14.914063 30.609375-11.855468 52.3125-41.570312 52.3125-76.363281zm0 0" fill="#abebf4"/><path d="m271.921875 152.023438c-45.21875 0-81.875 36.660156-81.875 81.878906v80.175781c0 45.222656 36.65625 81.878906 81.875 81.878906h34.496094c4.0625 0 8.128906.253907 12.132812.753907 125.710938-61.164063 125.625-178.820313 114.210938-244.0625-3.328125-.414063-6.703125-.621094-10.140625-.621094h-150.699219zm0 0" fill="#8ed7e8"/><path d="m302.410156 8h-191.089844c-57.339843 0-103.820312 46.480469-103.820312 103.820312v101.664063c0 51.28125 37.183594 93.851563 86.058594 102.273437 6.875 1.183594 9.875 9.417969 5.332031 14.714844-3.898437 4.546875-8.222656 8.988282-13.023437 13.234375-8.714844 7.714844-2.757813 22.027344 8.863281 21.328125 27.285156-1.644531 64.441406-8.472656 97-30.289062 16.636719-11.148438 36.054687-17.441406 56.085937-17.441406h54.59375c57.335938 0 103.816406-46.480469 103.816406-103.820313v-101.664063c0-57.339843-46.480468-103.820312-103.816406-103.820312zm0 0" fill="#ccf8ff"/><path d="m162.1875 8h-50.867188c-57.339843 0-103.820312 46.480469-103.820312 103.820312v101.664063c0 51.28125 37.183594 93.851563 86.058594 102.273437 6.878906 1.183594 9.875 9.417969 5.332031 14.714844-3.898437 4.546875-8.222656 8.988282-13.023437 13.234375-8.714844 7.714844-2.757813 22.027344 8.863281 21.328125 21.230469-1.28125 48.433593-5.695312 74.800781-17.871094-5.59375-83.195312-50.472656-181.539062-50.824219-245.277343-.253906-45.867188 22.402344-75.894531 43.480469-93.886719zm0 0" fill="#abebf4"/><path d="m206.863281 208.019531c-15.519531 0-28.101562-12.578125-28.101562-28.097656v-20.429687c0-4.238282 3.433593-7.671876 7.671875-7.671876h40.859375c4.238281 0 7.671875 3.433594 7.671875 7.671876v20.429687c0 15.519531-12.582032 28.097656-28.101563 28.097656zm0 0" fill="#57565c"/><path d="m142.839844 179.921875c0-13.183594-13.417969-23.871094-29.972656-23.871094-16.554688 0-29.972657 10.6875-29.972657 23.871094 0 13.179687 13.417969 23.867187 29.972657 23.867187 16.554687 0 29.972656-10.6875 29.972656-23.867187zm0 0" fill="#ffa6bb"/><path d="m330.832031 179.921875c0-13.183594-13.417969-23.871094-29.972656-23.871094s-29.972656 10.6875-29.972656 23.871094c0 13.179687 13.417969 23.867187 29.972656 23.867187s29.972656-10.6875 29.972656-23.867187zm0 0" fill="#ffa6bb"/><path d="m295.019531 159.316406v-12.449218c0-4.140626-3.355469-7.5-7.5-7.5-4.140625 0-7.5 3.359374-7.5 7.5v12.449218c0 4.144532 3.359375 7.5 7.5 7.5 4.144531 0 7.5-3.355468 7.5-7.5zm0 0"/><path d="m118.707031 146.867188v12.449218c0 4.144532 3.359375 7.5 7.5 7.5 4.144531 0 7.5-3.355468 7.5-7.5v-12.449218c0-4.140626-3.355469-7.5-7.5-7.5-4.140625 0-7.5 3.359374-7.5 7.5zm0 0"/><path d="m422.625 144.523438h-8.898438v-32.703126c0-61.382812-49.9375-111.320312-111.316406-111.320312h-21.703125c-4.140625 0-7.5 3.359375-7.5 7.5s3.359375 7.5 7.5 7.5h21.703125c53.109375 0 96.316406 43.207031 96.316406 96.320312v101.664063c0 53.109375-43.207031 96.320313-96.316406 96.320313h-54.59375c-21.15625 0-41.996094 6.46875-60.261718 18.710937-31.730469 21.261719-68.238282 27.523437-93.277344 29.03125-3.039063.175781-4.296875-1.972656-4.683594-2.910156-.382812-.925781-1.027344-3.300781 1.246094-5.316407 4.859375-4.300781 9.613281-8.894531 13.746094-13.96875 8.574218-10.519531 4.953124-24.304687-9.753907-26.988281-46.179687-8.417969-79.832031-47.875-79.832031-94.878906v-101.664063c0-53.109374 43.207031-96.320312 96.316406-96.320312h137.179688c4.144531 0 7.5-3.359375 7.5-7.5s-3.355469-7.5-7.5-7.5h-137.179688c-61.378906 0-111.316406 49.9375-111.316406 111.320312v101.664063c0 54.328125 38.8125 100.445313 92.28125 109.664063.722656.125-.351562 6.292968-11.382812 14.941406-6.722657 5.265625-8.425782 14.40625-5.164063 22.28125 3.105469 7.507812 10.214844 12.722656 19.445313 12.148437 26.890624-1.675781 66.199218-8.40625 100.722656-31.542969 15.789062-10.582031 33.742187-16.171874 51.914062-16.171874h54.59375c35.792969 0 67.6875-16.988282 88.066406-43.316407h62.425782c4.144531 0 7.5-3.355469 7.5-7.5 0-4.140625-3.355469-7.5-7.5-7.5h-52.625c13.703125-23.550781 13.449218-55.613281 13.449218-55.613281h39.175782c4.144531 0 7.5-3.359375 7.5-7.5 0-4.144531-3.355469-7.5-7.5-7.5h-39.175782v-36.351562h8.894532c41.011718 0 74.378906 33.363281 74.378906 74.375v80.179687c0 15.300781-4.609375 29.992187-13.328125 42.488281-8.53125 12.222656-20.484375 21.191406-34.191406 26.878906-12.035157 4.992188-14.527344 17.570313-6.382813 26.878907 2.773438 3.171875 5.75 6.210937 8.789063 9.082031 3.054687 2.890625 1.878906 6.289062 1.445312 7.261719-.433593.972656-2.191406 4.128906-6.367187 3.78125-22.089844-1.792969-54.53125-7.703125-83.660156-25.664063-17.320313-10.683594-36.992188-16.332031-56.890626-16.332031h-34.492187c-23.761719 0-45.53125-10.949219-59.730469-30.046875-2.472656-3.324219-7.171875-4.015625-10.492187-1.542969-3.324219 2.472657-4.015625 7.167969-1.546875 10.492188 16.808594 22.605469 43.636718 36.097656 71.769531 36.097656h34.492187c17.113282 0 34.0625 4.875 49.019532 14.097656 31.660156 19.527344 66.585937 25.964844 90.316406 27.847657 9.726562.773437 17.78125-4.765626 21.28125-12.625 3.75-8.414063 1.722656-17.804688-4.839844-24.265626-9.363281-9.210937-7.828125-10.867187-7.296875-11.074218 16.632813-6.441406 30.835938-17.605469 41.078125-32.28125 10.484375-15.023438 16.027344-32.6875 16.027344-51.074219v-80.175781c0-49.285156-40.09375-89.378906-89.375-89.378906zm0 0"/><path d="m186.433594 144.320312c-8.363282 0-15.167969 6.804688-15.167969 15.171876v20.429687c0 19.628906 15.96875 35.597656 35.597656 35.597656 19.628907 0 35.601563-15.96875 35.601563-35.597656v-20.429687c0-8.367188-6.804688-15.171876-15.167969-15.171876zm41.03125 15.171876v20.429687c0 11.359375-9.242188 20.601563-20.601563 20.601563s-20.601562-9.242188-20.601562-20.601563v-20.429687c.003906-.09375 41.203125-.09375 41.203125 0zm0 0"/><path d="m385.53125 352.105469h-124.160156c-4.140625 0-7.5-3.359375-7.5-7.5s3.359375-7.5 7.5-7.5h124.160156c4.144531 0 7.5 3.359375 7.5 7.5s-3.355469 7.5-7.5 7.5zm0 0"/></svg>