<svg height="511pt" viewBox="1 -19 511.99963 511" width="511pt" xmlns="http://www.w3.org/2000/svg"><path d="m347.695312 164.804688c-15.484374-15.484376-19.308593-41.082032-10.773437-72.070313 6.578125-23.871094 19.515625-47.554687 33.769531-61.808594 30.570313-30.570312 80.3125-30.574219 110.886719 0 30.566406 30.570313 30.566406 80.3125 0 110.878907-14.257813 14.253906-37.9375 27.195312-61.808594 33.773437-30.996093 8.535156-56.589843 4.710937-72.074219-10.773437zm106.554688-106.558594c-15.503906-15.503906-40.730469-15.503906-56.234375 0-9.355469 9.355468-19.160156 27.757812-23.839844 44.75-5.363281 19.46875-2.898437 30.746094.84375 34.484375 3.738281 3.738281 15.015625 6.203125 34.484375.84375 16.992188-4.683594 35.390625-14.484375 44.746094-23.839844 15.503906-15.507813 15.503906-40.734375 0-56.238281zm0 0" fill="#acabb1"/><path d="m409.503906 138.324219c-19.46875 5.359375-30.746094 2.894531-34.484375-.84375-1.621093-1.621094-3.003906-4.660157-3.613281-9.167969-10.257812 8.648438-21.675781 15.820312-33.886719 21.382812 2.484375 5.746094 5.882813 10.816407 10.175781 15.109376 15.484376 15.484374 41.078126 19.308593 72.070313 10.769531 21.554687-5.9375 42.945313-17.050781 57.390625-29.652344l-18.539062-36.617187c-1.285157 1.820312-2.738282 3.550781-4.367188 5.179687-9.355469 9.355469-27.753906 19.15625-44.746094 23.839844zm0 0" fill="#898890"/><path d="m451.59375 211.96875-21.117188-123.265625c-3.976562-23.203125-22.152343-41.378906-45.355468-45.355469l-123.265625-21.117187c-21.691407-3.71875-43.839844 3.324219-59.398438 18.886719l-179.980469 179.976562c-20.007812 20.007812-20.007812 52.445312 0 72.453125l157.800782 157.796875c20.007812 20.007812 52.445312 20.007812 72.449218 0l179.980469-179.976562c15.5625-15.5625 22.601563-37.707032 18.886719-59.398438zm-135.417969-54.320312c-16.417969-16.414063-16.417969-43.03125 0-59.445313 16.414063-16.417969 43.03125-16.417969 59.445313 0 16.417968 16.414063 16.417968 43.03125 0 59.445313-16.414063 16.414062-43.03125 16.414062-59.445313 0zm0 0" fill="#c8efb9"/><path d="m184.183594 190.027344c22.546875-22.546875 54.214844-33.386719 85.875-29.574219 25.390625 3.054687 46.117187-2.804687 46.117187-2.804687-16.417969-16.417969-16.417969-43.03125 0-59.445313 16.414063-16.417969 43.03125-16.417969 59.445313 0 4.789062 4.785156 8.179687 10.4375 10.171875 16.457031 18.585937-18.003906 33.90625-25.375 44.222656-28.328125-4.773437-22.0625-22.488281-39.144531-44.894531-42.984375l-123.265625-21.117187c-21.691407-3.71875-43.839844 3.324219-59.398438 18.886719l-179.980469 179.976562c-20.007812 20.007812-20.007812 52.445312 0 72.453125l37.601563 37.597656c2.289063-16.589843 15.128906-32.136719 15.128906-32.136719zm0 0" fill="#b2e59c"/><path d="m371.207031 119.335938c.316407-4.605469 1.234375-10.042969 2.96875-16.339844 4.679688-16.992188 14.484375-35.394532 23.839844-44.75 14.902344-14.902344 38.792969-15.472656 54.394531-1.730469l29.164063-25.589844c-30.570313-30.574219-80.3125-30.574219-110.882813 0-14.253906 14.253907-27.191406 37.9375-33.769531 61.808594-5.730469 20.792969-5.894531 39.152344-.703125 53.664063zm0 0" fill="#acabb1"/><path d="m276.613281 206.011719-8.804687-8.804688c-2.929688-2.925781-7.675782-2.925781-10.605469 0-2.929687 2.929688-2.929687 7.679688 0 10.609375l8.804687 8.804688c2.929688 2.925781 7.675782 2.929687 10.605469 0 2.929688-2.929688 2.929688-7.679688 0-10.609375zm0 0"/><path d="m143.128906 321.886719 8.804688 8.808593c2.929687 2.925782 7.679687 2.925782 10.609375 0 2.929687-2.929687 2.929687-7.679687 0-10.609374l-8.804688-8.804688c-2.929687-2.929688-7.679687-2.929688-10.609375 0-2.925781 2.929688-2.925781 7.679688 0 10.605469zm0 0"/><path d="m190.628906 285.5c.519532 4.109375 4.273438 7.023438 8.382813 6.5 10.167969-1.285156 19.253906-5.925781 26.121093-12.789062 6.863282-6.867188 11.503907-15.953126 12.789063-26.121094.519531-4.109375-2.390625-7.863282-6.5-8.382813s-7.863281 2.394531-8.378906 6.503907c-1.710938 13.542968-12.367188 24.199218-25.910157 25.910156-4.113281.515625-7.023437 4.269531-6.503906 8.378906zm0 0"/><path d="m458.984375 210.703125-13.699219-79.96875c5.722656-3.550781 10.589844-7.265625 14.269532-10.949219 18.429687-18.425781 18.429687-48.414062 0-66.839844-18.429688-18.429687-48.414063-18.429687-66.84375 0-10.339844 10.339844-20.695313 29.65625-25.765626 48.058594-5.273437 19.152344-2.96875 38.464844 8.160157 45.335938-3.179688 8.460937-14.570313 13.402344-20.230469 14.914062-13.890625-11.5625-18.507812-38.25-10.722656-66.53125 6.253906-22.691406 18.457031-45.105468 31.84375-58.496094 27.644531-27.644531 72.628906-27.644531 100.277344 0 27.644531 27.648438 27.644531 72.632813-.003907 100.277344-2.089843 2.089844-14.546875 8.898438-8.199219 16.816406 5.90625 7.359376 16.332032-3.734374 18.808594-6.210937 33.496094-33.492187 33.496094-87.992187 0-121.488281s-89.511718-35.382813-126.828125 5.824218l-96.929687-16.605468c-24.050782-4.125-48.710938 3.71875-65.96875 20.972656l-126.492188 126.492188c-2.929687 2.929687-2.929687 7.679687 0 10.605468 2.929688 2.929688 7.679688 2.929688 10.605469 0l126.492187-126.488281c13.820313-13.820313 33.570313-20.097656 52.832032-16.796875l89.527344 15.335938c-6.761719 10.503906-12.675782 22.617187-17.070313 35.121093-8.371094 2.238281-15.984375 6.625-22.175781 12.816407-19.3125 19.3125-19.3125 50.738281 0 70.054687 19.3125 19.3125 50.738281 19.3125 70.054687 0 18.164063-18.164063 19.242188-47.035156 3.242188-66.476563 9.117187-25.464843 21.058593-34.707031 22.066406-35.5 8.933594 7.332032 14.886719 17.53125 16.847656 28.992188l21.117188 123.265625c3.300781 19.261719-2.976563 39.011719-16.796875 52.832031l-179.976563 179.976563c-17.050781 17.050781-44.792969 17.050781-61.84375 0l-157.800781-157.800781c-17.050781-17.050782-17.050781-44.792969 0-61.84375l28.945312-28.945313c2.925782-2.929687 2.925782-7.675781 0-10.605469-2.929687-2.929687-7.679687-2.929687-10.609374 0l-28.941407 28.941406c-22.902343 22.902344-22.902343 60.160157 0 83.058594l157.796875 157.800782c22.902344 22.902343 60.160156 22.898437 83.058594 0l179.980469-179.976563c17.253906-17.253906 25.09375-41.917969 20.972656-65.96875zm-131.207031-112.171875c-5.402344 24.847656-2.933594 46.296875 7.050781 62.09375-4.882813-1.640625-9.46875-4.398438-13.351563-8.28125-13.464843-13.464844-16-41.4375 6.300782-53.8125zm52.394531 33.433594c-.804687-1.246094-2.214844-5.675782-1.292969-14.238282 1.421875 4.617188 1.847656 9.472657 1.292969 14.238282zm41.085937-77.476563c9.800782-1.484375 20.160157 1.53125 27.691407 9.0625 12.578125 12.578125 14.0625 36.652344-6.4375 50.996094l-4.644531-27.109375c-2.148438-12.546875-7.949219-23.933594-16.609376-32.949219zm0 0"/></svg>