<svg height="511pt" viewBox="0 -44 511.99989 511" width="511pt" xmlns="http://www.w3.org/2000/svg"><path d="m42.160156 262.816406c-40.1875 40.1875-46.421875 99.113282-13.925781 131.609375 32.5 32.5 91.425781 26.265625 131.613281-13.921875l96.152344-96.152344-13.195312-28.644531-26.355469-10.90625-9.003907 7.296875c-9.746093 7.894532-23.589843 6.957032-33.671874-3.207031-32.363282-32.632813-91.421876-26.265625-131.613282 13.925781zm34.214844 31.039063c20.140625-20.140625 47.980469-24.953125 62.183594-10.75s9.390625 42.042969-10.75 62.183593c-20.136719 20.136719-47.976563 24.949219-62.179688 10.746094s-9.390625-42.042968 10.746094-62.179687zm0 0" fill="#9ad880"/><path d="m389.984375 15.859375-142.058594 142.054687c-11.21875 11.21875-17.671875 26.378907-17.742187 42.242188-.058594 14.03125-2.917969 31.949219-13.734375 44.644531l39.550781 39.550781 149.328125-149.332031s53.660156-53.660156 28.125-111.109375c-7.636719-17.1875-30.171875-21.351562-43.46875-8.050781zm0 0" fill="#d8d7da"/><path d="m288.578125 117.261719-40.652344 40.652343c-11.21875 11.21875-17.671875 26.378907-17.742187 42.242188-.058594 14.03125-2.917969 31.949219-13.734375 44.644531l39.550781 39.550781 85.296875-85.300781c-10.035156-39.84375-33.078125-65.960937-52.71875-81.789062zm0 0" fill="#c6c5ca"/><path d="m338.226562 248.890625c-10.078124 10.164063-23.921874 11.101563-33.671874 3.207031l-9.003907-7.296875-26.355469 10.90625-13.195312 28.644531 96.152344 96.152344c40.1875 40.1875 99.113281 46.421875 131.613281 13.921875 32.496094-32.496093 26.261719-91.421875-13.925781-131.609375-40.191406-40.191406-99.25-46.558594-131.613282-13.925781zm108.144532 107.144531c-14.199219 14.203125-42.039063 9.390625-62.179688-10.746094-20.136718-20.140624-24.949218-47.980468-10.746094-62.183593 14.199219-14.203125 42.039063-9.390625 62.179688 10.75 20.136719 20.136719 24.949219 47.976562 10.746094 62.179687zm0 0" fill="#b2e59c"/><path d="m122.015625 15.859375 142.058594 142.054687c11.21875 11.21875 17.671875 26.378907 17.742187 42.242188.058594 14.03125 2.917969 31.949219 13.730469 44.644531l-39.546875 39.550781-149.328125-149.328124s-53.660156-53.664063-28.125-111.113282c7.640625-17.1875 30.171875-21.351562 43.46875-8.050781zm0 0" fill="#eaeaea"/><path d="m256.980469 203.257812c0 11.132813-9.023438 20.160157-20.15625 20.160157-11.128907 0-20.15625-9.027344-20.15625-20.160157 0-11.128906 9.027343-20.15625 20.15625-20.15625 11.132812 0 20.15625 9.027344 20.15625 20.15625zm0 0" fill="#9ad880"/><path d="m236.824219 230.917969c15.253906 0 27.660156-12.40625 27.660156-27.660157 0-15.25-12.40625-27.65625-27.660156-27.65625-15.25 0-27.65625 12.40625-27.65625 27.65625 0 15.253907 12.40625 27.660157 27.65625 27.660157zm0-40.3125c6.980469 0 12.65625 5.675781 12.65625 12.652343 0 6.976563-5.675781 12.65625-12.65625 12.65625-6.976563 0-12.652344-5.679687-12.652344-12.65625 0-6.976562 5.675781-12.652343 12.652344-12.652343zm0 0"/><path d="m440.929688 288.550781c-10.824219-10.828125-24.085938-18.050781-37.34375-20.339843-14.214844-2.457032-26.804688.949218-35.445313 9.589843-8.644531 8.644531-12.050781 21.230469-9.59375 35.449219 2.292969 13.253906 9.515625 26.515625 20.339844 37.34375 10.824219 10.824219 44.542969 37.5 72.792969 10.746094 8.871093-8.402344 12.046874-21.230469 9.589843-35.445313-2.292969-13.257812-9.515625-26.519531-20.339843-37.34375zm.136718 62.179688c-15.992187 16.21875-42.914062-2.09375-51.570312-10.746094-16.890625-16.890625-21.8125-40.507813-10.746094-51.574219 4.011719-4.011718 9.671875-5.917968 16.066406-5.917968 11.238282 0 24.738282 5.902343 35.503906 16.667968 16.890626 16.890625 21.734376 40.429688 10.746094 51.570313zm0 0"/><path d="m475.144531 257.511719c-23.519531-23.519531-54.082031-36.996094-83.886719-36.996094-.066406 0-.136718 0-.203124 0-22.777344.046875-43.582032 8.101563-58.15625 23.09375-13.160157 13.539063-26.152344.605469-26.152344.605469l103.890625-103.886719c.582031-.582031 14.40625-14.53125 25.050781-35.980469 14.402344-29.015625 16-57.886718 4.621094-83.484375-4.585938-10.324219-13.964844-17.71875-25.082032-19.785156-11.128906-2.066406-22.550781 1.476563-30.546874 9.476563l-110.542969 110.539062c-2.929688 2.929688-2.929688 7.679688 0 10.609375 2.929687 2.933594 7.679687 2.933594 10.609375 0l110.542968-110.539063c4.570313-4.570312 10.839844-6.511718 17.199219-5.332031 6.347657 1.175781 11.492188 5.230469 14.109375 11.125 9.589844 21.574219 8.1875 45.238281-4.164062 70.339844-9.523438 19.355469-22.289063 32.296875-22.410156 32.417969l-103.394532 103.398437c-6.164062-11.328125-7.277344-25.003906-7.3125-32.988281-.078125-17.863281-7.15625-34.734375-19.9375-47.515625l-142.054687-142.054687c-8-8-19.417969-11.539063-30.550781-9.476563-11.117188 2.0625-20.492188 9.460937-25.082032 19.785156-11.378906 25.597657-9.78125 54.46875 4.621094 83.484375 10.648438 21.449219 24.46875 35.398438 25.054688 35.980469l103.886718 103.886719s-12.546875 12.582031-26.15625-.605469c-15.011718-14.554687-35.375-23.046875-58.152344-23.09375-.070312 0-.136718 0-.203124 0-29.800782 0-60.367188 13.476563-83.886719 36.996094-43.050781 43.050781-49.296875 106.851562-13.925781 142.21875 15.125 15.125 36.050781 22.949219 58.652343 22.949219 14.523438-.003907 29.742188-3.234376 44.546875-9.835938 3.785156-1.6875 5.484375-6.121094 3.796875-9.90625-1.683593-3.785156-6.121093-5.484375-9.90625-3.796875-32.125 14.320313-66.070312 10.390625-86.480469-10.019531-14.082031-14.082032-20.523437-34.265625-18.136718-56.828125 2.449218-23.15625 13.835937-45.945313 32.0625-64.171875 20.726562-20.726563 47.421875-32.601563 73.273437-32.601563h.175781c19.03125.039063 35.035157 6.933594 47.53125 18.652344 23.289063 21.839844 47.476563.710937 47.476563.710937l29.46875 29.46875s-77.136719 80.027344-99.746094 98.90625c-3.183593 2.65625-3.679687 7.351563-1.054687 10.554688 1.484375 1.816406 5.71875 4.171875 10.558594 1.054688 11.539062-7.433594 100.851562-99.90625 100.851562-99.90625l90.847656 90.847656c20.644532 20.644531 53.4375 36.949218 83.941406 36.949218 22.839844 0 43.246094-7.996093 58.28125-23.027343 35.371094-35.371094 29.125-99.171875-13.925781-142.21875zm-385.578125-160.214844c-12.351562-25.101563-14.09375-48.921875-4.164062-70.339844 7.972656-17.203125 25.339844-11.71875 31.308594-5.792969l142.058593 142.054688c9.960938 9.964844 15.480469 23.09375 15.542969 36.96875.054688 12.605469 2.183594 29.769531 11.355469 43.882812l-29.667969 29.671876-144.019531-144.019532c-.125-.128906-12.886719-13.066406-22.414063-32.425781zm388.894532 291.824219c-29.523438 29.523437-83.804688 23.277344-121.003907-13.921875l-90.847656-90.847657 29.46875-29.46875s22.453125 23.375 47.476563-.710937c12.34375-11.882813 28.5-18.617187 47.53125-18.65625h.175781c25.851562 0 52.546875 11.878906 73.273437 32.601563 37.199219 37.203124 43.445313 91.484374 13.925782 121.003906zm0 0"/><path d="m143.863281 277.800781c-8.644531-8.640625-21.234375-12.046875-35.449219-9.589843-13.257812 2.289062-26.519531 9.515624-37.34375 20.339843-10.824218 10.824219-18.046874 24.085938-20.339843 37.34375-2.457031 14.214844.925781 26.828125 9.589843 35.445313 25.304688 25.175781 61.964844.078125 72.792969-10.746094 10.824219-10.828125 18.046875-24.089844 20.339844-37.34375 2.457031-14.21875-.949219-26.804688-9.589844-35.449219zm-21.359375 62.183594c-8.65625 8.652344-35.535156 26.898437-51.570312 10.746094-11.023438-11.101563-6.144532-34.679688 10.746094-51.570313 16.890624-16.890625 40.507812-21.8125 51.574218-10.75 11.0625 11.066406 6.140625 34.683594-10.75 51.574219zm0 0"/></svg>