<svg height="512pt" viewBox="-24 0 512 512.001" width="512pt" xmlns="http://www.w3.org/2000/svg"><path d="m313.472656 457.519531h-264.066406c-23.144531 0-41.90625-18.761719-41.90625-41.910156v-347.59375c0-23.144531 18.761719-41.90625 41.90625-41.90625h264.066406c23.144532 0 41.90625 18.761719 41.90625 41.90625v347.59375c0 23.148437-18.761718 41.910156-41.90625 41.910156zm0 0" fill="#ffeb99"/><path d="m313.472656 457.519531c23.144532 0 41.90625-18.761719 41.90625-41.910156v-267.859375h-131.382812c-46.925782 0-86.207032 35.726562-90.460938 82.457031-6.445312 70.804688-24.023437 170.210938-71.59375 227.3125zm0 0" fill="#ffde55"/><path d="m70.78125 420.53125c-14.523438 0-26.292969-11.773438-26.292969-26.292969v-304.847656c0-14.519531 11.769531-26.292969 26.292969-26.292969h221.316406c14.519532 0 26.292969 11.773438 26.292969 26.296875v304.84375c0 14.519531-11.769531 26.292969-26.292969 26.292969zm0 0" fill="#abebf4"/><path d="m86.117188 420.53125h205.980468c14.519532 0 26.292969-11.773438 26.292969-26.292969v-246.488281h-94.394531c-46.925782 0-86.207032 35.726562-90.460938 82.457031-5.210937 57.238281-17.695312 133.164063-47.417968 190.324219zm0 0" fill="#8ed7e8"/><path d="m224.335938 90.644531h-85.792969c-11.152344 0-20.195313-9.042969-20.195313-20.195312v-42.753907c0-11.152343 9.042969-20.195312 20.195313-20.195312h85.792969c11.152343 0 20.195312 9.042969 20.195312 20.195312v42.753907c0 11.152343-9.042969 20.195312-20.195312 20.195312zm0 0" fill="#b2e59c"/><path d="m420.191406 504.5h-187.789062c-20.472656 0-37.0625-16.59375-37.0625-37.0625v-243.921875c0-20.46875 16.589844-37.0625 37.0625-37.0625h187.789062c20.46875 0 37.0625 16.59375 37.0625 37.0625v243.921875c0 20.46875-16.59375 37.0625-37.0625 37.0625zm0 0" fill="#ccf8ff"/><g fill="#c6c5ca"><path d="m396.441406 262.609375h-140.289062c-8.285156 0-15-6.714844-15-15 0-8.28125 6.714844-15 15-15h140.289062c8.28125 0 15 6.71875 15 15 0 8.285156-6.71875 15-15 15zm0 0"/><path d="m396.441406 327.855469h-140.289062c-8.285156 0-15-6.714844-15-15 0-8.285157 6.714844-15 15-15h140.289062c8.28125 0 15 6.714843 15 15 0 8.285156-6.71875 15-15 15zm0 0"/><path d="m396.441406 393.097656h-140.289062c-8.285156 0-15-6.714844-15-15 0-8.28125 6.714844-15 15-15h140.289062c8.28125 0 15 6.71875 15 15 0 8.285156-6.71875 15-15 15zm0 0"/><path d="m326.296875 458.34375h-70.144531c-8.285156 0-15-6.71875-15-15 0-8.285156 6.714844-15 15-15h70.144531c8.28125 0 15 6.714844 15 15 0 8.28125-6.71875 15-15 15zm0 0"/></g><path d="m224.335938 90.644531c11.152343 0 20.195312-9.042969 20.195312-20.195312v-42.753907c0-11.152343-9.042969-20.195312-20.195312-20.195312h-21.867188c-.421875 18.882812-4.652344 56.9375-29.839844 83.144531zm0 0" fill="#9ad880"/><path d="m420.191406 178.953125h-57.3125v-110.933594c0-27.246093-22.164062-49.410156-49.40625-49.410156h-62.980468c-3.769532-10.820313-14.070313-18.609375-26.15625-18.609375h-85.792969c-15.269531 0-27.695313 12.425781-27.695313 27.695312v27.902344h-40.066406c-18.632812 0-33.792969 15.160156-33.792969 33.792969v304.847656c0 18.632813 15.160157 33.792969 33.792969 33.792969h117.058594v21.988281h-138.433594c-18.972656 0-34.40625-15.433593-34.40625-34.40625v-347.59375c0-18.972656 15.433594-34.410156 34.40625-34.410156h37.871094c4.144531 0 7.5-3.355469 7.5-7.5 0-4.140625-3.355469-7.5-7.5-7.5h-37.871094c-27.242188 0-49.40625 22.164063-49.40625 49.410156v347.59375c0 27.242188 22.164062 49.40625 49.40625 49.40625h138.433594s-2.820313 46.980469 44.558594 46.980469h187.792968c24.570313 0 44.558594-19.988281 44.558594-44.558594v-243.925781c.003906-24.570313-19.988281-44.5625-44.558594-44.5625zm-294.34375-151.257813c0-7 5.695313-12.695312 12.695313-12.695312h85.792969c7 0 12.695312 5.695312 12.695312 12.695312v42.753907c0 7-5.695312 12.695312-12.695312 12.695312h-85.792969c-7 0-12.695313-5.695312-12.695313-12.695312zm-55.066406 385.335938c-10.363281 0-18.792969-8.429688-18.792969-18.796875v-304.84375c0-10.363281 8.429688-18.792969 18.792969-18.792969h40.070312c.082032 15.203125 12.472657 27.546875 27.691407 27.546875h85.792969c15.21875 0 27.609374-12.34375 27.691406-27.546875h40.070312c10.363282 0 18.792969 8.433594 18.792969 18.796875v64.5c0 4.140625 3.359375 7.5 7.5 7.5 4.144531 0 7.5-3.359375 7.5-7.5v-64.5c0-18.636719-15.160156-33.796875-33.792969-33.796875h-40.066406v-21.988281h61.441406c18.972656 0 34.40625 15.4375 34.40625 34.40625v110.9375h-115.476562c-24.574219 0-44.5625 19.988281-44.5625 44.5625v189.515625zm378.972656 54.40625c0 16.300781-13.261718 29.5625-29.5625 29.5625h-187.789062c-16.300782 0-29.5625-13.261719-29.5625-29.5625v-243.921875c0-16.300781 13.261718-29.5625 29.5625-29.5625h187.789062c16.300782 0 29.5625 13.261719 29.5625 29.5625zm0 0"/><path d="m396.441406 225.109375h-140.289062c-12.40625 0-22.5 10.09375-22.5 22.5 0 12.410156 10.09375 22.5 22.5 22.5h140.289062c12.402344 0 22.5-10.089844 22.5-22.5 0-12.40625-10.097656-22.5-22.5-22.5zm0 30h-140.289062c-4.136719 0-7.5-3.363281-7.5-7.5 0-4.132813 3.363281-7.5 7.5-7.5h140.289062c4.132813 0 7.5 3.367187 7.5 7.5 0 4.136719-3.367187 7.5-7.5 7.5zm0 0"/><path d="m396.441406 290.355469h-140.289062c-12.40625 0-22.5 10.09375-22.5 22.5s10.09375 22.5 22.5 22.5h96.625c4.144531 0 7.5-3.359375 7.5-7.5s-3.355469-7.5-7.5-7.5h-96.625c-4.136719 0-7.5-3.363281-7.5-7.5s3.363281-7.5 7.5-7.5h140.289062c4.132813 0 7.5 3.363281 7.5 7.5s-3.367187 7.5-7.5 7.5h-12.605468c-4.140626 0-7.5 3.359375-7.5 7.5s3.359374 7.5 7.5 7.5h12.601562c12.40625 0 22.5-10.09375 22.5-22.5.003906-12.40625-10.09375-22.5-22.496094-22.5zm0 0"/><path d="m396.441406 355.597656h-140.289062c-12.40625 0-22.5 10.09375-22.5 22.5 0 12.410156 10.09375 22.5 22.5 22.5h140.289062c12.402344 0 22.5-10.089844 22.5-22.5 0-12.40625-10.097656-22.5-22.5-22.5zm0 30h-140.289062c-4.136719 0-7.5-3.363281-7.5-7.5 0-4.132812 3.363281-7.5 7.5-7.5h140.289062c4.132813 0 7.5 3.367188 7.5 7.5 0 4.136719-3.367187 7.5-7.5 7.5zm0 0"/><path d="m326.296875 420.84375h-70.144531c-12.40625 0-22.5 10.089844-22.5 22.5 0 12.40625 10.09375 22.5 22.5 22.5h70.144531c12.40625 0 22.5-10.09375 22.5-22.5 0-12.410156-10.09375-22.5-22.5-22.5zm0 30h-70.144531c-4.136719 0-7.5-3.367188-7.5-7.5 0-4.136719 3.363281-7.5 7.5-7.5h70.144531c4.132813 0 7.5 3.363281 7.5 7.5 0 4.132812-3.367187 7.5-7.5 7.5zm0 0"/></svg>