<svg height="511pt" viewBox="-24 1 511 511.999" width="511pt" xmlns="http://www.w3.org/2000/svg"><path d="m356.964844 443.503906-317.070313-187.589844 319.207031-187.460937 26.585938 45.269531-242.410156 142.359375 240.417968 142.242188zm0 0" fill="#ccf8ff"/><path d="m455.984375 91.085938c0 46.164062-37.425781 83.589843-83.589844 83.589843-46.164062 0-83.585937-37.425781-83.585937-83.589843 0-46.164063 37.421875-83.585938 83.585937-83.585938 46.164063 0 83.589844 37.421875 83.589844 83.585938zm0 0" fill="#ff929f"/><path d="m356.554688 75.523438c0-27.023438 12.835937-51.035157 32.730468-66.316407-5.457031-1.117187-11.105468-1.707031-16.890625-1.707031-46.164062 0-83.585937 37.421875-83.585937 83.585938 0 46.164062 37.425781 83.589843 83.585937 83.589843 19.140625 0 36.792969-6.445312 50.882813-17.269531-38.066406-7.8125-66.722656-41.503906-66.722656-81.882812zm0 0" fill="#ff737d"/><path d="m453.917969 420.914062c0 46.164063-37.421875 83.585938-83.585938 83.585938-46.164062 0-83.589843-37.421875-83.589843-83.585938 0-46.164062 37.425781-83.585937 83.589843-83.585937 46.164063 0 83.585938 37.421875 83.585938 83.585937zm0 0" fill="#ff929f"/><path d="m354.492188 405.351562c0-27.023437 12.835937-51.035156 32.726562-66.316406-5.453125-1.121094-11.101562-1.707031-16.886719-1.707031-46.164062 0-83.585937 37.421875-83.585937 83.585937 0 46.164063 37.421875 83.585938 83.585937 83.585938 19.140625 0 36.789063-6.441406 50.882813-17.265625-38.066406-7.8125-66.722656-41.507813-66.722656-81.882813zm0 0" fill="#ff737d"/><path d="m175.171875 256c0 46.164062-37.421875 83.585938-83.585937 83.585938-46.164063 0-83.585938-37.421876-83.585938-83.585938s37.421875-83.585938 83.585938-83.585938c46.164062 0 83.585937 37.421876 83.585937 83.585938zm0 0" fill="#ff929f"/><path d="m75.746094 240.4375c0-27.023438 12.835937-51.035156 32.726562-66.316406-5.453125-1.117188-11.101562-1.707032-16.886718-1.707032-46.164063 0-83.585938 37.421876-83.585938 83.585938s37.421875 83.585938 83.585938 83.585938c19.140624 0 36.792968-6.441407 50.882812-17.265626-38.066406-7.808593-66.722656-41.507812-66.722656-81.882812zm0 0" fill="#ff737d"/><path d="m454.074219 110.441406c4.085937.585938 7.898437-2.261718 8.484375-6.363281.613281-4.269531.921875-8.644531.921875-12.992187 0-50.226563-40.859375-91.085938-91.085938-91.085938-50.226562 0-91.085937 40.859375-91.085937 91.085938 0 4.671874.355468 9.261718 1.035156 13.746093l-134.933594 79.246094c-15.429687-12.003906-34.804687-19.164063-55.824218-19.164063-50.226563 0-91.085938 40.859376-91.085938 91.085938s40.859375 91.085938 91.085938 91.085938c39.996093 0 74.054687-25.914063 86.265624-61.832032l125.351563 74.160156c-8.449219 9.214844-15.03125 20.160157-19.136719 32.242188l-105.074218-62.160156c-3.566407-2.109375-8.164063-.929688-10.273438 2.636718-2.109375 3.5625-.929688 8.164063 2.636719 10.273438l108.972656 64.46875c-.710937 4.578125-1.082031 9.265625-1.082031 14.039062 0 50.222657 40.863281 91.085938 91.085937 91.085938 50.226563 0 91.085938-40.863281 91.085938-91.085938 0-50.226562-40.859375-91.089843-91.085938-91.089843-20.914062 0-40.199219 7.089843-55.589843 18.984375l-133.152344-78.773438c.710937-4.574218 2.859375-15.230468.046875-27.78125l134.933593-79.246094c15.429688 12.003907 34.804688 19.164063 55.824219 19.164063 31.671875 0 60.59375-16.066406 77.359375-42.980469 2.191406-3.515625 1.117188-8.140625-2.398437-10.332031-3.511719-2.1875-8.140625-1.113281-10.328125 2.402344-14.015625 22.484375-38.175782 35.914062-64.632813 35.914062-41.953125 0-76.085937-34.132812-76.085937-76.085937 0-41.957032 34.132812-76.089844 76.085937-76.089844s76.085938 34.132812 76.085938 76.085938c0 3.640624-.257813 7.296874-.769531 10.867187-.585938 4.101563 2.261718 7.902344 6.363281 8.488281zm-7.65625 310.472656c0 41.953126-34.132813 76.085938-76.085938 76.085938-41.957031 0-76.085937-34.132812-76.085937-76.085938 0-41.953124 34.128906-76.085937 76.085937-76.085937 41.953125 0 76.085938 34.132813 76.085938 76.085937zm-354.832031-88.828124c-41.953126 0-76.085938-34.132813-76.085938-76.085938s34.132812-76.085938 76.085938-76.085938c41.953124 0 76.085937 34.132813 76.085937 76.085938s-34.132813 76.085938-76.085937 76.085938zm213.480468-179.714844-127.121094 74.652344c-4.070312-12.097657-10.613281-23.070313-19.03125-32.308594l127.121094-74.652344c4.070313 12.097656 10.613282 23.070312 19.03125 32.308594zm0 0"/></svg>