<svg height="512pt" viewBox="0 -9 512.0022 512" width="512pt" xmlns="http://www.w3.org/2000/svg"><path d="m421.6875 103.710938c-15.015625-3.640626-28.082031-13.035157-35.554688-26.558594-15.257812-27.597656-51.417968-69.652344-130.132812-69.652344-78.710938 0-114.875 42.054688-130.128906 69.652344-7.476563 13.523437-20.539063 22.917968-35.558594 26.558594-47.777344 11.582031-83.191406 54.804687-82.808594 106.230468.441406 59.796875 50.011719 107.628906 109.8125 107.628906h277.367188c59.800781 0 109.371094-47.832031 109.8125-107.628906.382812-51.429687-35.03125-94.648437-82.808594-106.230468zm0 0" fill="#ccf8ff"/><path d="m167.84375 178.339844c68.347656-43.003906 92.621094-126.070313 100.941406-170.457032-4.132812-.25-8.390625-.382812-12.785156-.382812-78.714844 0-114.875 42.054688-130.132812 69.652344-7.472657 13.523437-20.539063 22.917968-35.554688 26.558594-47.777344 11.582031-83.191406 54.804687-82.808594 106.230468.421875 57.375 46.078125 103.730469 102.601563 107.390625-5.261719-41.953125-.472657-102.367187 57.738281-138.992187zm0 0" fill="#abebf4"/><path d="m336.359375 337.371094c-10.570313 10.714844-27.828125 10.832031-38.542969.257812l-14.558594-14.363281v56.039063c0 15.054687-12.203124 27.257812-27.257812 27.257812s-27.257812-12.203125-27.257812-27.257812v-56.039063l-14.558594 14.363281c-10.714844 10.574219-27.972656 10.457032-38.542969-.257812-10.574219-10.714844-10.460937-27.972656.257813-38.546875l60.957031-60.144531c5.308593-5.238282 12.222656-7.855469 19.144531-7.855469 6.917969 0 13.835938 2.621093 19.144531 7.855469l60.957031 60.144531c10.714844 10.574219 10.832032 27.832031.257813 38.546875zm0 0" fill="#ffa5b5"/><path d="m283.257812 323.265625v55.472656c0 14.851563-11.644531 27.40625-26.492187 27.8125-15.402344.421875-28.023437-11.9375-28.023437-27.246093v-56.039063l17.5625-15.992187c5.496093-5.003907 13.898437-5.003907 19.390624 0zm0 0" fill="#ff8896"/><path d="m283.257812 460.054688c0 15.050781-12.203124 27.253906-27.257812 27.253906s-27.257812-12.203125-27.257812-27.253906c0-15.054688 12.203124-27.257813 27.257812-27.257813s27.257812 12.203125 27.257812 27.257813zm0 0" fill="#ff8896"/><path d="m256 194.535156c-15.519531 0-28.101562-12.582031-28.101562-28.101562v-20.429688c0-4.238281 3.4375-7.671875 7.671874-7.671875h40.859376c4.238281 0 7.671874 3.433594 7.671874 7.671875v20.429688c0 15.519531-12.582031 28.101562-28.101562 28.101562zm0 0" fill="#57565c"/><path d="m191.976562 166.433594c0-13.183594-13.417968-23.871094-29.972656-23.871094-16.550781 0-29.972656 10.6875-29.972656 23.871094s13.421875 23.867187 29.972656 23.867187c16.554688 0 29.972656-10.683593 29.972656-23.867187zm0 0" fill="#ffa6bb"/><path d="m379.96875 166.433594c0-13.183594-13.417969-23.871094-29.972656-23.871094-16.554688 0-29.972656 10.6875-29.972656 23.871094s13.417968 23.867187 29.972656 23.867187c16.554687 0 29.972656-10.683593 29.972656-23.867187zm0 0" fill="#ffa6bb"/><path d="m344.15625 145.832031v-12.453125c0-4.140625-3.355469-7.5-7.5-7.5-4.140625 0-7.5 3.359375-7.5 7.5v12.453125c0 4.140625 3.359375 7.5 7.5 7.5 4.144531 0 7.5-3.359375 7.5-7.5zm0 0"/><path d="m182.84375 145.832031v-12.453125c0-4.140625-3.355469-7.5-7.5-7.5s-7.5 3.359375-7.5 7.5v12.453125c0 4.140625 3.355469 7.5 7.5 7.5 4.140625 0 7.5-3.359375 7.5-7.5zm0 0"/><path d="m487.03125 137.230469c-16.027344-20.261719-38.605469-34.753907-63.578125-40.808594-13.285156-3.21875-24.496094-11.566406-30.761719-22.898437-15.175781-27.457032-53.117187-73.523438-136.691406-73.523438s-121.515625 46.066406-136.695312 73.523438c-6.261719 11.332031-17.472657 19.679687-30.757813 22.898437-24.972656 6.054687-47.550781 20.546875-63.578125 40.808594-16.292969 20.59375-25.160156 46.4375-24.96484375 72.765625.46874975 63.453125 53.09765575 115.074218 117.31249975 115.074218h17.734375c4.144531 0 7.5-3.355468 7.5-7.5 0-4.140624-3.355469-7.5-7.5-7.5h-17.734375c-56.007812 0-101.902344-44.941406-102.3125-100.1875-.171875-23.253906 7.339844-45.160156 21.726563-63.347656 13.960937-17.648437 33.617187-30.269531 55.351562-35.535156 17.355469-4.207031 32.0625-15.222656 40.351563-30.21875 6.605468-11.941406 18.707031-29.019531 38.890625-42.578125 22.914062-15.394531 51.40625-23.203125 84.675781-23.203125s61.761719 7.808594 84.679688 23.203125c20.179687 13.558594 32.285156 30.636719 38.886718 42.578125 8.289063 14.996094 23 26.011719 40.355469 30.21875 21.730469 5.269531 41.386719 17.890625 55.347656 35.539062 14.386719 18.183594 21.902344 40.089844 21.730469 63.347657-.410156 55.242187-46.308594 100.1875-102.3125 100.1875h-18.355469c-4.140625 0-7.5 3.355469-7.5 7.5 0 4.140625 3.359375 7.5 7.5 7.5h18.355469c64.214844 0 116.839844-51.625 117.3125-115.078125.191406-26.328125-8.675781-52.171875-24.96875-72.765625zm0 0"/><path d="m280.410156 233.339844c-6.546875-6.457032-15.214844-10.015625-24.410156-10.015625s-17.863281 3.558593-24.410156 10.015625l-60.960938 60.148437c-6.605468 6.519531-10.28125 15.222657-10.34375 24.507813s3.246094 18.289062 10.015625 24.644531c25.199219 23.652344 50.941407-1.4375 50.941407-1.4375v38.105469c0 19.164062 15.59375 34.753906 34.757812 34.753906s34.757812-15.589844 34.757812-34.753906v-38.105469s26.3125 25.089844 50.941407 1.4375c6.695312-6.429687 10.078125-15.363281 10.015625-24.648437-.0625-9.28125-3.734375-17.984376-10.34375-24.507813zm-24.410156 165.722656c-10.894531 0-19.757812-8.863281-19.757812-19.757812v-52.726563l15.109374-13.761719c2.652344-2.410156 6.644532-2.410156 9.292969 0l15.113281 13.761719v52.726563c0 10.894531-8.863281 19.757812-19.757812 19.757812zm75.023438-66.960938s0 .003907 0 0c-3.707032 3.757813-15.035157 12.953126-27.941407.191407l-32.335937-30.566407c-8.40625-7.65625-21.085938-7.65625-29.492188 0l-32.335937 30.566407c-7.753907 7.648437-20.289063 7.566406-27.9375-.1875-3.707031-3.757813-11.050781-14.773438.183593-27.941407l60.960938-60.144531c3.71875-3.671875 8.648438-5.695312 13.875-5.695312s10.152344 2.023437 13.875 5.695312l60.960938 60.144531c12.890624 11.632813 3.894531 24.183594.1875 27.9375zm0 0"/><path d="m256 425.296875c-4.6875 0-9.242188.921875-13.53125 2.734375-3.8125 1.613281-5.601562 6.015625-3.984375 9.828125 1.613281 3.816406 6.015625 5.601563 9.828125 3.988281 2.429688-1.03125 5.019531-1.550781 7.6875-1.550781 10.894531 0 19.757812 8.863281 19.757812 19.757813 0 10.894531-8.863281 19.757812-19.757812 19.757812s-19.757812-8.863281-19.757812-19.757812c0-4.144532-3.355469-7.5-7.5-7.5-4.140626 0-7.5 3.355468-7.5 7.5 0 19.164062 15.59375 34.753906 34.757812 34.753906s34.757812-15.589844 34.757812-34.753906c0-19.167969-15.59375-34.757813-34.757812-34.757813zm0 0"/><path d="m291.601562 166.433594v-20.429688c0-8.367187-6.804687-15.171875-15.171874-15.171875h-40.859376c-8.363281 0-15.171874 6.804688-15.171874 15.171875v20.429688c0 19.628906 15.972656 35.597656 35.601562 35.597656s35.601562-15.96875 35.601562-35.597656zm-56.203124 0v-20.429688c0-.097656 41.203124-.097656 41.203124 0v20.429688c0 11.359375-9.242187 20.597656-20.601562 20.597656s-20.601562-9.238281-20.601562-20.597656zm0 0"/></svg>