<svg height="512pt" viewBox="-71 0 512 512.001" width="512pt" xmlns="http://www.w3.org/2000/svg"><path d="m29.277344 80.484375h254.65625c15.152344 0 27.4375 12.28125 27.4375 27.433594v191.339843h-282.09375zm0 0" fill="#e25252"/><path d="m132.414062 143.988281c12.039063-22.519531 16.363282-45.398437 17.535157-63.503906h-120.671875v218.773437h91.480468c-10.792968-48.933593-7.582031-119.273437 11.65625-155.269531zm0 0" fill="#d34646"/><path d="m268.597656 157.894531h-57.105468c-21.496094 0-39.082032 17.585938-39.082032 39.082031 0 21.496094 17.585938 39.082032 39.082032 39.082032h99.878906v-113.488282c0 31.585938-32.425782 35.03125-42.773438 35.324219zm0 0" fill="#f46262"/><path d="m39.269531 504.5c11.976563 0 21.777344-9.800781 21.777344-21.777344v-424.675781c0-11.976563-9.800781-21.777344-21.777344-21.777344-11.976562 0-21.777343 9.800781-21.777343 21.777344v424.675781c0 11.976563 9.800781 21.777344 21.777343 21.777344zm0 0" fill="#d8d7da"/><path d="m39.269531 36.269531c-11.976562 0-21.777343 9.800781-21.777343 21.777344v55.183594c18.324218-2.515625 32.5625-8.371094 43.554687-15.511719v-39.671875c0-11.976563-9.800781-21.777344-21.777344-21.777344zm0 0" fill="#c6c5ca"/><path d="m319.570312 294.089844 37.980469-59.144532c10.542969-16.414062-1.242187-37.988281-20.75-37.988281h-94.164062c-50.375-.878906-31.144531-39.0625-31.144531-39.0625-21.488282 0-39.070313 17.597657-39.082032 39.082031v143.632813c0 27.953125 22.664063 50.617187 50.621094 50.617187h113.769531c19.507813 0 31.292969-21.578124 20.753907-37.992187zm0 0" fill="#ff737d"/><path d="m71.039062 39.269531c0 17.546875-14.222656 31.769531-31.769531 31.769531s-31.769531-14.222656-31.769531-31.769531c0-17.542969 14.222656-31.765625 31.769531-31.765625s31.769531 14.222656 31.769531 31.765625zm0 0" fill="#eaeaea"/><path d="m328.484375 294.089844 35.378906-55.089844c6.457031-10.054688 6.890625-22.3125 1.164063-32.800781-5.730469-10.484375-16.28125-16.742188-28.230469-16.742188h-17.925781v-81.539062c0-19.265625-15.671875-34.933594-34.9375-34.933594h-192.484375c-4.140625 0-7.5 3.355469-7.5 7.5 0 4.140625 3.359375 7.5 7.5 7.5h192.488281c10.992188 0 19.933594 8.941406 19.933594 19.933594v14.652343c0 10.632813-4.398438 18.066407-13.445313 22.730469-8.207031 4.230469-18 4.976563-21.9375 5.09375h-56.996093c-25.671876 0-46.566407 20.894531-46.582032 46.582031v94.78125h-96.363281v-226.355468c6.210937-6.945313 9.992187-16.105469 9.992187-26.132813 0-21.652343-17.617187-39.269531-39.269531-39.269531-21.652343 0-39.269531 17.617188-39.269531 39.269531 0 10.03125 3.785156 19.1875 9.992188 26.132813v318.894531c0 4.140625 3.355468 7.5 7.5 7.5 4.140624 0 7.5-3.359375 7.5-7.5v-308.457031c4.429687 1.734375 15.460937 4.871094 28.554687 0v406.882812c0 7.875-6.402344 14.277344-14.277344 14.277344-7.871093 0-14.277343-6.402344-14.277343-14.277344v-66.546875c0-4.144531-3.359376-7.5-7.5-7.5-4.140626 0-7.5 3.355469-7.5 7.5v66.546875c0 16.144532 13.132812 29.277344 29.277343 29.277344s29.277344-13.132812 29.277344-29.277344v-175.964844h96.363281v33.851563c0 32.046875 26.074219 58.117187 58.121094 58.117187h113.769531c11.945313 0 22.496094-6.257812 28.226563-16.746093 5.726562-10.484375 5.292968-22.746094-1.164063-32.796875zm-313.484375-254.820313c0-13.378906 10.886719-24.269531 24.269531-24.269531 13.382813 0 24.269531 10.890625 24.269531 24.269531 0 13.382813-10.886718 24.269531-24.269531 24.269531-13.382812 0-24.269531-10.886718-24.269531-24.269531zm253.808594 126.125c12.515625-.359375 25.464844-3.648437 35.0625-10.949219v35.011719h-61.167969c-9.277344-.167969-21.199219-1.84375-25.476563-8.847656-2.777343-4.550781-1.894531-10.828125-.59375-15.214844zm83.054687 209.394531c-3.058593 5.597657-8.6875 8.9375-15.066406 8.9375h-113.769531c-23.773438 0-43.117188-19.34375-43.117188-43.117187v-143.628906c.007813-13.699219 8.773438-25.390625 20.988282-29.753907-6.570313 39.007813 41.695312 37.230469 41.738281 37.230469h94.160156c6.375 0 12.007813 3.339844 15.066406 8.933594 3.054688 5.597656 2.824219 12.140625-.621093 17.503906l-37.984376 59.144531c-1.585937 2.46875-1.585937 5.636719 0 8.105469l37.984376 59.144531c3.445312 5.363282 3.675781 11.90625.621093 17.5zm0 0"/></svg>