<svg height="512pt" viewBox="0 -41 512 512" width="512pt" xmlns="http://www.w3.org/2000/svg"><path d="m376.179688 222.417969h-240.359376c-26.578124 0-48.203124 21.625-48.203124 48.207031v78.78125h30v-78.78125c0-10.039062 8.164062-18.207031 18.203124-18.207031h240.359376c10.039062 0 18.203124 8.167969 18.203124 18.207031v78.78125h30v-78.78125c0-26.582031-21.625-48.207031-48.203124-48.207031zm0 0" fill="#ccf8ff"/><path d="m167.683594 422.699219h-130.132813c-16.597656 0-30.050781-13.453125-30.050781-30.050781v-38.089844c0-16.597656 13.453125-30.050782 30.050781-30.050782h130.132813c16.59375 0 30.046875 13.453126 30.046875 30.050782v38.089844c0 16.597656-13.453125 30.050781-30.046875 30.050781zm0 0" fill="#abebf4"/><path d="m65.769531 392.648438v-38.089844c0-16.597656 13.453125-30.050782 30.046875-30.050782h-58.265625c-16.597656 0-30.050781 13.453126-30.050781 30.050782v38.089844c0 16.597656 13.453125 30.050781 30.050781 30.050781h58.265625c-16.59375 0-30.046875-13.453125-30.046875-30.050781zm0 0" fill="#8ed7e8"/><path d="m474.449219 422.699219h-130.132813c-16.59375 0-30.046875-13.453125-30.046875-30.050781v-38.089844c0-16.597656 13.453125-30.050782 30.046875-30.050782h130.132813c16.597656 0 30.050781 13.453126 30.050781 30.050782v38.089844c0 16.597656-13.453125 30.050781-30.050781 30.050781zm0 0" fill="#abebf4"/><path d="m372.535156 392.648438v-38.089844c0-16.597656 13.453125-30.050782 30.050782-30.050782h-58.269532c-16.59375 0-30.046875 13.453126-30.046875 30.050782v38.089844c0 16.597656 13.453125 30.050781 30.046875 30.050781h58.269532c-16.597657 0-30.050782-13.453125-30.050782-30.050781zm0 0" fill="#8ed7e8"/><path d="m241 91.695312h30v132.660157h-30zm0 0" fill="#ccf8ff"/><path d="m239.800781 288.453125-34.832031-34.832031c-8.949219-8.949219-8.949219-23.457032 0-32.402344l34.832031-34.832031c8.945313-8.949219 23.453125-8.949219 32.402344 0l34.832031 34.832031c8.949219 8.945312 8.949219 23.453125 0 32.402344l-34.832031 34.832031c-8.949219 8.949219-23.457031 8.949219-32.402344 0zm0 0" fill="#b2e59c"/><path d="m256.144531 253.621094c-8.949219-8.949219-8.949219-23.457032 0-32.402344l25.445313-25.445312-9.390625-9.386719c-8.945313-8.949219-23.453125-8.949219-32.402344 0l-34.832031 34.832031c-8.945313 8.945312-8.945313 23.453125 0 32.402344l34.832031 34.832031c8.949219 8.949219 23.457031 8.949219 32.402344 0l9.390625-9.386719zm0 0" fill="#9ad880"/><path d="m347.203125 130.042969h-182.40625c-16.597656 0-30.050781-13.453125-30.050781-30.046875v-62.445313c0-16.597656 13.453125-30.050781 30.050781-30.050781h182.40625c16.597656 0 30.050781 13.453125 30.050781 30.050781v62.441407c0 16.597656-13.453125 30.050781-30.050781 30.050781zm0 0" fill="#ffeb99"/><path d="m200.765625 99.992188v-62.441407c0-16.597656 13.453125-30.050781 30.050781-30.050781h-66.019531c-16.597656 0-30.050781 13.453125-30.050781 30.050781v62.441407c0 16.597656 13.453125 30.050781 30.050781 30.050781h66.019531c-16.597656 0-30.050781-13.453125-30.050781-30.050781zm0 0" fill="#ffde55"/><path d="m474.449219 317.007812h-42.566407v-46.382812c0-30.71875-24.988281-55.707031-55.703124-55.707031h-34.730469c-4.144531 0-7.5 3.359375-7.5 7.5 0 4.144531 3.355469 7.5 7.5 7.5h34.730469c22.441406 0 40.703124 18.261719 40.703124 40.707031v46.382812h-15v-46.382812c0-14.175781-11.53125-25.707031-25.703124-25.707031h-55.886719c2.542969-10.050781-.105469-21.15625-7.953125-29.003907l-33.839844-33.839843v-44.53125h68.703125c20.707031 0 37.550781-16.84375 37.550781-37.550781v-62.441407c0-20.707031-16.84375-37.550781-37.550781-37.550781h-8.230469c-4.144531 0-7.5 3.355469-7.5 7.5 0 4.140625 3.355469 7.5 7.5 7.5h8.230469c12.433594 0 22.550781 10.113281 22.550781 22.550781v62.441407c0 12.4375-10.117187 22.550781-22.550781 22.550781h-182.40625c-12.4375 0-22.550781-10.113281-22.550781-22.550781v-62.441407c0-12.4375 10.117187-22.550781 22.550781-22.550781h141.511719c4.144531 0 7.5-3.359375 7.5-7.5 0-4.144531-3.355469-7.5-7.5-7.5h-141.511719c-20.707031 0-37.550781 16.84375-37.550781 37.550781v62.441407c0 20.707031 16.84375 37.550781 37.550781 37.550781h68.703125v44.535156l-32.84375 32.839844h-64.835938c-30.714843 0-55.703124 24.988281-55.703124 55.707031v46.382812h-42.566407c-20.707031 0-37.550781 16.84375-37.550781 37.546876v38.09375c0 20.703124 16.84375 37.550781 37.550781 37.550781h130.132813c20.703125 0 37.546875-16.847657 37.546875-37.550781v-38.09375c0-20.703126-16.84375-37.546876-37.546875-37.546876h-72.566406v-46.382812c0-22.445312 18.257812-40.707031 40.703124-40.707031h55.863282c-2.722656 7.5-.613282 12.578125 0 15h-55.863282c-14.171874 0-25.703124 11.53125-25.703124 25.707031v21.175781c0 4.140625 3.355468 7.5 7.5 7.5 4.140624 0 7.5-3.359375 7.5-7.5v-21.175781c0-5.902344 4.800781-10.707031 10.703124-10.707031h64.835938l33.839844 33.839843c5.929687 5.929688 13.714844 8.890626 21.503906 8.890626 7.785156 0 15.574219-2.960938 21.503906-8.890626l33.839844-33.839843h64.832031c5.902344 0 10.707031 4.804687 10.707031 10.707031v46.382812h-42.566406c-20.703125 0-37.550781 16.84375-37.550781 37.550782v38.089844c0 20.707031 16.847656 37.550781 37.550781 37.550781h130.132813c20.707031 0 37.550781-16.84375 37.550781-37.550781v-38.089844c0-20.707032-16.84375-37.550782-37.550781-37.550782zm-284.21875 37.546876v38.09375c0 12.433593-10.113281 22.550781-22.546875 22.550781h-130.132813c-12.4375 0-22.550781-10.117188-22.550781-22.550781v-38.09375c0-12.433594 10.117188-22.546876 22.550781-22.546876h130.132813c12.433594 0 22.546875 10.113282 22.546875 22.546876zm73.269531-217.011719v35.582031c-4.917969-1.242188-10.082031-1.242188-15 0v-35.582031zm38.230469 110.773437-34.832031 34.832032c-6.007813 6.007812-15.789063 6.011718-21.796876 0l-34.832031-34.832032c-2.910156-2.910156-4.515625-6.78125-4.515625-10.898437 0-4.117188 1.605469-7.984375 4.515625-10.894531l34.832031-34.835938c6.007813-6.007812 15.789063-6.007812 21.796876 0l34.832031 34.835938c6.007812 6.007812 6.007812 15.785156 0 21.792968zm195.269531 144.332032c0 12.433593-10.117188 22.550781-22.550781 22.550781h-130.132813c-12.433594 0-22.550781-10.117188-22.550781-22.550781v-38.09375c0-12.433594 10.117187-22.546876 22.550781-22.546876h130.132813c12.433593 0 22.550781 10.113282 22.550781 22.546876zm0 0"/></svg>