<svg height="511pt" viewBox="0 0 511 511.99916" width="511pt" xmlns="http://www.w3.org/2000/svg"><path d="m504.988281 171.371094c0-40.492188-40.5-40.492188-40.5-40.492188h-129.367187c-11.65625 0-20.816406-9.972656-19.824219-21.585937 2.128906-24.886719 1.464844-48.613281.65625-66-1.246094-26.820313-29.386719-34.53125-29.710937-34.613281-20.765626-5.242188-41.699219 7.640624-46.570313 28.492187-14.550781 62.269531-39.605469 93.707031-39.605469 93.707031h-44.304687v323.929688h313.375s35.855469 0 35.855469-40.492188c0-40.375-35.855469-40.765625-35.855469-40.765625 20.105469-2.324219 35.855469-19.515625 35.855469-40.214843 0-20.699219-15.75-37.890626-35.855469-40.214844 0 0 35.855469-2.109375 35.855469-40.769532 0-38.660156-35.855469-40.769531-35.855469-40.769531 20.105469-2.324219 35.851562-19.515625 35.851562-40.210937zm0 0" fill="#ccf8ff"/><path d="m155.761719 209.808594v245h198.726562c-99.878906-54.4375-162.78125-161.570313-198.726562-245zm0 0" fill="#bdf3f9"/><path d="m158.820312 504.5h-109.574218c-22.78125 0-41.246094-18.464844-41.246094-41.246094v-279.492187c0-29.207031 23.675781-52.882813 52.882812-52.882813h139.179688v332.375c0 22.78125-18.464844 41.246094-41.242188 41.246094zm0 0" fill="#a2dfed"/><path d="m60.882812 130.878906c-29.207031 0-52.882812 23.675782-52.882812 52.882813v279.496093c0 22.777344 18.464844 41.242188 41.246094 41.242188h50.511718c32.070313-27.660156 33.605469-56.960938 33.605469-56.960938s-32.121093-51.746093-45.453125-169.210937c-8.054687-70.957031 1.890625-119.847656 11.027344-147.449219zm0 0" fill="#8cd0e0"/><path d="m143.011719 421.890625c0-21.519531-17.453125-38.96875-38.980469-38.96875s-38.976562 17.449219-38.976562 38.96875c0 21.523437 17.449218 38.96875 38.976562 38.96875s38.980469-17.445313 38.980469-38.96875zm0 0" fill="#75c0d1"/><path d="m150.507812 421.890625c0-25.621094-20.847656-46.46875-46.476562-46.46875s-46.476562 20.847656-46.476562 46.46875 20.851562 46.46875 46.476562 46.46875 46.476562-20.847656 46.476562-46.46875zm-77.953124 0c0-17.351563 14.121093-31.46875 31.476562-31.46875 17.359375 0 31.480469 14.117187 31.480469 31.46875s-14.121094 31.46875-31.480469 31.46875c-17.355469 0-31.476562-14.117187-31.476562-31.46875zm0 0"/><path d="m512.488281 252.351562c0-22.625-10.636719-34.683593-21.320312-41.085937 12.9375-8.65625 21.320312-23.386719 21.320312-39.894531 0-24.75-13.265625-36.574219-24.398437-42.140625-11.574219-5.785157-23.117188-5.851563-23.601563-5.851563h-129.371093c-12.554688 0-12.644532-9.949218-12.347657-13.445312 2.171875-25.429688 1.503907-49.15625.675781-66.988282-1.515624-32.625-35.03125-41.449218-35.367187-41.535156-11.960937-3.023437-24.351563-1.152344-34.890625 5.269532-10.597656 6.453124-17.992188 16.675781-20.824219 28.789062-10.285156 44.035156-27.007812 75.117188-36.066406 87.910156h-135.414063c-33.296874 0-60.382812 27.085938-60.382812 60.382813v38.996093c0 4.140626 3.355469 7.5 7.5 7.5 4.140625 0 7.5-3.359374 7.5-7.5v-38.996093c0-25.023438 20.359375-45.382813 45.382812-45.382813h131.683594v324.875c0 18.609375-15.140625 33.746094-33.746094 33.746094h-109.574218c-18.609375 0-33.746094-15.136719-33.746094-33.746094v-202.660156c0-4.140625-3.359375-7.496094-7.5-7.496094-4.144531 0-7.5 3.355469-7.5 7.496094v202.660156c0 26.878906 21.867188 48.746094 48.746094 48.746094h109.570312c26.878906 0 48.746094-21.867188 48.746094-48.746094v-329.886718c5.960938-8.265626 26.609375-39.699219 39.410156-94.488282 1.90625-8.160156 9.519532-29.746094 37.363282-22.945312 1.429687.351562 23.15625 6.894531 24.125 27.707031.804687 17.371094 1.460937 40.460937-.636719 65.015625-.652344 7.621094-.332031 29.722656 27.292969 29.722656h129.339843c.085938 0 8.898438.121094 17.332031 4.476563 10.5625 5.453125 15.699219 14.78125 15.699219 28.515625 0 16.753906-12.558593 30.839844-29.214843 32.765625-3.863282.445312-6.746094 3.773437-6.636719 7.660156s3.175781 7.046875 7.058593 7.277344c1.175782.066406 28.792969 2.050781 28.792969 33.28125 0 13.007812-4.660156 22.488281-13.847656 28.183593-7.289063 4.515626-14.910156 5.09375-14.945313 5.097657-3.882812.226562-6.949218 3.386719-7.058593 7.273437-.109375 3.890625 2.769531 7.214844 6.636719 7.664063 16.65625 1.925781 29.214843 16.007812 29.214843 32.761719 0 16.753906-12.558593 30.839843-29.214843 32.765624-3.933594.453126-6.835938 3.886719-6.628907 7.839844s3.449219 7.066406 7.40625 7.109375c1.160157.015625 28.4375.6875 28.4375 33.269531 0 31.730469-25.492187 32.957032-28.355469 32.992188h-232.265624c-4.140626 0-7.5 3.355469-7.5 7.5s3.359374 7.5 7.5 7.5h232.265624c1.121094 0 11.234376-.167969 21.617188-6.03125 9.914062-5.601562 21.738281-17.425781 21.738281-41.960938 0-23.121093-10.261719-35.171874-20.789062-41.449218 12.636719-8.699219 20.789062-23.25 20.789062-39.53125 0-16.511719-8.382812-31.242188-21.320312-39.898438 10.683593-6.40625 21.320312-18.464844 21.320312-41.089844zm0 0"/></svg>