<svg height="512pt" viewBox="-90 0 512 512" width="512pt" xmlns="http://www.w3.org/2000/svg"><path d="m99.683594 424.304688v14.242187c0 36.273437 29.679687 65.953125 65.953125 65.953125 36.273437 0 65.949219-29.679688 65.949219-65.953125v-14.242187zm0 0" fill="#c6c5ca"/><path d="m99.683594 438.546875c0 23.703125 12.671875 44.589844 31.574218 56.21875 33.855469-26.789063 71.644532-29.289063 93.839844-27.773437 4.15625-8.625 6.488282-18.273438 6.488282-28.445313v-14.242187h-131.902344zm0 0" fill="#acabb1"/><path d="m323.769531 165.636719c0-86.667969-69.71875-157.050781-156.132812-158.125-87.097657-1.078125-159.199219 69.300781-160.128907 156.398437-.542968 51.148438 23.195313 96.769532 60.398438 126.050782 18.503906 14.5625 29.597656 36.574218 29.597656 60.121093v25.875h136.261719v-25.882812c0-23.273438 10.628906-45.332031 28.988281-59.636719 37.132813-28.933594 61.015625-74.078125 61.015625-124.800781zm0 0" fill="#ffeb99"/><path d="m167.636719 7.511719c-87.097657-1.078125-159.199219 69.300781-160.128907 156.398437-.542968 51.148438 23.195313 96.769532 60.398438 126.050782 18.503906 14.5625 29.597656 36.574218 29.597656 60.121093v25.875h86.816406c-12.132812-151.324219-57.609374-149.507812-70.667968-245.085937-8.75-64.050782 53.984375-123.359375 53.984375-123.359375zm0 0" fill="#ffde55"/><path d="m237.496094 447.929688h-143.71875c-15.859375 0-28.832032-12.972657-28.832032-28.832032 0-15.855468 12.972657-28.828125 28.832032-28.828125h143.71875c15.855468 0 28.832031 12.972657 28.832031 28.828125 0 15.859375-12.976563 28.832032-28.832031 28.832032zm0 0" fill="#d8d7da"/><path d="m93.777344 390.269531c-15.859375 0-28.832032 12.972657-28.832032 28.832031 0 15.855469 12.972657 28.828126 28.832032 28.828126h71.125c-3.332032-15.488282 5.714844-32.273438 22.4375-37.128907 18.570312-5.394531 33.617187-13.457031 33.617187-13.457031v-7.074219zm0 0" fill="#c6c5ca"/><path d="m237.496094 397.34375h-143.71875c-15.859375 0-28.832032-12.976562-28.832032-28.832031 0-15.859375 12.972657-28.832031 28.832032-28.832031h143.71875c15.855468 0 28.832031 12.972656 28.832031 28.832031 0 15.855469-12.976563 28.832031-28.832031 28.832031zm0 0" fill="#eaeaea"/><path d="m117.75 368.511719c0-15.855469 12.976562-28.832031 28.832031-28.832031h-52.804687c-15.859375 0-28.832032 12.976562-28.832032 28.832031s12.972657 28.832031 28.832032 28.832031h52.804687c-15.855469 0-28.832031-12.976562-28.832031-28.832031zm0 0" fill="#d8d7da"/><path d="m238.792969 122.445312v12.449219c0 4.140625 3.359375 7.5 7.5 7.5 4.144531 0 7.5-3.359375 7.5-7.5v-12.449219c0-4.144531-3.355469-7.5-7.5-7.5s-7.5 3.355469-7.5 7.5zm0 0"/><path d="m77.480469 122.445312v12.449219c0 4.140625 3.355469 7.5 7.5 7.5 4.140625 0 7.5-3.359375 7.5-7.5v-12.449219c0-4.144531-3.359375-7.5-7.5-7.5-4.144531 0-7.5 3.355469-7.5 7.5zm0 0"/><path d="m183.957031 128.972656c-10.789062 8.367188-25.855469 8.367188-36.640625 0-3.273437-2.539062-7.988281-1.945312-10.523437 1.328125-2.539063 3.273438-1.945313 7.984375 1.328125 10.523438 8.101562 6.28125 17.808594 9.421875 27.515625 9.421875s19.414062-3.140625 27.511719-9.421875c3.273437-2.539063 3.871093-7.25 1.332031-10.523438-2.539063-3.273437-7.253907-3.867187-10.523438-1.328125zm0 0"/><path d="m267.363281 296.355469c40.613281-31.648438 63.910157-79.292969 63.910157-130.71875 0-44.847657-17.632813-86.839844-49.648438-118.246094-2.957031-2.902344-7.707031-2.855469-10.605469.101563-2.902343 2.957031-2.855469 7.703124.101563 10.605468 29.117187 28.5625 45.152344 66.753906 45.152344 107.539063 0 46.769531-21.1875 90.101562-58.128907 118.886719-15.351562 11.960937-25.804687 28.707031-29.925781 47.65625h-38.261719c4.171875-36.644532 13.382813-62.859376 21.257813-79.558594 1.046875-2.21875 2.089844-4.316406 3.125-6.304688l9.585937 6.152344c3.484375 2.234375 8.125 1.222656 10.359375-2.265625 2.238282-3.484375 1.226563-8.125-2.261718-10.359375l-10.140626-6.507812c6.1875-9.511719 10.792969-14.03125 10.949219-14.179688 2.992188-2.847656 3.121094-7.578125.285157-10.585938-2.84375-3.011718-7.59375-3.144531-10.601563-.304687-.648437.613281-6.164063 5.964844-13.304687 16.941406 0 0-10.464844-9.527343-23.621094-.769531l-16.84375 10.808594c-1.894532 1.214844-4.339844 1.214844-6.230469 0l-16.839844-10.804688c-13.90625-9.253906-23.617187.761719-23.617187.761719-7.140625-10.972656-12.65625-16.324219-13.304688-16.9375-3.003906-2.835937-7.722656-2.695313-10.570312.292969-2.847656 2.992187-2.730469 7.734375.25 10.59375.070312.066406 4.707031 4.578125 10.953125 14.183594l-10.140625 6.507812c-3.488282 2.234375-4.5 6.875-2.261719 10.363281 1.429687 2.230469 5.21875 5.183594 10.363281 2.261719l9.582032-6.152344c1.035156 1.988282 2.078124 4.085938 3.125 6.304688 12.324218 26.144531 18.394531 54.625 21.234374 79.5625h-38.273437c-4.191406-18.902344-14.828125-35.800782-30.472656-48.113282-37.066407-29.179687-58.039063-72.945312-57.535157-120.078124.425782-40.09375 16.570313-77.71875 45.453126-105.945313 28.90625-28.246094 66.910156-43.511719 107.082031-43.03125 28.148437.347656 55.511719 8.515625 79.132812 23.621094 3.488281 2.234375 8.128907 1.214843 10.359375-2.277344 2.230469-3.488281 1.210938-8.125-2.277344-10.355469-25.980468-16.621094-56.074218-25.605468-87.027343-25.988281-.699219-.01171875-1.394531-.015625-2.09375-.015625-43.378907 0-84.382813 16.757812-115.65625 47.316406-31.753907 31.03125-49.5 72.40625-49.9726565 116.511719-.5507815 51.828125 22.5078125 99.949219 63.2617185 132.027344 12.136719 9.550781 20.609375 22.421875 24.4375 36.839843-17.152343 2.898438-30.261719 17.851563-30.261719 35.816407 0 9.832031 3.933594 18.761719 10.300782 25.308593-6.503906 6.6875-10.300782 15.695313-10.300782 25.28125 0 20.03125 16.296876 36.328126 36.332032 36.328126h.386718c7.738282 32.722656 37.242188 56.570312 71.472657 56.570312 34.09375 0 63.722656-23.894531 71.480469-56.570312h.378906c20.03125 0 36.328125-16.296876 36.328125-36.328126 0-9.570312-3.796875-18.585937-10.300781-25.277343 6.367187-6.550781 10.300781-15.476563 10.300781-25.3125 0-17.984375-13.132813-32.945313-30.3125-35.824219 3.746093-14.414062 12.023437-27.117188 23.851562-36.332031zm-137.707031-58.203125s3.285156-4.289063 7.921875-1.085938l16.839844 10.800782c6.808593 4.375 15.613281 4.375 22.429687.003906l16.84375-10.808594c3.824219-2.679688 7.925782 1.089844 7.925782 1.089844-10.566407 19.929687-22.09375 50.5625-26.769532 94.027344h-18.421875c-4.675781-43.464844-16.207031-74.097657-26.769531-94.027344zm35.980469 258.847656c-26.023438 0-48.601563-17.320312-55.941407-41.570312h111.878907c-7.359375 24.21875-30.023438 41.570312-55.9375 41.570312zm93.1875-128.488281c0 11.761719-9.566407 21.332031-21.328125 21.332031h-69.332032c-4.140624 0-7.5 3.355469-7.5 7.5 0 4.140625 3.359376 7.5 7.5 7.5h69.332032c4.640625 0 9.078125-.882812 13.160156-2.480469 5.105469 4.023438 8.167969 10.164063 8.167969 16.738281 0 11.761719-9.566407 21.328126-21.328125 21.328126h-143.71875c-11.761719 0-21.332032-9.566407-21.332032-21.328126 0-6.585937 3.0625-12.714843 8.167969-16.738281 4.085938 1.597657 8.519531 2.480469 13.164063 2.480469h42.808594c4.144531 0 7.5-3.359375 7.5-7.5 0-4.144531-3.355469-7.5-7.5-7.5h-42.808594c-11.761719 0-21.332032-9.570312-21.332032-21.332031s9.570313-21.332031 21.332032-21.332031h143.71875c11.761718 0 21.328125 9.570312 21.328125 21.332031zm0 0"/></svg>