<svg height="512pt" viewBox="-16 0 512 512" width="512pt" xmlns="http://www.w3.org/2000/svg"><path d="m156.570312 49.78125h38.945313v84.566406h-38.945313zm0 0" fill="#d8d7da"/><path d="m285.308594 49.78125h38.945312v84.566406h-38.945312zm0 0" fill="#d8d7da"/><path d="m328.84375 62.023438h-176.859375c-15.054687 0-27.261719-12.207032-27.261719-27.261719 0-15.054688 12.207032-27.261719 27.261719-27.261719h176.859375c15.054688 0 27.257812 12.207031 27.257812 27.261719 0 15.054687-12.203124 27.261719-27.257812 27.261719zm0 0" fill="#dd9f80"/><path d="m179.152344 34.761719c0-15.054688 12.207031-27.261719 27.261718-27.261719h-54.429687c-15.054687 0-27.261719 12.207031-27.261719 27.261719 0 15.054687 12.207032 27.261719 27.261719 27.261719h54.429687c-15.054687 0-27.261718-12.207032-27.261718-27.261719zm0 0" fill="#c68d6d"/><path d="m424.472656 504.5h-368.117187c-26.984375 0-48.855469-21.871094-48.855469-48.855469v-304.953125c0-26.980468 21.871094-48.855468 48.855469-48.855468h368.117187c26.980469 0 48.855469 21.875 48.855469 48.855468v304.953125c0 26.984375-21.875 48.855469-48.855469 48.855469zm0 0" fill="#c68d6d"/><path d="m56.355469 101.835938c-26.984375 0-48.855469 21.875-48.855469 48.855468v304.953125c0 26.984375 21.871094 48.855469 48.855469 48.855469h153.902343c-11.9375-17.753906-15.816406-41.203125-16.613281-61.496094-.917969-23.492187 9.21875-46.046875 27.257813-61.117187 41.554687-34.710938 46.078125-78.71875 46.078125-78.71875v-201.332031zm0 0" fill="#b2785b"/><path d="m424.472656 101.835938h-368.117187c-26.984375 0-48.855469 21.875-48.855469 48.855468v152.476563h465.828125v-152.476563c0-26.980468-21.875-48.855468-48.855469-48.855468zm0 0" fill="#dd9f80"/><path d="m179.152344 101.835938h-122.796875c-26.984375 0-48.855469 21.875-48.855469 48.855468v152.476563h122.796875v-152.476563c0-26.980468 21.875-48.855468 48.855469-48.855468zm0 0" fill="#c68d6d"/><path d="m130.296875 434.015625c-18.925781 0-34.269531-15.339844-34.269531-34.269531v-162.976563c0-18.925781 15.34375-34.265625 34.269531-34.265625s34.265625 15.339844 34.265625 34.265625v162.980469c.003906 18.925781-15.339844 34.265625-34.265625 34.265625zm0 0" fill="#eab9a4"/><path d="m164.566406 370.496094h-68.539062c-9.921875 0-17.96875-8.042969-17.96875-17.96875v-68.535156c0-9.925782 8.046875-17.972657 17.96875-17.972657h68.539062c9.925782 0 17.96875 8.046875 17.96875 17.972657v68.535156c0 9.925781-8.042968 17.96875-17.96875 17.96875zm-50.566406-35.9375h32.597656v-32.597656h-32.597656zm0 0" fill="#ffeb99"/><path d="m350.527344 434.015625c-18.925782 0-34.265625-15.339844-34.265625-34.269531v-162.976563c0-18.925781 15.339843-34.265625 34.265625-34.265625 18.925781 0 34.269531 15.339844 34.269531 34.265625v162.980469c0 18.925781-15.34375 34.265625-34.269531 34.265625zm0 0" fill="#eab9a4"/><path d="m384.796875 370.496094h-68.535156c-9.925781 0-17.972657-8.042969-17.972657-17.96875v-68.535156c0-9.925782 8.046876-17.972657 17.972657-17.972657h68.535156c9.925781 0 17.972656 8.046875 17.972656 17.972657v68.535156c0 9.925781-8.046875 17.96875-17.972656 17.96875zm-50.566406-35.9375h32.597656v-32.597656h-32.597656zm0 0" fill="#ffeb99"/><path d="m424.472656 94.335938h-92.71875v-24.945313c17.808594-1.484375 31.847656-16.445313 31.847656-34.628906 0-19.167969-15.59375-34.761719-34.757812-34.761719h-176.859375c-19.167969 0-34.761719 15.59375-34.761719 34.761719 0 18.183593 14.039063 33.144531 31.847656 34.628906v24.945313h-92.714843c-31.074219 0-56.355469 25.28125-56.355469 56.355468v304.953125c0 31.074219 25.28125 56.355469 56.355469 56.355469h78.136719c4.140624 0 7.5-3.355469 7.5-7.5s-3.359376-7.5-7.5-7.5h-78.136719c-22.804688 0-41.355469-18.550781-41.355469-41.355469v-144.976562h55.558594v41.859375c0 11.433594 7.578125 21.132812 17.972656 24.339844v22.878906c0 23.03125 18.734375 41.769531 41.769531 41.769531 23.027344 0 41.765625-18.738281 41.765625-41.769531v-22.875c10.394532-3.210938 17.972656-12.90625 17.972656-24.34375v-41.859375h100.75v41.859375c0 11.4375 7.578126 21.132812 17.972657 24.34375v22.875c0 23.03125 18.734375 41.769531 41.769531 41.769531 23.03125 0 41.769531-18.734375 41.769531-41.769531v-22.875c10.394531-3.210938 17.96875-12.90625 17.96875-24.34375v-42.125h55.558594v145.242187c0 22.804688-18.550781 41.355469-41.355469 41.355469h-258.429687c-4.140625 0-7.5 3.355469-7.5 7.5 0 4.140625 3.359375 7.5 7.5 7.5h258.429687c31.074219 0 56.351563-25.28125 56.351563-56.355469v-304.953125c.003906-31.074218-25.277344-56.355468-56.351563-56.355468zm-131.664062 0v-24.8125h23.945312v24.8125zm-15-24.8125v24.8125h-74.792969v-24.8125zm-145.585938-34.761719c0-10.894531 8.867188-19.761719 19.761719-19.761719h176.855469c10.898437 0 19.761718 8.863281 19.761718 19.761719 0 10.898437-8.863281 19.761719-19.761718 19.761719h-176.855469c-10.894531 0-19.761719-8.867188-19.761719-19.761719zm31.847656 34.761719h23.945313v24.8125h-23.945313zm-33.773437 356.992187c-14.761719 0-26.769531-12.007813-26.769531-26.769531v-21.75h53.539062v21.75c0 14.761718-12.007812 26.769531-26.769531 26.769531zm44.738281-73.988281c0 5.773437-4.695312 10.46875-10.46875 10.46875h-68.539062c-5.769532 0-10.46875-4.695313-10.46875-10.46875v-68.535156c0-5.773438 4.695312-10.472657 10.46875-10.472657h68.539062c5.773438 0 10.46875 4.699219 10.46875 10.472657zm-17.96875-94.007813h-53.539062v-21.75c0-14.757812 12.007812-26.765625 26.769531-26.765625s26.769531 12.007813 26.769531 26.765625zm193.460938 167.996094c-14.757813 0-26.769532-12.007813-26.769532-26.769531v-21.75h53.539063v21.75c0 14.761718-12.007813 26.769531-26.769531 26.769531zm44.742187-73.988281c0 5.773437-4.699219 10.46875-10.472656 10.46875h-68.535156c-5.773438 0-10.472657-4.695313-10.472657-10.46875v-68.535156c0-5.773438 4.695313-10.472657 10.472657-10.472657h68.535156c5.773437 0 10.472656 4.699219 10.472656 10.472657zm15-57.125v-11.410156c0-14.046876-11.425781-25.472657-25.472656-25.472657h-61.039063v-21.75c0-14.757812 12.007813-26.765625 26.769532-26.765625 14.761718 0 26.769531 12.007813 26.769531 26.765625 0 4.144531 3.359375 7.5 7.5 7.5s7.5-3.355469 7.5-7.5c0-23.03125-18.738281-41.765625-41.769531-41.765625s-41.769532 18.734375-41.769532 41.765625v22.878907c-10.394531 3.210937-17.96875 12.90625-17.96875 24.339843v11.679688h-100.753906v-11.679688c0-11.433593-7.574218-21.132812-17.96875-24.339843v-22.878907c0-23.03125-18.738281-41.765625-41.769531-41.765625s-41.769531 18.734375-41.769531 41.765625v22.878907c-10.394532 3.207031-17.96875 12.90625-17.96875 24.339843v11.679688h-55.558594v-144.976563c0-22.804687 18.550781-41.355468 41.355469-41.355468h368.113281c22.804688 0 41.355469 18.550781 41.355469 41.355468v144.710938zm0 0"/><path d="m146.597656 294.460938h-32.597656c-4.140625 0-7.5 3.359374-7.5 7.5v32.597656c0 4.140625 3.359375 7.5 7.5 7.5h32.597656c4.140625 0 7.5-3.359375 7.5-7.5v-32.597656c0-4.140626-3.359375-7.5-7.5-7.5zm-7.5 32.597656h-17.597656v-17.597656h17.597656zm0 0"/><path d="m366.828125 294.460938h-32.597656c-4.140625 0-7.5 3.359374-7.5 7.5v32.597656c0 4.140625 3.359375 7.5 7.5 7.5h32.597656c4.140625 0 7.5-3.359375 7.5-7.5v-32.597656c0-4.140626-3.359375-7.5-7.5-7.5zm-7.5 32.597656h-17.597656v-17.597656h17.597656zm0 0"/></svg>