<svg height="512pt" viewBox="0 -55 512 511" width="512pt" xmlns="http://www.w3.org/2000/svg"><path d="m461.183594 394.085938h-410.367188c-23.921875 0-43.316406-19.394532-43.316406-43.316407v-299.453125c0-23.925781 19.394531-43.316406 43.316406-43.316406h410.367188c23.921875 0 43.316406 19.390625 43.316406 43.316406v299.453125c0 23.921875-19.394531 43.316407-43.316406 43.316407zm0 0" fill="#ccf8ff"/><path d="m119.152344 350.769531v-299.453125c0-23.925781 19.394531-43.316406 43.316406-43.316406h-111.652344c-23.921875 0-43.316406 19.394531-43.316406 43.316406v299.453125c0 23.921875 19.394531 43.316407 43.316406 43.316407h111.652344c-23.921875 0-43.316406-19.394532-43.316406-43.316407zm0 0" fill="#abebf4"/><path d="m461.183594 8h-410.367188c-23.921875 0-43.316406 19.390625-43.316406 43.316406v44.125h497v-44.125c0-23.925781-19.394531-43.316406-43.316406-43.316406zm0 0" fill="#d8d7da"/><path d="m162.46875 8h-111.652344c-23.921875 0-43.316406 19.394531-43.316406 43.316406v44.125h111.652344v-44.125c0-23.921875 19.394531-43.316406 43.316406-43.316406zm0 0" fill="#c6c5ca"/><path d="m173.019531 316.59375c-3.695312 0-7.417969-1.175781-10.570312-3.609375l-70.617188-54.511719c-4.246093-3.28125-6.734375-8.34375-6.734375-13.710937 0-5.367188 2.488282-10.425781 6.734375-13.707031l70.617188-54.515626c7.574219-5.84375 18.449219-4.441406 24.292969 3.128907 5.84375 7.570312 4.445312 18.445312-3.125 24.289062l-52.859376 40.804688 52.859376 40.804687c7.570312 5.84375 8.96875 16.71875 3.125 24.289063-3.410157 4.421875-8.539063 6.738281-13.722657 6.738281zm0 0" fill="#b2e59c"/><path d="m338.980469 316.59375c3.695312 0 7.417969-1.175781 10.570312-3.609375l70.617188-54.511719c4.246093-3.28125 6.734375-8.34375 6.734375-13.710937 0-5.367188-2.488282-10.425781-6.734375-13.707031l-70.617188-54.515626c-7.574219-5.84375-18.449219-4.441406-24.292969 3.128907-5.84375 7.570312-4.445312 18.445312 3.125 24.289062l52.859376 40.804688-52.859376 40.804687c-7.570312 5.84375-8.96875 16.71875-3.125 24.289063 3.410157 4.421875 8.539063 6.738281 13.722657 6.738281zm0 0" fill="#b2e59c"/><path d="m232.378906 340.621094c-9.300781-2.234375-15.027344-11.582032-12.792968-20.882813l37.945312-158.003906c2.234375-9.300781 11.585938-15.03125 20.882812-12.796875 9.300782 2.234375 15.027344 11.585938 12.796876 20.882812l-37.949219 158.007813c-4.855469 16.234375-19.523438 13.121094-20.882813 12.792969zm0 0" fill="#9ad880"/><path d="m81.699219 51.722656c0 8.292969-6.722657 15.019532-15.019531 15.019532-8.296876 0-15.023438-6.726563-15.023438-15.019532 0-8.296875 6.726562-15.023437 15.023438-15.023437 8.296874 0 15.019531 6.726562 15.019531 15.023437zm0 0" fill="#ff929f"/><path d="m141.832031 51.722656c0 8.292969-6.726562 15.019532-15.019531 15.019532-8.296875 0-15.023438-6.726563-15.023438-15.019532 0-8.296875 6.726563-15.023437 15.023438-15.023437 8.292969 0 15.019531 6.726562 15.019531 15.023437zm0 0" fill="#ffeb99"/><path d="m201.964844 51.722656c0 8.292969-6.726563 15.019532-15.023438 15.019532-8.292968 0-15.019531-6.726563-15.019531-15.019532 0-8.296875 6.726563-15.023437 15.019531-15.023437 8.296875 0 15.023438 6.726562 15.023438 15.023437zm0 0" fill="#9ad880"/><path d="m461.183594.5h-34.28125c-4.140625 0-7.5 3.355469-7.5 7.5s3.359375 7.5 7.5 7.5h34.28125c19.75 0 35.816406 16.066406 35.816406 35.816406v36.625h-482v-36.625c0-19.75 16.066406-35.816406 35.816406-35.816406h342.914063c4.140625 0 7.5-3.355469 7.5-7.5s-3.359375-7.5-7.5-7.5h-342.914063c-28.019531 0-50.816406 22.796875-50.816406 50.816406v299.453125c0 28.019531 22.796875 50.816407 50.816406 50.816407h410.367188c28.019531 0 50.816406-22.796876 50.816406-50.816407v-299.453125c0-28.019531-22.796875-50.816406-50.816406-50.816406zm0 386.085938h-410.367188c-19.75 0-35.816406-16.066407-35.816406-35.816407v-247.828125h482v247.828125c0 19.75-16.066406 35.816407-35.816406 35.816407zm0 0"/><path d="m192.679688 175.085938c-8.363282-10.832032-23.976563-12.84375-34.8125-4.480469l-70.621094 54.511719c-6.042969 4.667968-9.648438 12.011718-9.648438 19.648437 0 7.632813 3.605469 14.976563 9.652344 19.644531l70.617188 54.511719c17.25 11.664063 30.078124 1.65625 34.8125-4.476563 8.359374-10.835937 6.351562-26.449218-4.480469-34.8125l-45.167969-34.867187 45.167969-34.867187c10.832031-8.363282 12.839843-23.980469 4.480469-34.8125zm-13.648438 22.9375-52.859375 40.804687c-1.835937 1.417969-2.914063 3.609375-2.914063 5.933594s1.078126 4.519531 2.914063 5.9375l52.859375 40.804687c4.285156 3.308594 5.082031 9.488282 1.773438 13.773438-1.871094 2.425781-7.214844 6.242187-13.769532 1.769531l-70.617187-54.511719c-2.394531-1.847656-3.820313-4.753906-3.820313-7.773437s1.429688-5.925781 3.816406-7.769531l70.621094-54.511719c1.78125-1.378907 3.894532-2.042969 5.988282-2.042969 2.941406 0 5.851562 1.308594 7.785156 3.8125 3.304687 4.285156 2.507812 10.464844-1.777344 13.773438zm0 0"/><path d="m424.75 225.117188-70.617188-54.511719c-10.832031-8.363281-26.449218-6.351563-34.8125 4.480469-8.359374 10.828124-6.351562 26.445312 4.480469 34.808593l45.167969 34.867188-45.167969 34.871093c-10.832031 8.359376-12.839843 23.976563-4.480469 34.808594 4.734376 6.132813 16.625 17.804688 34.8125 4.480469l70.621094-54.515625c6.042969-4.667969 9.648438-12.011719 9.648438-19.644531 0-7.632813-3.605469-14.976563-9.652344-19.644531zm-9.164062 27.417968-70.621094 54.515625c-6.988282 4.898438-11.898438.652344-13.769532-1.773437-3.308593-4.285156-2.511718-10.464844 1.773438-13.769532l52.859375-40.808593c1.839844-1.417969 2.914063-3.609375 2.914063-5.933594s-1.074219-4.519531-2.914063-5.9375l-52.859375-40.804687c-4.285156-3.308594-5.21875-9.59375-1.773438-13.769532 5.328126-6.464844 11.988282-3.148437 13.769532-1.773437l70.617187 54.511719c2.394531 1.847656 3.820313 4.753906 3.820313 7.773437 0 3.015625-1.425782 5.921875-3.816406 7.769531zm0 0"/><path d="m44.160156 51.722656c0 12.417969 10.101563 22.519532 22.519532 22.519532 12.417968 0 22.519531-10.101563 22.519531-22.519532 0-12.417968-10.101563-22.523437-22.519531-22.523437-12.417969 0-22.519532 10.105469-22.519532 22.523437zm30.039063 0c0 4.144532-3.375 7.519532-7.519531 7.519532-4.148438 0-7.523438-3.375-7.523438-7.519532 0-4.148437 3.375-7.523437 7.523438-7.523437 4.144531 0 7.519531 3.375 7.519531 7.523437zm0 0"/><path d="m104.289062 51.722656c0 12.417969 10.105469 22.519532 22.523438 22.519532s22.519531-10.101563 22.519531-22.519532c0-12.417968-10.101562-22.523437-22.519531-22.523437s-22.523438 10.105469-22.523438 22.523437zm30.042969 0c0 4.144532-3.375 7.519532-7.519531 7.519532-4.148438 0-7.523438-3.375-7.523438-7.519532 0-4.148437 3.375-7.523437 7.523438-7.523437 4.144531 0 7.519531 3.375 7.519531 7.523437zm0 0"/><path d="m164.421875 51.722656c0 12.417969 10.101563 22.519532 22.519531 22.519532 12.417969 0 22.523438-10.101563 22.523438-22.519532 0-12.417968-10.105469-22.523437-22.523438-22.523437-12.417968 0-22.519531 10.105469-22.519531 22.523437zm30.042969 0c0 4.144532-3.375 7.519532-7.523438 7.519532-4.144531 0-7.519531-3.375-7.519531-7.519532 0-4.148437 3.375-7.523437 7.519531-7.523437 4.148438 0 7.523438 3.375 7.523438 7.523437zm0 0"/><path d="m280.167969 141.648438c-21.371094-3.972657-28.378907 11.886718-29.929688 18.335937l-21.636719 90.089844c-.964843 4.027343 1.515626 8.074219 5.542969 9.042969 4.027344.964843 8.078125-1.511719 9.042969-5.542969l21.636719-90.089844c1.265625-5.261719 6.578125-8.515625 11.839843-7.25 5.265626 1.261719 8.519532 6.574219 7.253907 11.835937l-37.894531 157.789063c-2.683594 8.664063-9.199219 8.113281-11.890626 7.46875-5.265624-1.261719-8.519531-6.574219-7.253906-11.835937l8.476563-35.304688c.96875-4.027344-1.511719-8.078125-5.539063-9.046875-4.03125-.960937-8.078125 1.515625-9.046875 5.542969l-8.476562 35.304687c-3.195313 13.304688 4.949219 27.089844 18.332031 29.925781 18.070312 3.828126 27.078125-8.757812 29.824219-17.9375.039062-.132812.074219-.265624.105469-.398437l37.949218-158.003906c3.191406-13.304688-4.882812-27.425781-18.335937-29.925781zm0 0"/></svg>