<svg height="511pt" viewBox="1 -55 511.999 511" width="511pt" xmlns="http://www.w3.org/2000/svg"><path d="m461.183594 394.085938h-410.367188c-23.921875 0-43.316406-19.394532-43.316406-43.316407v-299.453125c0-23.925781 19.394531-43.316406 43.316406-43.316406h410.367188c23.921875 0 43.316406 19.390625 43.316406 43.316406v299.449219c0 23.925781-19.394531 43.320313-43.316406 43.320313zm0 0" fill="#898890"/><path d="m119.152344 350.738281v-299.453125c0-23.925781 19.394531-43.316406 43.316406-43.316406h-111.652344c-23.921875 0-43.316406 19.390625-43.316406 43.316406v299.453125c0 23.921875 19.394531 43.3125 43.316406 43.3125h111.652344c-23.921875 0-43.316406-19.390625-43.316406-43.3125zm0 0" fill="#77777f"/><path d="m461.183594 7.96875h-410.367188c-23.921875 0-43.316406 19.390625-43.316406 43.316406v44.125h497v-44.125c0-23.925781-19.394531-43.316406-43.316406-43.316406zm0 0" fill="#d8d7da"/><path d="m162.46875 7.96875h-111.652344c-23.921875 0-43.316406 19.390625-43.316406 43.316406v44.125h111.652344v-44.125c0-23.925781 19.394531-43.316406 43.316406-43.316406zm0 0" fill="#c6c5ca"/><path d="m81.699219 51.691406c0 8.292969-6.722657 15.019532-15.019531 15.019532-8.296876 0-15.023438-6.726563-15.023438-15.019532 0-8.296875 6.726562-15.023437 15.023438-15.023437 8.296874 0 15.019531 6.726562 15.019531 15.023437zm0 0" fill="#ff929f"/><path d="m141.832031 51.691406c0 8.292969-6.726562 15.019532-15.019531 15.019532-8.296875 0-15.023438-6.726563-15.023438-15.019532 0-8.296875 6.726563-15.023437 15.023438-15.023437 8.292969 0 15.019531 6.726562 15.019531 15.023437zm0 0" fill="#ffeb99"/><path d="m201.964844 51.691406c0 8.292969-6.726563 15.019532-15.023438 15.019532-8.292968 0-15.019531-6.726563-15.019531-15.019532 0-8.296875 6.726563-15.023437 15.019531-15.023437 8.296875 0 15.023438 6.726562 15.023438 15.023437zm0 0" fill="#9ad880"/><path d="m206.128906 163.175781v75.730469c0 15.925781 17.589844 25.570312 31.019532 17.011719l59.394531-37.867188c12.4375-7.929687 12.4375-26.089843 0-34.019531l-59.394531-37.863281c-13.429688-8.5625-31.019532 1.082031-31.019532 17.007812zm0 0" fill="#fff"/><path d="m445.398438 340.679688h-378.796876c-9.351562 0-17.003906-7.648438-17.003906-17.003907 0-9.351562 7.652344-17.003906 17.003906-17.003906h378.796876c9.355468 0 17.003906 7.652344 17.003906 17.003906 0 9.355469-7.652344 17.003907-17.003906 17.003907zm0 0" fill="#fff"/><path d="m201.964844 306.671875h-135.363282c-9.355468 0-17.003906 7.652344-17.003906 17.003906 0 9.355469 7.648438 17.003907 17.003906 17.003907h135.363282zm0 0" fill="#ff737d"/><path d="m66.601562 306.671875c-9.355468 0-17.003906 7.652344-17.003906 17.003906 0 9.355469 7.648438 17.003907 17.003906 17.003907h52.550782v-34.007813zm0 0" fill="#f46262"/><path d="m233.613281 323.675781c0 17.480469-14.171875 31.648438-31.648437 31.648438-17.480469 0-31.648438-14.167969-31.648438-31.648438 0-17.476562 14.167969-31.648437 31.648438-31.648437 17.476562 0 31.648437 14.171875 31.648437 31.648437zm0 0" fill="#ffa5b5"/><path d="m461.183594.5h-410.367188c-28.019531 0-50.816406 22.792969-50.816406 50.816406v299.453125c0 28.019531 22.796875 50.8125 50.816406 50.8125h410.367188c28.019531 0 50.816406-22.792969 50.816406-50.8125v-299.453125c0-28.023437-22.796875-50.816406-50.816406-50.816406zm0 386.082031h-410.367188c-19.75 0-35.816406-16.066406-35.816406-35.8125v-247.859375h390.425781c4.144531 0 7.5-3.355468 7.5-7.5 0-4.140625-3.355469-7.5-7.5-7.5h-390.425781v-36.59375c0-19.75 16.066406-35.816406 35.816406-35.816406h410.367188c19.75 0 35.816406 16.066406 35.816406 35.816406v36.59375h-56.730469c-4.140625 0-7.5 3.359375-7.5 7.5 0 4.144532 3.359375 7.5 7.5 7.5h56.730469v247.859375c0 19.746094-16.066406 35.8125-35.816406 35.8125zm0 0"/><path d="m212.996094 263.167969c4.222656 2.316406 15.800781 7.246093 28.183594-.929688l59.394531-37.863281c8.011719-5.105469 12.796875-13.828125 12.796875-23.332031 0-9.503907-4.785156-18.226563-12.796875-23.335938l-59.394531-37.863281c-8.648438-5.515625-19.1875-5.863281-28.183594-.929688-8.996094 4.933594-14.367188 14.003907-14.367188 24.261719v75.730469c0 10.257812 5.371094 19.332031 14.367188 24.261719zm.632812-99.992188c0-4.699219 2.460938-8.851562 6.582032-11.109375 1.933593-1.0625 7.085937-2.886718 12.90625.425782l59.390624 37.863281c3.726563 2.375 5.863282 6.269531 5.863282 10.6875s-2.136719 8.3125-5.859375 10.683593l-59.394531 37.863282c-3.960938 2.527344-8.785157 2.6875-12.90625.425781-4.121094-2.257813-6.582032-6.410156-6.582032-11.109375zm0 0"/><path d="m445.398438 299.171875h-212.9375c-7.179688-8.921875-18.179688-14.644531-30.496094-14.644531s-23.316406 5.722656-30.496094 14.644531h-104.867188c-13.511718 0-24.503906 10.992187-24.503906 24.503906s10.992188 24.503907 24.503906 24.503907h74.796876c4.144531 0 7.5-3.355469 7.5-7.5 0-4.140626-3.355469-7.5-7.5-7.5h-74.796876c-5.242187 0-9.503906-4.261719-9.503906-9.503907 0-5.242187 4.261719-9.503906 9.503906-9.503906h97.386719c-.761719 3.042969-1.171875 6.226563-1.171875 9.503906 0 21.585938 17.5625 39.148438 39.148438 39.148438 12.316406 0 23.316406-5.722657 30.496094-14.644531h212.9375c13.511718 0 24.503906-10.992188 24.503906-24.503907s-10.992188-24.503906-24.503906-24.503906zm-243.433594 48.652344c-13.316406 0-24.148438-10.832031-24.148438-24.148438 0-13.3125 10.832032-24.144531 24.148438-24.144531 13.3125 0 24.144531 10.832031 24.144531 24.144531 0 13.316407-10.832031 24.148438-24.144531 24.148438zm243.433594-14.644531h-205.460938c.761719-3.042969 2.8125-10.597657 0-19.007813h205.460938c5.242187 0 9.503906 4.261719 9.503906 9.503906 0 5.242188-4.261719 9.503907-9.503906 9.503907zm0 0"/><path d="m66.679688 29.167969c-12.417969 0-22.523438 10.105469-22.523438 22.523437 0 12.417969 10.105469 22.519532 22.523438 22.519532 12.417968 0 22.519531-10.101563 22.519531-22.519532 0-12.417968-10.101563-22.523437-22.519531-22.523437zm0 30.042969c-4.148438 0-7.523438-3.375-7.523438-7.523438 0-4.144531 3.375-7.519531 7.523438-7.519531 4.144531 0 7.519531 3.375 7.519531 7.519531 0 4.148438-3.375 7.523438-7.519531 7.523438zm0 0"/><path d="m126.8125 29.167969c-12.417969 0-22.523438 10.105469-22.523438 22.523437 0 12.417969 10.105469 22.519532 22.523438 22.519532s22.519531-10.101563 22.519531-22.519532c0-12.417968-10.101562-22.523437-22.519531-22.523437zm0 30.042969c-4.148438 0-7.523438-3.375-7.523438-7.523438 0-4.144531 3.375-7.519531 7.523438-7.519531 4.144531 0 7.519531 3.375 7.519531 7.519531 0 4.148438-3.375 7.523438-7.519531 7.523438zm0 0"/><path d="m186.941406 29.167969c-12.417968 0-22.519531 10.105469-22.519531 22.523437 0 12.417969 10.101563 22.519532 22.519531 22.519532 12.417969 0 22.523438-10.101563 22.523438-22.519532 0-12.417968-10.105469-22.523437-22.523438-22.523437zm0 30.042969c-4.144531 0-7.519531-3.375-7.519531-7.523438 0-4.144531 3.375-7.519531 7.519531-7.519531 4.148438 0 7.523438 3.375 7.523438 7.519531 0 4.148438-3.375 7.523438-7.523438 7.523438zm0 0"/></svg>