<svg height="511pt" viewBox="-32 0 511 511.99874" width="511pt" xmlns="http://www.w3.org/2000/svg"><path d="m439.292969 235.402344c6.910156 64.941406-16.351563 128.726562-62.488281 174.863281-84.589844 84.589844-222.230469 84.589844-306.820313 0-8.386719-8.390625-8.386719-21.992187 0-30.378906 8.390625-8.390625 21.988281-8.390625 30.378906 0 67.839844 67.839843 178.222657 67.839843 246.0625 0 37-37 55.265625-88.125 50.113281-140.257813-1.167968-11.808594 7.457032-22.324218 19.261719-23.492187 6.667969-.65625 21.683594 2.246093 23.492188 19.265625zm0 0" fill="#abebf4"/><path d="m9.203125 276.597656c-6.910156-64.941406 16.355469-128.726562 62.488281-174.859375 84.589844-84.59375 222.230469-84.59375 306.820313 0 8.390625 8.386719 8.390625 21.988281 0 30.375-8.386719 8.390625-21.988281 8.390625-30.375 0-67.839844-67.839843-178.226563-67.839843-246.066407 0-37 37-55.265624 88.125-50.109374 140.257813 1.164062 11.808594-7.460938 22.324218-19.265626 23.492187-6.664062.65625-21.679687-2.246093-23.492187-19.265625zm0 0" fill="#b2e59c"/><path d="m378.511719 132.117188c8.390625-8.390626 8.390625-21.992188 0-30.378907-36.480469-36.484375-82.84375-57.230469-130.546875-62.246093 6.261718 7.667968 10.808594 16.328124 8.824218 24.039062-1.617187 6.273438-6.648437 12.769531-12.773437 18.726562 38.0625 4.125 75.003906 20.742188 104.117187 49.859376 8.390626 8.386718 21.992188 8.386718 30.378907 0zm0 0" fill="#9ad880"/><path d="m69.984375 379.886719c-8.386719 8.386719-8.386719 21.988281 0 30.375 36.484375 36.484375 82.84375 57.234375 130.550781 62.246093-6.261718-7.667968-10.808594-16.328124-8.824218-24.035156 1.613281-6.277344 6.644531-12.769531 12.769531-18.730468-38.0625-4.121094-75-20.742188-104.117188-49.855469-8.386719-8.390625-21.988281-8.390625-30.378906 0zm0 0" fill="#8ed7e8"/><path d="m249.40625 123.070312c-.238281-11.859374 9.183594-21.671874 21.042969-21.910156l67.457031-1.359375-20.453125-64.296875c-3.597656-11.304687 2.652344-23.382812 13.957031-26.980468 11.304688-3.597657 23.386719 2.652343 26.980469 13.957031l29.171875 91.703125c2.054688 6.457031.941406 13.507812-3.003906 19.019531-3.941406 5.507813-10.257813 8.832031-17.03125 8.972656l-96.210938 1.9375c-16.535156-.328125-21.792968-15.269531-21.910156-21.042969zm0 0" fill="#c8efb9"/><path d="m199.089844 388.929688c.238281 11.859374-9.179688 21.667968-21.042969 21.910156l-67.453125 1.359375 20.453125 64.292969c3.59375 11.304687-2.652344 23.386718-13.957031 26.980468-11.304688 3.597656-23.386719-2.648437-26.984375-13.957031l-29.171875-91.703125c-2.054688-6.457031-.941406-13.503906 3.003906-19.015625 3.945312-5.507813 10.257812-8.835937 17.03125-8.972656l96.214844-1.941407c16.535156.332032 21.789062 15.269532 21.90625 21.046876zm0 0" fill="#ccf8ff"/><path d="m446.75 234.609375c-2.226562-20.953125-20.621094-27.03125-31.683594-25.9375-15.902344 1.574219-27.5625 15.792969-25.992187 31.691406 4.933593 49.894531-12.542969 98.8125-47.949219 134.21875-42.28125 42.28125-103.117188 58.027344-159.414062 43.460938 14.285156-2.027344 25.175781-14.480469 24.878906-29.265625-.230469-11.21875-9.683594-28-29.257813-28.390625-.105469 0-.203125 0-.304687 0l-96.210938 1.941406c-9.097656.183594-17.683594 4.707031-22.976562 12.101563-5.296875 7.398437-6.8125 16.988281-4.054688 25.65625l10.753906 33.8125c1.257813 3.945312 5.476563 6.125 9.421876 4.875 3.949218-1.257813 6.128906-5.476563 4.875-9.421876l-10.757813-33.8125c-1.332031-4.183593-.601563-8.808593 1.957031-12.378906 2.550782-3.566406 6.695313-5.75 11.085938-5.839844l96.046875-1.933593c4.800781.125 14.140625 3.425781 14.425781 13.691406.210938 7.707031-5.992188 14.105469-13.699219 14.261719l-67.457031 1.359375c-2.363281.046875-4.566406 1.207031-5.945312 3.132812-1.375 1.921875-1.765626 4.382813-1.046876 6.636719l20.453126 64.296875c2.335937 7.347656-1.785157 15.078125-9.085938 17.5625-10.015625 3.40625-16.429688-5.527344-17.558594-9.085937l-8.027344-25.234376c-1.257812-3.945312-5.476562-6.128906-9.421874-4.871093-3.945313 1.253906-6.128907 5.472656-4.875 9.417969l8.027343 25.234374c2.347657 7.378907 11.597657 20.210938 27.585938 20.210938 25.046875 0 32.492187-22.554688 27.648437-37.78125l-3.582031-11.253906c28.019531 11.980468 58.546875 18.203125 89.144531 18.203125 10.652344 0 21.3125-.75 31.871094-2.269531 48.261719-6.949219 91.996094-28.847657 126.480469-63.332032 48.195312-48.191406 71.757812-114.148437 64.644531-180.957031zm-75.246094 170.351563c-32.179687 32.175781-72.984375 52.609374-118.011718 59.089843-42.621094 6.136719-86.910157-1.144531-125.054688-20.492187l-7.65625-24.066406 20.296875-.40625c69.890625 34.574218 155.566406 21.1875 210.652344-33.898438 38.59375-38.59375 57.648437-91.917969 52.273437-146.296875-.761718-7.671875 4.863282-14.53125 12.535156-15.289063.558594-.058593 13.828126-1.207031 15.296876 12.59375 6.628906 62.28125-15.363282 123.792969-60.332032 168.765626zm0 0"/><path d="m59.421875 271.632812c-4.933594-49.890624 12.546875-98.808593 47.953125-134.214843 42.222656-42.222657 103.097656-57.996094 159.394531-43.460938-14.277343 2.039063-25.15625 14.484375-24.859375 29.265625.226563 11.21875 9.683594 28 29.257813 28.390625h.148437.152344l96.210938-1.941406c9.09375-.183594 17.6875-4.707031 22.976562-12.105469 5.296875-7.394531 6.8125-16.984375 4.054688-25.652344l-29.171876-91.703124c-2.347656-7.378907-7.425781-13.398438-14.300781-16.957032-6.878906-3.558594-14.726562-4.222656-22.101562-1.875-15.230469 4.84375-23.675781 21.175782-18.832031 36.402344l3.578124 11.246094c-27.890624-11.953125-58.242187-18.234375-88.789062-18.234375-.199219 0-8.09375-.511719-8.085938 7.523437.007813 8.03125 7.890626 7.476563 8.085938 7.476563 33 0 65.753906 7.839843 94.972656 22.667969l7.648438 24.042968s-22.25-.101562-22.6875-.316406c-69.726563-34.128906-153.421875-20.214844-208.261719 34.625-38.59375 38.59375-57.648437 91.917969-52.273437 146.296875.757812 7.671875-4.867188 14.53125-12.539063 15.289063-.5625.054687-13.824219 1.207031-15.292969-12.59375-6.628906-62.28125 15.363282-123.792969 60.332032-168.765626 31.828124-31.828124 72.167968-52.191406 116.660156-58.894531 4.09375-.613281 6.914062-4.4375 6.296875-8.53125-.617188-4.09375-4.4375-6.917969-8.53125-6.296875-47.6875 7.179688-90.921875 29.007813-125.03125 63.117188-48.1875 48.191406-71.75 114.148437-64.640625 180.957031 2.066406 19.417969 17.664062 27.488281 31.683594 25.933594 15.882812-1.757813 27.5625-15.789063 25.992187-31.691407zm278.636719-164.332031c2.363281-.046875 4.566406-1.210937 5.945312-3.132812 1.378906-1.925781 1.765625-4.386719 1.050782-6.640625l-20.457032-64.292969c-2.335937-7.347656 1.640625-15.5625 9.085938-17.5625 10.8125-2.90625 16.429687 5.523437 17.5625 9.082031l29.171875 91.703125c1.332031 4.183594.601562 8.808594-1.953125 12.378907-2.554688 3.566406-6.699219 5.75-11.085938 5.839843l-96.050781 1.9375c-13.878906-.28125-14.402344-12.664062-14.421875-13.691406-.15625-7.710937 5.988281-14.105469 13.695312-14.265625zm0 0"/></svg>