<svg height="512pt" viewBox="0 -59 512.00092 512" width="512pt" xmlns="http://www.w3.org/2000/svg"><path d="m119.121094 61.84375v-32.867188c0-11.859374 9.617187-21.476562 21.476562-21.476562h264.835938c11.859375 0 21.472656 9.617188 21.472656 21.476562v32.867188l-162.292969 41.636719zm0 0" fill="#ff929f"/><path d="m140.597656 7.5c-11.859375 0-21.476562 9.617188-21.476562 21.476562v32.867188l43.523437 12.457031c3.726563-8.078125 7.128907-14.828125 9.761719-19.859375 7.957031-15.183594 10.941406-33.109375 11.96875-46.941406zm0 0" fill="#ff737d"/><path d="m145.765625 387.433594c16.984375-10.320313 27.972656-29.527344 26.511719-51.167969-1.859375-27.558594-24.269532-49.765625-51.847656-51.394531-20.164063-1.191406-38.167969 8.421875-48.761719 23.589844-4.738281 6.785156-12.253907 11.011718-20.503907 11.648437-14.589843 1.125-28.453124 8.984375-36.691406 22.414063-4.738281 7.730468-6.988281 16.28125-6.972656 24.726562.019531 11.203125 9.320312 20.183594 20.523438 20.183594zm0 0" fill="#b2e59c"/><path d="m495.222656 370.792969c6.515625-9.765625 10.011719-21.71875 9.144532-34.527344-1.859376-27.558594-24.269532-49.765625-51.84375-51.394531-20.167969-1.191406-38.167969 8.421875-48.765626 23.59375-4.734374 6.78125-12.253906 11.011718-20.503906 11.644531-14.589844 1.125-28.453125 8.984375-36.6875 22.414063-4.738281 7.730468-6.988281 16.28125-6.972656 24.726562.019531 11.203125 9.316406 20.183594 20.519531 20.183594h103.765625c12.5625 0 24.367188-6.195313 31.34375-16.640625zm0 0" fill="#b2e59c"/><path d="m99.09375 141.011719h342.539062v246.421875h-342.539062zm0 0" fill="#ffe8c2"/><path d="m99.09375 141.011719v246.421875h89.65625v-61.402344c0-26.03125 16.335938-49.488281 40.980469-57.871094 51.648437-17.570312 82.0625-63.867187 82.0625-63.867187v-63.28125zm0 0" fill="#ffdaaa"/><path d="m426.90625 55.492188h-307.785156l-46.953125 81.816406c-6.925781 12.070312-7.769531 26.21875-1.773438 38.660156 11.390625 23.632812 38.203125 40.230469 69.464844 40.230469 28.875 0 53.941406-14.164063 66.578125-34.949219 12.636719 20.785156 37.703125 34.949219 66.578125 34.949219s53.9375-14.164063 66.578125-34.949219c12.636719 20.785156 37.703125 34.949219 66.578125 34.949219 31.261719 0 58.074219-16.597657 69.464844-40.230469 5.996093-12.441406 5.148437-26.589844-1.777344-38.660156zm0 0" fill="#ccf8ff"/><path d="m171.863281 55.492188h-52.738281l-46.953125 81.816406c-6.925781 12.070312-7.773437 26.21875-1.777344 38.660156 10.296875 21.359375 33.195313 36.976562 60.585938 39.777344-5.890625-63.1875 26.984375-133.546875 40.882812-160.253906zm0 0" fill="#abebf4"/><path d="m70.394531 175.96875c11.390625 23.632812 38.203125 40.230469 69.464844 40.230469 28.875 0 53.941406-14.167969 66.578125-34.949219 12.636719 20.785156 37.703125 34.949219 66.578125 34.949219s53.9375-14.167969 66.578125-34.949219c12.636719 20.785156 37.703125 34.949219 66.578125 34.949219 31.261719 0 58.074219-16.597657 69.464844-40.230469 4.042969-8.394531 4.964843-17.5625 3.015625-26.351562h-411.273438c-1.949218 8.789062-1.03125 17.957031 3.015625 26.351562zm0 0" fill="#ffa5b5"/><path d="m273.015625 216.199219c28.875 0 53.9375-14.167969 66.578125-34.949219l-22.738281-125.757812h-87.683594l-22.734375 125.757812c12.636719 20.78125 37.703125 34.949219 66.578125 34.949219zm0 0" fill="#ffa5b5"/><path d="m206.4375 181.25c12.636719 20.785156 37.703125 34.949219 66.578125 34.949219s53.9375-14.167969 66.578125-34.949219l-5.71875-31.628906h-121.71875zm0 0" fill="#ff929f"/><path d="m394.277344 387.433594h-100.480469v-113.289063c0-17.667969 14.320313-31.988281 31.984375-31.988281h36.507812c17.667969 0 31.988282 14.324219 31.988282 31.988281zm0 0" fill="#ffc477"/><path d="m224.957031 343.429688h-58.542969c-11.800781 0-21.367187-9.566407-21.367187-21.363282v-58.542968c0-11.800782 9.566406-21.367188 21.367187-21.367188h58.542969c11.800781 0 21.367188 9.566406 21.367188 21.367188v58.542968c-.003907 11.796875-9.566407 21.363282-21.367188 21.363282zm0 0" fill="#abebf4"/><path d="m136.410156 149.617188h-69.03125c-1.949218 8.785156-1.03125 17.957031 3.015625 26.351562 10.292969 21.359375 33.191407 36.972656 60.585938 39.777344-2.039063-21.886719.570312-44.632813 5.429687-66.128906zm0 0" fill="#ff929f"/><path d="m246.210938 261.3125c-1.109376-10.761719-10.203126-19.15625-21.253907-19.15625h-58.542969c-11.800781 0-21.367187 9.566406-21.367187 21.367188v58.542968c0 11.800782 9.566406 21.367188 21.367187 21.367188h22.335938v-17.402344c0-26.03125 16.335938-49.488281 40.980469-57.871094 5.761719-1.960937 11.257812-4.277344 16.480469-6.847656zm0 0" fill="#8ed7e8"/><path d="m373.785156 325.167969c0 9.042969-7.332031 16.375-16.375 16.375-9.042968 0-16.375-7.332031-16.375-16.375s7.332032-16.371094 16.375-16.371094c9.042969 0 16.375 7.328125 16.375 16.371094zm0 0" fill="#f4a651"/><path d="m357.410156 301.296875c-13.164062 0-23.875 10.707031-23.875 23.871094 0 13.164062 10.710938 23.875 23.875 23.875 13.164063 0 23.875-10.710938 23.875-23.875 0-13.164063-10.710937-23.871094-23.875-23.871094zm0 32.746094c-4.894531 0-8.875-3.980469-8.875-8.875 0-4.890625 3.980469-8.871094 8.875-8.871094 4.890625 0 8.875 3.980469 8.875 8.871094 0 4.894531-3.984375 8.875-8.875 8.875zm0 0"/><path d="m224.957031 234.65625h-58.542969c-15.917968 0-28.867187 12.949219-28.867187 28.863281v8.53125c0 4.140625 3.359375 7.5 7.5 7.5 4.144531 0 7.5-3.359375 7.5-7.5v-8.53125c0-7.644531 6.222656-13.863281 13.867187-13.863281h58.542969c7.644531 0 13.863281 6.21875 13.863281 13.863281v58.542969c0 7.648438-6.21875 13.867188-13.863281 13.867188h-58.542969c-7.644531 0-13.867187-6.21875-13.867187-13.867188v-16.578125c0-4.140625-3.355469-7.5-7.5-7.5-4.140625 0-7.5 3.359375-7.5 7.5v16.582031c0 15.914063 12.949219 28.863282 28.867187 28.863282h58.542969c15.917969 0 28.863281-12.949219 28.863281-28.863282v-58.542968c0-15.917969-12.945312-28.867188-28.863281-28.867188zm0 0"/><path d="m511.851562 335.761719c-1.511718-22.414063-15.125-42.453125-35.523437-52.300781-3.730469-1.796876-8.214844-.234376-10.011719 3.496093-1.800781 3.730469-.238281 8.214844 3.492188 10.015625 15.550781 7.503906 25.925781 22.753906 27.078125 39.796875.722656 10.707031-2.007813 21.03125-7.902344 29.859375-5.5625 8.332032-14.945313 13.304688-25.101563 13.304688h-14.75v-166.808594c14.53125-7.773438 26.308594-19.472656 33.261719-33.898438 7.011719-14.550781 6.273438-31.1875-2.027343-45.652343l-45.957032-80.082031v-24.515626c0-15.976562-13-28.976562-28.976562-28.976562h-264.835938c-15.976562 0-28.976562 13-28.976562 28.976562v24.515626l-45.957032 80.082031c-8.300781 14.464843-9.039062 31.101562-2.027343 45.648437 6.085937 12.628906 15.867187 23.167969 27.957031 30.8125v72.628906c-10.398438 4.636719-19.527344 12.128907-26.074219 21.503907-3.433593 4.914062-8.875 8-14.933593 8.464843-17.46875 1.347657-33.359376 11.054688-42.507813 25.96875-5.300781 8.648438-8.09375 18.558594-8.078125 28.660157.0273438 15.261719 12.597656 27.671875 28.019531 27.671875h435.859375c15.179688 0 29.226563-7.46875 37.582032-19.976563 7.746093-11.609375 11.339843-25.160156 10.390624-39.195312zm-42.972656-163.050781c-10.535156 21.859374-35.152344 35.988281-62.710937 35.988281-24.859375 0-47.5-11.550781-59.457031-30.222657l-3.859376-21.359374h129.253907c.222656 5.332031-.84375 10.648437-3.226563 15.59375zm-250.457031-15.59375h109.1875l4.078125 22.554687c-12.148438 17.96875-34.347656 29.027344-58.671875 29.027344s-46.523437-11.058594-58.671875-29.027344zm249.511719-15h-127.792969l-9.695313-53.628907c-.738281-4.074219-4.640624-6.777343-8.714843-6.046875-4.078125.738282-6.785157 4.640625-6.046875 8.714844l9.210937 50.960938h-103.761719l14.304688-79.128907h187.125s45.179688 78.773438 45.371094 79.128907zm-327.335938-127.117188h264.835938c7.703125 0 13.972656 6.269531 13.972656 13.976562v19.015626h-292.78125v-19.015626c0-7.707031 6.265625-13.976562 13.972656-13.976562zm-17.132812 47.988281h96.730468l-14.304687 79.128907h-127.792969c.191406-.355469 45.367188-79.128907 45.367188-79.128907zm-46.3125 109.722657c-2.386719-4.945313-3.453125-10.261719-3.230469-15.59375h129.257813l-3.863282 21.359374c-11.957031 18.671876-34.597656 30.222657-59.457031 30.222657-27.558594 0-52.171875-14.128907-62.707031-35.988281zm-62.152344 194.527343c-.011719-7.324219 2.019531-14.515625 5.867188-20.792969 6.640624-10.832031 18.183593-17.878906 30.871093-18.855468 10.5625-.816406 20.066407-6.222656 26.078125-14.832032 3.664063-5.25 8.390625-9.722656 13.777344-13.125v80.300782h-63.570312c-7.167969 0-13.011719-5.695313-13.023438-12.695313zm91.59375 12.695313v-162.375c10.28125 3.972656 21.566406 6.140625 33.265625 6.140625 26.527344 0 51.097656-11.128907 66.578125-29.617188 15.480469 18.488281 40.050781 29.617188 66.578125 29.617188s51.097656-11.128907 66.578125-29.617188c15.480469 18.488281 40.050781 29.617188 66.578125 29.617188 9.71875 0 19.152344-1.5 27.960937-4.28125v160.515625h-32.355468v-105.789063c0-21.773437-17.710938-39.488281-39.488282-39.488281h-36.503906c-21.773437 0-39.488281 17.714844-39.488281 39.488281v105.789063zm194.699219 0v-105.789063c0-13.503906 10.988281-24.488281 24.488281-24.488281h36.507812c13.503907 0 24.488282 10.984375 24.488282 24.488281v105.789063zm0 0"/></svg>