<svg height="511pt" viewBox="-20 1 511 511.999" width="511pt" xmlns="http://www.w3.org/2000/svg"><path d="m303.195312 191.320312-53.230468-53.230468c-17.699219-17.699219-17.699219-46.390625 0-64.085938l53.230468-53.230468c17.695313-17.695313 46.386719-17.695313 64.082032 0l53.234375 53.230468c17.695312 17.695313 17.695312 46.386719 0 64.085938l-53.234375 53.230468c-17.695313 17.695313-46.386719 17.695313-64.082032 0zm0 0" fill="#b2e59c"/><path d="m303.195312 20.773438-53.230468 53.230468c-17.699219 17.695313-17.699219 46.386719 0 64.082032l53.230468 53.230468c17.695313 17.699219 46.386719 17.699219 64.082032 0l36.292968-36.289062c-26.3125-88.996094-100.375-134.253906-100.375-134.253906zm0 0" fill="#9ad880"/><path d="m194.914062 191.320312-53.230468-53.230468c-17.695313-17.699219-17.695313-46.390625 0-64.085938l53.230468-53.230468c17.699219-17.695313 46.386719-17.695313 64.085938 0l53.230469 53.230468c17.695312 17.695313 17.695312 46.386719 0 64.085938l-53.230469 53.230468c-17.699219 17.695313-46.386719 17.695313-64.085938 0zm0 0" fill="#ccf8ff"/><path d="m279.324219 467.261719c0 20.566406-16.671875 37.238281-37.238281 37.238281-20.566407 0-37.242188-16.671875-37.242188-37.238281 0-20.570313 16.675781-37.242188 37.242188-37.242188 20.566406 0 37.238281 16.671875 37.238281 37.242188zm0 0" fill="#d8d7da"/><path d="m421.257812 467.261719c0 20.566406-16.675781 37.238281-37.242187 37.238281s-37.238281-16.671875-37.238281-37.238281c0-20.570313 16.671875-37.242188 37.238281-37.242188s37.242187 16.671875 37.242187 37.242188zm0 0" fill="#d8d7da"/><path d="m144.632812 301.925781 35.933594 104.710938c5.996094 17.476562 22.433594 29.214843 40.910156 29.214843h216.097657c14.976562 0 27.117187-12.140624 27.117187-27.113281 0-14.976562-12.140625-27.117187-27.117187-27.117187h-201.71875l-30.792969-79.695313zm0 0" fill="#c6c5ca"/><path d="m97.003906 142.285156-17.027344-54.707031h-47.597656c-13.464844 0-24.378906-10.914063-24.378906-24.378906 0-13.464844 10.914062-24.378907 24.378906-24.378907h70.851563c11.109375 0 21.011719 7.007813 24.703125 17.488282l36.792968 104.410156zm0 0" fill="#c6c5ca"/><path d="m97.003906 142.285156 47.632813 159.640625c6.210937 20.820313 25.359375 35.089844 47.089843 35.089844h183.792969c21.730469 0 40.878907-14.269531 47.089844-35.089844l34.117187-114.339843c6.738282-22.59375-10.183593-45.300782-33.757812-45.300782zm0 0" fill="#eaeaea"/><g fill="#d8d7da"><path d="m229.375 301.925781-47.628906-159.644531h-84.742188l47.628906 159.644531c6.214844 20.820313 25.363282 35.089844 47.089844 35.089844h84.742188c-21.726563 0-40.875-14.269531-47.089844-35.089844zm0 0"/><path d="m301.515625 214.238281-14.054687-14.054687c-4.496094-4.5-4.496094-11.792969 0-16.292969l14.054687-14.054687c4.5-4.496094 11.792969-4.496094 16.292969 0l14.054687 14.054687c4.5 4.5 4.5 11.792969 0 16.292969l-14.054687 14.054687c-4.5 4.496094-11.792969 4.496094-16.292969 0zm0 0"/><path d="m349.128906 261.851562-14.054687-14.054687c-4.496094-4.5-4.496094-11.792969 0-16.292969l14.054687-14.054687c4.5-4.5 11.792969-4.5 16.292969 0l14.054687 14.054687c4.5 4.5 4.5 11.792969 0 16.292969l-14.054687 14.054687c-4.5 4.496094-11.792969 4.496094-16.292969 0zm0 0"/><path d="m301.515625 309.464844-14.054687-14.054688c-4.496094-4.5-4.496094-11.792968 0-16.292968l14.054687-14.054688c4.5-4.5 11.792969-4.5 16.292969 0l14.054687 14.054688c4.5 4.5 4.5 11.792968 0 16.292968l-14.054687 14.054688c-4.5 4.496094-11.792969 4.496094-16.292969 0zm0 0"/></g><path d="m437.574219 374.121094h-136.335938c-4.144531 0-7.5 3.359375-7.5 7.5 0 4.144531 3.355469 7.5 7.5 7.5h136.335938c10.816406 0 19.617187 8.800781 19.617187 19.617187 0 10.8125-8.800781 19.613281-19.617187 19.613281h-216.09375c-15.273438 0-28.863281-9.707031-33.820313-24.152343l-22.847656-66.582031c8.109375 4.410156 17.320312 6.898437 26.910156 6.898437h21.753906l15.382813 39.808594c1.117187 2.890625 3.894531 4.796875 6.996094 4.796875h32.085937c4.140625 0 7.5-3.355469 7.5-7.5 0-4.140625-3.359375-7.5-7.5-7.5h-26.945312l-11.4375-29.605469h145.960937c24.851563 0 47.171875-16.632813 54.277344-40.445313l34.113281-114.339843c3.898438-13.0625 1.460938-26.820313-6.683594-37.75-6.273437-8.421875-15.132812-14.058594-25.097656-16.210938 5.945313-8.695312 9.152344-18.960937 9.152344-29.722656 0-14.109375-5.492188-27.371094-15.46875-37.347656l-53.230469-53.230469c-9.976562-9.976562-23.238281-15.46875-37.34375-15.46875-14.109375 0-27.371093 5.492188-37.347656 15.46875l-16.792969 16.796875-16.796875-16.796875c-20.59375-20.589844-54.097656-20.589844-74.6875 0l-50.367187 50.367188-4.238282-12.019532c-4.742187-13.457031-17.511718-22.496094-31.777343-22.496094h-70.851563c-17.578125 0-31.878906 14.300782-31.878906 31.878907s14.300781 31.878906 31.878906 31.878906h42.078125s63.839844 211.628906 64.332031 212.914063l34.679688 101.078124c5.292969 15.417969 17.515625 27.03125 32.472656 31.84375-5.507812 7.550782-8.597656 16.730469-8.597656 26.347657 0 24.667969 20.070312 44.738281 44.742188 44.738281 24.667968 0 44.738281-20.070312 44.738281-44.738281 0-8.640625-2.445313-16.878907-6.894531-23.910157h66.28125c-4.460938 7.050782-6.933594 15.304688-6.933594 23.910157 0 24.667969 20.066406 44.738281 44.738281 44.738281 24.667969 0 44.738281-20.070312 44.738281-44.738281 0-8.640625-2.445312-16.878907-6.890625-23.910157h15.710938c19.085937 0 34.617187-15.527343 34.617187-34.613281 0-19.089843-15.527344-34.617187-34.617187-34.617187zm-237.355469-348.046875c14.746094-14.742188 38.734375-14.742188 53.476562 0l41.042969 41.046875c2.929688 2.925781 7.679688 2.925781 10.609375 0 2.929688-2.929688 2.929688-7.679688 0-10.609375l-13.644531-13.640625 16.796875-16.796875c7.140625-7.140625 16.636719-11.074219 26.738281-11.074219 10.097657 0 19.59375 3.933594 26.734375 11.074219l53.234375 53.234375c26.074219 26.738281-2 55.472656-2 55.472656h-88.742187c9.53125-14.773438 11.289062-33.800781 3.984375-50.21875-1.6875-3.785156-6.117188-5.488281-9.902344-3.804688-3.785156 1.683594-5.210937 6.007813-3.804687 9.902344 9.457031 26.1875-9.816407 44.121094-9.816407 44.121094h-141.386719l-18.714843-53.109375c.691406-.8125 55.394531-55.597656 55.394531-55.597656zm-120.242188 54.003906h-47.597656c-9.308594 0-16.878906-7.570313-16.878906-16.878906 0-9.308594 7.570312-16.878907 16.878906-16.878907h70.851563c7.914062 0 15 5.015626 17.632812 12.480469l26.773438 75.980469h-45.113281l-15.382813-49.433594c-.976563-3.132812-3.878906-5.269531-7.164063-5.269531zm342.988282 69.703125c8.847656 0 16.949218 4.070312 22.234375 11.160156 5.285156 7.09375 6.867187 16.023438 4.339843 24.496094l-34.117187 114.34375c-5.222656 17.507812-21.632813 29.734375-39.902344 29.734375h-183.796875c-17.109375 0-32.589844-10.726563-38.773437-26.472656l-45.878907-153.261719zm-151.140625 317.480469c0 16.398437-13.339844 29.738281-29.738281 29.738281-16.402344 0-29.742188-13.339844-29.742188-29.738281 0-9.464844 4.492188-18.300781 12.066406-23.910157h35.363282c7.578124 5.609376 12.050781 14.394532 12.050781 23.910157zm141.933593 0c0 16.398437-13.34375 29.738281-29.742187 29.738281s-29.738281-13.339844-29.738281-29.738281c0-9.464844 4.492187-18.300781 12.066406-23.910157h35.359375c7.582031 5.609376 12.054687 14.394532 12.054687 23.910157zm0 0"/><path d="m296.214844 219.539062-14.054688-14.054687c-7.417968-7.414063-7.417968-19.480469 0-26.898437l14.054688-14.054688c7.414062-7.414062 19.480468-7.414062 26.898437 0l14.054688 14.054688c7.414062 7.417968 7.414062 19.484374 0 26.898437l-14.054688 14.054687c-7.417969 7.417969-19.484375 7.417969-26.898437 0zm16.289062-44.398437c-1.566406-1.566406-4.117187-1.566406-5.683594 0l-14.054687 14.054687c-1.566406 1.566407-1.566406 4.117188 0 5.6875l14.054687 14.050782c1.566407 1.570312 4.117188 1.570312 5.683594 0l14.054688-14.050782c1.566406-1.570312 1.566406-4.121093 0-5.6875zm0 0"/><path d="m343.828125 267.152344-14.054687-14.050782c-7.417969-7.417968-7.417969-19.484374 0-26.902343l14.054687-14.050781c7.414063-7.417969 19.480469-7.417969 26.898437 0l14.054688 14.050781c7.414062 7.417969 7.414062 19.484375 0 26.902343l-14.054688 14.050782c-7.417968 7.417968-19.484374 7.417968-26.898437 0zm16.289063-44.398438c-1.566407-1.570312-4.117188-1.570312-5.683594 0l-14.054688 14.054688c-1.570312 1.566406-1.570312 4.117187 0 5.683594l14.054688 14.054687c1.566406 1.566406 4.117187 1.566406 5.683594 0l14.054687-14.054687c1.570313-1.566407 1.570313-4.117188 0-5.683594zm0 0"/><path d="m296.214844 314.765625-14.054688-14.054687c-7.417968-7.414063-7.417968-19.480469 0-26.898438l14.054688-14.054688c7.414062-7.414062 19.480468-7.414062 26.898437 0l14.054688 14.054688c7.414062 7.417969 7.414062 19.484375 0 26.898438l-14.054688 14.054687c-7.417969 7.417969-19.484375 7.417969-26.898437 0zm16.289062-44.398437c-1.566406-1.570313-4.117187-1.570313-5.683594 0l-14.054687 14.054687c-1.566406 1.566406-1.566406 4.117187 0 5.683594l14.054687 14.054687c1.566407 1.566406 4.117188 1.566406 5.683594 0l14.054688-14.054687c1.566406-1.566407 1.566406-4.117188 0-5.683594zm0 0"/></svg>