<svg height="512pt" viewBox="-88 0 512 512" width="512pt" xmlns="http://www.w3.org/2000/svg"><path d="m265.925781 504.5h-194.929687c-35.066406 0-63.496094-28.425781-63.496094-63.496094v-370.007812c0-35.066406 28.429688-63.496094 63.496094-63.496094h194.929687c35.066407 0 63.496094 28.425781 63.496094 63.496094v370.011718c0 35.066407-28.429687 63.492188-63.496094 63.492188zm0 0" fill="#ccf8ff"/><path d="m88.15625 441.007812v-370.011718c0-35.066406 28.429688-63.496094 63.496094-63.496094h-80.65625c-35.066406 0-63.496094 28.429688-63.496094 63.496094v370.007812c0 35.066406 28.429688 63.496094 63.496094 63.496094h80.65625c-35.066406 0-63.496094-28.425781-63.496094-63.492188zm0 0" fill="#abebf4"/><path d="m265.925781 7.5h-194.929687c-35.066406 0-63.496094 28.425781-63.496094 63.496094v19.339844h321.921875v-19.339844c0-35.066406-28.429687-63.496094-63.496094-63.496094zm0 0" fill="#eaeaea"/><path d="m151.652344 7.5h-80.660156c-35.066407 0-63.492188 28.425781-63.492188 63.496094v19.339844h80.65625v-19.339844c0-35.066406 28.429688-63.496094 63.496094-63.496094zm0 0" fill="#d8d7da"/><path d="m265.925781 504.5h-194.929687c-35.066406 0-63.496094-28.425781-63.496094-63.496094v-19.339844h321.921875v19.339844c0 35.070313-28.429687 63.496094-63.496094 63.496094zm0 0" fill="#eaeaea"/><path d="m7.5 441.007812c0 35.066407 28.425781 63.492188 63.496094 63.492188h80.65625c-35.066406 0-63.496094-28.425781-63.496094-63.492188v-19.339843h-80.65625zm0 0" fill="#d8d7da"/><g fill="#c6c5ca"><path d="m189.480469 463.085938c0 11.609374-9.410157 21.019531-21.019531 21.019531-11.609376 0-21.023438-9.410157-21.023438-21.019531 0-11.613282 9.414062-21.023438 21.023438-21.023438 11.609374 0 21.019531 9.410156 21.019531 21.023438zm0 0"/><path d="m140.476562 48.917969c0 10.488281-8.503906 18.992187-18.996093 18.992187-10.488281 0-18.992188-8.503906-18.992188-18.992187 0-10.492188 8.503907-18.996094 18.992188-18.996094 10.492187 0 18.996093 8.503906 18.996093 18.996094zm0 0"/><path d="m215.4375 67.910156h-29.921875c-10.445313 0-18.992187-8.546875-18.992187-18.992187 0-10.445313 8.546874-18.992188 18.992187-18.992188h29.921875c10.449219 0 18.996094 8.546875 18.996094 18.992188 0 10.445312-8.546875 18.992187-18.996094 18.992187zm0 0"/></g><path d="m168.460938 191.046875c-15.519532 0-28.101563-12.582031-28.101563-28.101563v-20.429687c0-4.238281 3.433594-7.671875 7.671875-7.671875h40.859375c4.238281 0 7.671875 3.433594 7.671875 7.671875v20.429687c-.003906 15.519532-12.582031 28.101563-28.101562 28.101563zm0 0" fill="#57565c"/><path d="m104.4375 162.945312c0-13.183593-13.417969-23.871093-29.972656-23.871093-16.554688 0-29.972656 10.6875-29.972656 23.871093 0 13.183594 13.417968 23.867188 29.972656 23.867188 16.554687 0 29.972656-10.683594 29.972656-23.867188zm0 0" fill="#ffa6bb"/><path d="m292.429688 162.945312c0-13.183593-13.421876-23.871093-29.972657-23.871093-16.554687 0-29.972656 10.6875-29.972656 23.871093 0 13.183594 13.417969 23.867188 29.972656 23.867188 16.550781 0 29.972657-10.683594 29.972657-23.867188zm0 0" fill="#ffa6bb"/><path d="m62.597656 294.410156c-5.859375-5.859375-5.859375-15.355468 0-21.214844 28.363282-28.359374 66.015625-43.976562 106.019532-43.976562 39.824218 0 77.351562 15.492188 105.667968 43.625 5.878906 5.839844 5.910156 15.335938.070313 21.214844-5.839844 5.875-15.335938 5.90625-21.210938.070312-22.660156-22.515625-52.679687-34.910156-84.527343-34.910156-31.992188 0-62.355469 12.253906-84.808594 35.191406-7.796875 7.964844-18.28125 2.929688-21.210938 0zm0 0" fill="#8ed7e8"/><path d="m62.597656 273.195312c-5.859375 5.859376-5.859375 15.355469 0 21.214844 2.929688 2.929688 13.414063 7.964844 21.214844 0 1.414062-1.449218 2.867188-2.855468 4.34375-4.21875v-37.570312c-9.132812 5.839844-17.703125 12.71875-25.558594 20.574218zm0 0" fill="#7ac1dd"/><path d="m105.003906 336.816406c-5.859375-5.855468-5.859375-15.355468 0-21.214844 17.015625-17.015624 39.605469-26.382812 63.613282-26.382812 23.898437 0 46.417968 9.296875 63.40625 26.175781 5.878906 5.839844 5.910156 15.335938.070312 21.214844-5.839844 5.875-15.335938 5.90625-21.214844.066406-11.332031-11.257812-26.339844-17.457031-42.261718-17.457031-15.996094 0-30.703126 6.605469-42.402344 17.597656-8.207032 7.714844-18.28125 2.929688-21.210938 0zm0 0" fill="#8ed7e8"/><path d="m183.617188 371.21875c0 8.285156-6.714844 15-15 15-8.28125 0-15-6.714844-15-15s6.71875-15 15-15c8.285156 0 15 6.714844 15 15zm0 0" fill="#8ed7e8"/><path d="m249.117188 149.84375c4.144531 0 7.5-3.359375 7.5-7.5v-12.453125c0-4.140625-3.355469-7.5-7.5-7.5-4.144532 0-7.5 3.359375-7.5 7.5v12.453125c0 4.140625 3.355468 7.5 7.5 7.5zm0 0"/><path d="m87.804688 149.84375c4.140624 0 7.5-3.359375 7.5-7.5v-12.453125c0-4.140625-3.359376-7.5-7.5-7.5-4.144532 0-7.5 3.359375-7.5 7.5v12.453125c0 4.140625 3.355468 7.5 7.5 7.5zm0 0"/><path d="m265.925781 0h-194.933593c-39.144532 0-70.992188 31.847656-70.992188 70.996094v370.011718c0 39.144532 31.847656 70.992188 70.992188 70.992188h194.933593c39.148438 0 70.996094-31.847656 70.996094-70.992188v-370.011718c0-39.148438-31.851563-70.996094-70.996094-70.996094zm55.996094 414.167969h-254.339844c-4.144531 0-7.5 3.355469-7.5 7.5 0 4.140625 3.355469 7.5 7.5 7.5h254.339844v11.839843c0 30.875-25.121094 55.992188-55.996094 55.992188h-194.933593c-30.875 0-55.992188-25.117188-55.992188-55.992188v-11.839843h20.824219c4.144531 0 7.5-3.359375 7.5-7.5 0-4.144531-3.355469-7.5-7.5-7.5h-20.824219v-316.332031h306.921875zm0-331.332031h-306.921875v-11.839844c0-30.878906 25.117188-55.996094 55.992188-55.996094h194.933593c30.875 0 55.996094 25.117188 55.996094 55.996094zm0 0"/><path d="m168.460938 491.605469c15.726562 0 28.519531-12.796875 28.519531-28.519531 0-15.730469-12.792969-28.523438-28.519531-28.523438-15.726563 0-28.523438 12.792969-28.523438 28.523438 0 15.722656 12.796875 28.519531 28.523438 28.519531zm0-42.042969c7.453124 0 13.519531 6.066406 13.519531 13.523438 0 7.453124-6.066407 13.519531-13.519531 13.519531-7.457032 0-13.523438-6.066407-13.523438-13.519531 0-7.457032 6.066406-13.523438 13.523438-13.523438zm0 0"/><path d="m121.480469 22.421875c-14.609375 0-26.492188 11.886719-26.492188 26.496094s11.882813 26.492187 26.492188 26.492187 26.496093-11.882812 26.496093-26.492187-11.886718-26.496094-26.496093-26.496094zm0 37.988281c-6.335938 0-11.492188-5.15625-11.492188-11.492187 0-6.339844 5.15625-11.496094 11.492188-11.496094 6.339843 0 11.496093 5.15625 11.496093 11.496094 0 6.335937-5.15625 11.492187-11.496093 11.492187zm0 0"/><path d="m215.4375 22.421875h-29.921875c-14.609375 0-26.492187 11.886719-26.492187 26.496094s11.882812 26.492187 26.492187 26.492187h29.921875c14.609375 0 26.496094-11.882812 26.496094-26.492187s-11.886719-26.496094-26.496094-26.496094zm0 37.988281h-29.921875c-6.335937 0-11.492187-5.152344-11.492187-11.492187 0-6.339844 5.15625-11.496094 11.492187-11.496094h29.921875c6.339844 0 11.496094 5.15625 11.496094 11.496094 0 6.339843-5.15625 11.492187-11.496094 11.492187zm0 0"/><path d="m168.460938 198.546875c19.628906 0 35.597656-15.972656 35.601562-35.601563v-20.429687c0-8.367187-6.808594-15.171875-15.171875-15.171875h-40.859375c-8.367188 0-15.171875 6.804688-15.171875 15.171875v20.429687c0 19.628907 15.96875 35.601563 35.601563 35.601563zm-20.601563-56.03125c0-.09375 41.199219-.09375 41.199219 0v20.429687c0 11.359376-9.242188 20.601563-20.597656 20.601563-11.359376 0-20.601563-9.242187-20.601563-20.601563zm0 0"/><path d="m89.171875 299.65625c20.789063-21.242188 49.003906-32.9375 79.445313-32.9375 29.855468 0 57.996093 11.621094 79.242187 32.726562 8.796875 8.742188 23.617187 9.207032 31.816406-.101562 12.414063-14.097656 4.160157-27.585938-.101562-31.820312-8.621094-8.566407-18.179688-16.117188-28.402344-22.441407-3.523437-2.179687-8.144531-1.089843-10.324219 2.433594-2.179687 3.519531-1.089844 8.144531 2.433594 10.324219 9.253906 5.726562 17.746094 12.730468 25.722656 20.324218 4.554688 4.339844 1.445313 9.1875.035156 10.605469-2.914062 2.933594-7.675781 2.953125-10.605468.035157-24.078125-23.914063-55.972656-37.085938-89.8125-37.085938-34.511719 0-66.390625 13.433594-90.167969 37.441406-5.269531 5.324219-10.507813-.003906-10.550781-.054687-3.554688-4.476563-1.417969-9.191407 0-10.605469 26.945312-26.945312 62.714844-41.78125 100.71875-41.78125 16.660156 0 32.949218 2.832031 48.421875 8.425781 3.894531 1.40625 8.195312-.609375 9.601562-4.503906 1.410157-3.898437-.609375-8.195313-4.503906-9.605469-17.109375-6.183594-35.117187-9.316406-53.519531-9.316406-42.011719 0-81.546875 16.394531-111.324219 46.171875-4.25 4.25-12.121094 17.960937 0 31.820313 12.605469 14.421874 27.714844 4.191406 31.875-.054688zm0 0"/><path d="m168.617188 281.71875c-26.011719 0-50.484376 10.148438-68.917969 28.582031-4.25 4.25-12.429688 18.109375 0 31.820313 11.585937 12.777344 26.445312 5.054687 31.652343.160156 10.839844-10.183594 23.726563-15.5625 37.265626-15.5625 13.929687 0 27.0625 5.425781 36.980468 15.277344 4.378906 4.355468 18.386719 13.707031 31.816406-.101563 12.910157-13.273437 4.160157-27.582031-.101562-31.820312-18.40625-18.285157-42.800781-28.355469-68.695312-28.355469zm58.15625 49.601562c-2.894532 2.953126-7.671876 2.949219-10.605469.035157-12.746094-12.664063-29.632813-19.636719-47.550781-19.636719-17.425782 0-34.003907 6.640625-47.535157 19.632812-6.265625 6.011719-10.777343.15625-10.777343.15625-3.203126-4.46875-1.414063-9.1875.003906-10.601562 15.597656-15.597656 36.304687-24.1875 58.3125-24.1875 21.902344 0 42.542968 8.519531 58.117187 23.996094 1.421875 1.414062 4.339844 6.214844.035157 10.605468zm0 0"/><path d="m168.617188 348.71875c-12.402344 0-22.5 10.09375-22.5 22.5s10.097656 22.5 22.5 22.5c12.40625 0 22.5-10.09375 22.5-22.5s-10.09375-22.5-22.5-22.5zm0 30c-4.132813 0-7.5-3.363281-7.5-7.5s3.367187-7.5 7.5-7.5c4.136718 0 7.5 3.363281 7.5 7.5 0 4.132812-3.363282 7.5-7.5 7.5zm0 0"/></svg>