<svg height="512pt" viewBox="-65 0 512 512.00052" width="512pt" xmlns="http://www.w3.org/2000/svg"><path d="m313.265625 498.109375-94.046875-60.410156c-17.234375-11.070313-39.34375-11.070313-56.582031 0l-94.042969 60.410156c-26.394531 16.953125-61.09375-2-61.09375-33.371094v-369.402343c0-48.511719 39.324219-87.835938 87.835938-87.835938h191.1875c48.511718 0 87.835937 39.324219 87.835937 87.835938v369.402343c0 31.371094-34.699219 50.324219-61.09375 33.371094zm0 0" fill="#ff929f"/><path d="m174.085938 7.5h-78.753907c-48.507812 0-87.832031 39.324219-87.832031 87.835938v369.402343c0 31.371094 34.695312 50.324219 61.09375 33.371094l44.535156-28.609375c14.132813-81.882812-9.289062-174.855469-3.878906-299.414062 4.753906-109.53125 39.035156-148.683594 64.835938-162.585938zm0 0" fill="#ff737d"/><path d="m190.929688 198.183594c-15.519532 0-28.097657-12.582032-28.097657-28.097656v-20.429688c0-4.238281 3.433594-7.671875 7.667969-7.671875h40.855469c4.238281 0 7.671875 3.433594 7.671875 7.671875v20.429688c0 15.515624-12.578125 28.097656-28.097656 28.097656zm0 0" fill="#57565c"/><path d="m126.910156 170.085938c0-13.183594-13.417968-23.867188-29.96875-23.867188-16.554687 0-29.972656 10.683594-29.972656 23.867188 0 13.179687 13.417969 23.867187 29.972656 23.867187 16.550782 0 29.96875-10.6875 29.96875-23.867187zm0 0" fill="#fff"/><path d="m314.886719 170.085938c0-13.183594-13.417969-23.867188-29.96875-23.867188s-29.972657 10.683594-29.972657 23.867188c0 13.179687 13.421876 23.867187 29.972657 23.867187s29.96875-10.6875 29.96875-23.867187zm0 0" fill="#fff"/><path d="m271.578125 156.984375c-4.140625 0-7.496094-3.359375-7.496094-7.5v-12.453125c0-4.140625 3.355469-7.496094 7.496094-7.496094 4.144531 0 7.5 3.355469 7.5 7.496094v12.453125c0 4.140625-3.355469 7.5-7.5 7.5zm0 0"/><path d="m110.277344 156.984375c-4.140625 0-7.5-3.359375-7.5-7.5v-12.453125c0-4.140625 3.359375-7.496094 7.5-7.496094 4.144531 0 7.5 3.355469 7.5 7.496094v12.453125c0 4.140625-3.355469 7.5-7.5 7.5zm0 0"/><path d="m334.648438 512c-8.808594 0-17.582032-2.535156-25.433594-7.582031l-94.046875-60.410157c-14.722657-9.457031-33.75-9.457031-48.476563 0l-94.046875 60.410157c-14.738281 9.46875-32.714843 10.105469-48.089843 1.707031-15.375-8.394531-24.554688-23.867188-24.554688-41.386719v-369.402343c0-52.570313 42.765625-95.335938 95.335938-95.335938h191.1875c52.566406 0 95.335937 42.765625 95.335937 95.335938v149.316406c0 4.144531-3.359375 7.5-7.5 7.5s-7.5-3.355469-7.5-7.5v-149.316406c0-44.296876-36.039063-80.335938-80.335937-80.335938h-191.1875c-44.296876 0-80.335938 36.039062-80.335938 80.335938v369.402343c0 11.949219 6.257812 22.5 16.742188 28.226563 10.484374 5.726562 22.746093 5.289062 32.796874-1.167969l94.046876-60.40625c19.644531-12.621094 45.039062-12.621094 64.6875 0l94.042968 60.40625c10.054688 6.457031 22.3125 6.894531 32.796875 1.167969 10.484375-5.726563 16.746094-16.277344 16.746094-28.226563v-186.40625c0-4.140625 3.355469-7.496093 7.496094-7.496093 4.144531 0 7.5 3.355468 7.5 7.496093v186.40625c0 17.519531-9.175781 32.992188-24.550781 41.386719-7.179688 3.925781-14.933594 5.875-22.65625 5.875zm0 0"/><path d="m190.929688 205.683594c-19.628907 0-35.597657-15.972656-35.597657-35.601563v-20.425781c0-8.367188 6.804688-15.171875 15.167969-15.171875h40.855469c8.367187 0 15.171875 6.804687 15.171875 15.171875v20.425781c0 19.632813-15.96875 35.601563-35.597656 35.601563zm-20.429688-56.199219c-.09375 0-.171875 20.601563-.171875 20.601563 0 11.355468 9.242187 20.597656 20.601563 20.597656 11.355468 0 20.597656-9.238282 20.597656-20.597656v-20.429688c0-.09375-41.027344-.171875-41.027344-.171875zm0 0"/></svg>