<svg height="512pt" viewBox="0 0 512 512" width="512pt" xmlns="http://www.w3.org/2000/svg"><path d="m315.042969 7.5h-235.523438c-39.777343 0-72.019531 32.242188-72.019531 72.019531v352.964844c0 39.773437 32.242188 72.015625 72.019531 72.015625h352.960938c39.777343 0 72.019531-32.242188 72.019531-72.015625v-235.527344c0-29.078125-11.550781-56.96875-32.113281-77.527343l-79.816407-79.816407c-20.558593-20.5625-48.449218-32.113281-77.527343-32.113281zm0 0" fill="#8ed7e8"/><path d="m182.566406 113.300781c-3.804687-59.359375 5.703125-90.308593 14.289063-105.800781h-117.335938c-39.777343 0-72.019531 32.242188-72.019531 72.015625v352.964844c0 39.777343 32.242188 72.019531 72.019531 72.019531h125.171875c21.710938-204.699219-16.25-299.550781-22.125-391.199219zm0 0" fill="#7ac1dd"/><path d="m157.199219 192.582031h160.578125c19.207031 0 34.777344-15.570312 34.777344-34.777343v-143.675782c-11.910157-4.339844-24.589844-6.628906-37.511719-6.628906h-192.617188v150.304688c0 19.207031 15.566407 34.777343 34.773438 34.777343zm0 0" fill="#eaeaea"/><path d="m367.707031 241.996094h-223.414062c-23.398438 0-42.367188 18.96875-42.367188 42.367187v220.136719h308.144531v-220.136719c.003907-23.398437-18.964843-42.367187-42.363281-42.367187zm0 0" fill="#ccf8ff"/><path d="m200.683594 241.996094h-56.390625c-23.398438 0-42.367188 18.96875-42.367188 42.367187v220.136719h102.765625c12.363282-116.550781 5.386719-197.496094-4.007812-262.503906zm0 0" fill="#abebf4"/><path d="m305.90625 192.582031v-113.203125c0-15.726562-12.75-28.480468-28.480469-28.480468h-39.363281c-15.726562 0-28.480469 12.753906-28.480469 28.480468v113.203125zm0 0" fill="#acabb1"/><path d="m347.523438 388.25h-183.046876c-8.285156 0-15-6.71875-15-15 0-8.285156 6.714844-15 15-15h183.046876c8.28125 0 15 6.714844 15 15 0 8.28125-6.714844 15-15 15zm0 0" fill="#c6c5ca"/><path d="m347.523438 316.621094h-183.046876c-8.285156 0-15-6.71875-15-15 0-8.285156 6.714844-15 15-15h183.046876c8.28125 0 15 6.714844 15 15 0 8.28125-6.714844 15-15 15zm0 0" fill="#c6c5ca"/><path d="m263.925781 459.878906h-99.449219c-8.28125 0-15-6.71875-15-15 0-8.285156 6.71875-15 15-15h99.449219c8.285157 0 15 6.714844 15 15 0 8.28125-6.714843 15-15 15zm0 0" fill="#c6c5ca"/><g fill="#acabb1"><path d="m210.347656 429.878906h-45.871094c-8.285156 0-15 6.714844-15 15 0 8.28125 6.714844 15 15 15h44.160157c.71875-10.296875 1.289062-20.296875 1.710937-30zm0 0"/><path d="m149.476562 373.25c0 8.28125 6.714844 15 15 15h46.851563c.035156-10.339844-.085937-20.335938-.351563-30h-46.5c-8.285156 0-15 6.714844-15 15zm0 0"/><path d="m206.269531 286.621094h-41.792969c-8.285156 0-15 6.714844-15 15 0 8.28125 6.714844 15 15 15h44.429688c-.746094-10.382813-1.636719-20.371094-2.636719-30zm0 0"/></g><path d="m182.566406 113.300781c-3.804687-59.359375 5.703125-90.308593 14.289063-105.800781h-74.433594v150.304688c0 19.207031 15.570313 34.777343 34.777344 34.777343h35.707031c-4.609375-28.191406-8.710938-53.859375-10.339844-79.28125zm0 0" fill="#d8d7da"/><path d="m477.691406 114.125-79.816406-79.8125c-22.121094-22.128906-51.539062-34.3125-82.832031-34.3125h-235.523438c-43.847656 0-79.519531 35.671875-79.519531 79.519531v352.964844c0 43.84375 35.671875 79.515625 79.519531 79.515625h352.964844c43.84375 0 79.515625-35.671875 79.515625-79.519531v-235.523438c0-31.292969-12.183594-60.707031-34.308594-82.832031zm-132.636718-94.664062v138.34375c0 15.039062-12.234376 27.277343-27.273438 27.277343h-100.699219v-105.703125c0-11.566406 9.414063-20.976562 20.980469-20.976562h39.363281c11.570313 0 20.980469 9.410156 20.980469 20.976562v79.691406c0 4.144532 3.359375 7.5 7.5 7.5 4.144531 0 7.5-3.355468 7.5-7.5v-79.691406c0-19.839844-16.140625-35.976562-35.980469-35.976562h-39.363281c-19.839844 0-35.980469 16.140625-35.980469 35.976562v105.703125h-44.882812c-15.039063 0-27.273438-12.238281-27.273438-27.277343v-142.804688h185.117188c10.324219 0 20.414062 1.523438 30.011719 4.460938zm151.945312 413.019531c0 35.578125-28.941406 64.519531-64.519531 64.519531h-14.910157v-212.636719c0-27.496093-22.367187-49.867187-49.863281-49.867187h-223.414062c-27.496094 0-49.863281 22.371094-49.863281 49.867187v187.675781c0 4.140626 3.355468 7.5 7.5 7.5 4.140624 0 7.5-3.359374 7.5-7.5v-187.675781c0-19.226562 15.640624-34.867187 34.863281-34.867187h223.414062c19.226563 0 34.863281 15.640625 34.863281 34.867187v212.636719h-323.050781c-35.578125 0-64.519531-28.941406-64.519531-64.519531v-352.960938c0-35.578125 28.941406-64.519531 64.519531-64.519531h35.40625v142.804688c0 23.3125 18.964844 42.277343 42.273438 42.277343h160.578125c23.3125 0 42.277344-18.964843 42.277344-42.277343v-132.402344c9.953124 4.894531 19.140624 11.441406 27.214843 19.515625l79.8125 79.8125c19.292969 19.292969 29.917969 44.941406 29.917969 72.226562zm0 0"/><path d="m164.476562 395.75h105.113282c4.144531 0 7.5-3.359375 7.5-7.5 0-4.144531-3.355469-7.5-7.5-7.5h-105.113282c-4.136718 0-7.5-3.363281-7.5-7.5s3.363282-7.5 7.5-7.5h183.046876c4.132812 0 7.5 3.363281 7.5 7.5s-3.367188 7.5-7.5 7.5h-43.945313c-4.140625 0-7.5 3.355469-7.5 7.5 0 4.140625 3.359375 7.5 7.5 7.5h43.945313c12.40625 0 22.5-10.09375 22.5-22.5s-10.09375-22.5-22.5-22.5h-183.046876c-12.40625 0-22.5 10.09375-22.5 22.5s10.09375 22.5 22.5 22.5zm0 0"/><path d="m164.476562 324.121094h183.046876c12.40625 0 22.5-10.09375 22.5-22.5s-10.09375-22.5-22.5-22.5h-183.046876c-12.40625 0-22.5 10.09375-22.5 22.5s10.09375 22.5 22.5 22.5zm0-30h183.046876c4.132812 0 7.5 3.363281 7.5 7.5 0 4.136718-3.367188 7.5-7.5 7.5h-183.046876c-4.136718 0-7.5-3.363282-7.5-7.5 0-4.136719 3.367188-7.5 7.5-7.5zm0 0"/><path d="m164.476562 467.378906h99.449219c12.402344 0 22.5-10.097656 22.5-22.5 0-12.40625-10.097656-22.5-22.5-22.5h-99.449219c-12.40625 0-22.5 10.09375-22.5 22.5 0 12.402344 10.09375 22.5 22.5 22.5zm0-30h99.449219c4.132813 0 7.5 3.363282 7.5 7.5 0 4.132813-3.367187 7.5-7.5 7.5h-99.449219c-4.136718 0-7.5-3.367187-7.5-7.5 0-4.136718 3.367188-7.5 7.5-7.5zm0 0"/></svg>