<svg height="512pt" viewBox="-66 0 512 512" width="512pt" xmlns="http://www.w3.org/2000/svg"><path d="m321.878906 504.5h-264.5c-27.546875 0-49.878906-22.332031-49.878906-49.878906v-366.101563c0-27.546875 22.332031-49.878906 49.878906-49.878906h264.5c27.546875 0 49.878906 22.332031 49.878906 49.878906v366.101563c0 27.546875-22.332031 49.878906-49.878906 49.878906zm0 0" fill="#ffdaaa"/><path d="m240.425781 38.640625h-183.046875c-27.546875 0-49.878906 22.332031-49.878906 49.878906v366.101563c0 27.546875 22.332031 49.878906 49.878906 49.878906h98.234375c-54.785156-154.859375-28.9375-216.445312 21.425781-301.75 30.691407-51.992188 51.230469-116.921875 63.386719-164.109375zm0 0" fill="#ffc477"/><path d="m81.953125 466.347656c-20.046875 0-36.300781-16.253906-36.300781-36.300781v-316.953125c0-20.046875 16.25-36.304688 36.300781-36.304688h215.347656c20.050781 0 36.304688 16.253907 36.304688 36.304688v316.953125c0 20.046875-16.253907 36.300781-36.304688 36.300781zm0 0" fill="#e9fdff"/><path d="m229.734375 76.789062h-147.78125c-20.046875 0-36.300781 16.253907-36.300781 36.304688v316.953125c0 20.046875 16.25 36.300781 36.300781 36.300781h61.222656c-37.691406-127.53125-12.144531-185.667968 33.863281-263.597656 23.035157-39.019531 40.351563-85.328125 52.695313-125.960938zm0 0" fill="#ccf8ff"/><path d="m236.835938 107.230469h-94.417969c-16.367188 0-29.640625-13.269531-29.640625-29.640625v-40.449219c0-16.371094 13.273437-29.640625 29.640625-29.640625h94.417969c16.371093 0 29.640624 13.269531 29.640624 29.640625v40.449219c0 16.371094-13.269531 29.640625-29.640624 29.640625zm0 0" fill="#d8d7da"/><path d="m179.90625 77.589844v-40.449219c0-16.371094 13.269531-29.640625 29.640625-29.640625h-67.128906c-16.371094 0-29.640625 13.269531-29.640625 29.640625v40.449219c0 16.371094 13.269531 29.640625 29.640625 29.640625h67.128906c-16.371094 0-29.640625-13.269531-29.640625-29.640625zm0 0" fill="#c6c5ca"/><path d="m150.644531 183.625h144.289063c4.144531 0 7.5-3.359375 7.5-7.5 0-4.144531-3.355469-7.5-7.5-7.5h-144.289063c-4.144531 0-7.5 3.355469-7.5 7.5 0 4.140625 3.355469 7.5 7.5 7.5zm0 0"/><path d="m150.644531 245.890625h144.289063c4.144531 0 7.5-3.359375 7.5-7.5 0-4.144531-3.355469-7.5-7.5-7.5h-144.289063c-4.144531 0-7.5 3.355469-7.5 7.5 0 4.140625 3.355469 7.5 7.5 7.5zm0 0"/><path d="m150.644531 308.152344h144.289063c4.144531 0 7.5-3.355469 7.5-7.5 0-4.140625-3.355469-7.5-7.5-7.5h-144.289063c-4.144531 0-7.5 3.359375-7.5 7.5 0 4.144531 3.355469 7.5 7.5 7.5zm0 0"/><path d="m150.644531 370.421875h144.289063c4.144531 0 7.5-3.359375 7.5-7.5 0-4.144531-3.355469-7.5-7.5-7.5h-144.289063c-4.144531 0-7.5 3.355469-7.5 7.5 0 4.140625 3.355469 7.5 7.5 7.5zm0 0"/><path d="m98.214844 322.046875c11.796875 0 21.394531-9.597656 21.394531-21.394531 0-11.792969-9.597656-21.390625-21.394531-21.390625s-21.394532 9.597656-21.394532 21.390625c0 11.796875 9.597657 21.394531 21.394532 21.394531zm0-27.785156c3.523437 0 6.394531 2.867187 6.394531 6.394531 0 3.523438-2.867187 6.394531-6.394531 6.394531-3.523438 0-6.394532-2.871093-6.394532-6.394531 0-3.527344 2.871094-6.394531 6.394532-6.394531zm0 0"/><path d="m98.214844 384.3125c11.796875 0 21.394531-9.59375 21.394531-21.390625s-9.597656-21.394531-21.394531-21.394531-21.394532 9.597656-21.394532 21.394531 9.597657 21.390625 21.394532 21.390625zm0-27.785156c3.523437 0 6.394531 2.867187 6.394531 6.390625 0 3.527343-2.867187 6.394531-6.394531 6.394531-3.523438 0-6.394532-2.867188-6.394532-6.394531 0-3.523438 2.871094-6.390625 6.394532-6.390625zm0 0"/><path d="m81.648438 242.257812 11.261718 11.261719c1.414063 1.410157 3.320313 2.195313 5.304688 2.195313.179687 0 .363281-.003906.542968-.019532 2.175782-.15625 4.171876-1.253906 5.472657-3l14.640625-19.652343c2.476562-3.320313 1.789062-8.019531-1.53125-10.496094-3.324219-2.472656-8.023438-1.789063-10.496094 1.535156l-9.457031 12.695313-5.128907-5.128906c-2.929687-2.925782-7.679687-2.925782-10.609374 0-2.929688 2.929687-2.929688 7.679687 0 10.609374zm0 0"/><path d="m92.910156 191.253906c1.414063 1.410156 3.320313 2.195313 5.304688 2.195313.179687 0 .363281-.007813.542968-.019531 2.175782-.15625 4.171876-1.253907 5.472657-3l14.640625-19.652344c2.476562-3.320313 1.789062-8.019532-1.53125-10.496094-3.324219-2.472656-8.023438-1.789062-10.496094 1.535156l-9.457031 12.695313-5.128907-5.128907c-2.929687-2.929687-7.679687-2.929687-10.609374 0-2.925782 2.929688-2.925782 7.679688 0 10.605469zm0 0"/><path d="m321.878906 31.140625h-23.078125c-4.140625 0-7.5 3.355469-7.5 7.5 0 4.140625 3.359375 7.5 7.5 7.5h23.078125c23.367188 0 42.378906 19.011719 42.378906 42.378906v366.101563c0 23.367187-19.011718 42.378906-42.378906 42.378906h-264.5c-23.367187 0-42.378906-19.011719-42.378906-42.378906v-366.101563c0-23.367187 19.011719-42.378906 42.378906-42.378906h47.898438v23.148437h-23.324219c-24.152344 0-43.800781 19.652344-43.800781 43.804688v265.792969c0 4.144531 3.355468 7.5 7.5 7.5 4.140625 0 7.5-3.355469 7.5-7.5v-265.792969c0-15.882812 12.917968-28.804688 28.800781-28.804688h23.941406c3.167969 17.292969 18.332031 30.441407 36.523438 30.441407h94.417969c18.191406 0 33.359374-13.148438 36.523437-30.441407h23.941406c15.882813 0 28.804688 12.921876 28.804688 28.804688v316.953125c0 15.878906-12.921875 28.800781-28.804688 28.800781h-215.347656c-15.882813 0-28.800781-12.921875-28.800781-28.800781v-18.339844c0-4.140625-3.359375-7.5-7.5-7.5-4.144532 0-7.5 3.359375-7.5 7.5v18.339844c0 24.152344 19.648437 43.800781 43.800781 43.800781h215.347656c24.152344 0 43.804688-19.648437 43.804688-43.800781v-316.953125c0-24.152344-19.652344-43.804688-43.804688-43.804688h-23.324219v-32.148437c0-20.480469-16.660156-37.140625-37.140624-37.140625h-94.417969c-18.433594 0-33.769531 13.503906-36.648438 31.140625h-48.390625c-31.640625 0-57.378906 25.738281-57.378906 57.378906v366.101563c0 31.640625 25.738281 57.378906 57.378906 57.378906h264.5c31.636719 0 57.378906-25.738281 57.378906-57.378906v-366.101563c0-31.640625-25.742187-57.378906-57.378906-57.378906zm-201.601562 6c0-12.207031 9.933594-22.140625 22.140625-22.140625h94.417969c12.210937 0 22.140624 9.933594 22.140624 22.140625v40.449219c0 12.210937-9.929687 22.140625-22.140624 22.140625h-94.417969c-12.207031 0-22.140625-9.929688-22.140625-22.140625zm0 0"/></svg>