<svg height="512pt" viewBox="0 -92 512 512" width="512pt" xmlns="http://www.w3.org/2000/svg"><path d="m349.960938 208.941406h-298.679688c-24.179688 0-43.78125-19.601562-43.78125-43.78125v-113.878906c0-24.179688 19.601562-43.78125 43.78125-43.78125h298.679688c24.179687 0 43.78125 19.601562 43.78125 43.78125v113.878906c0 24.179688-19.601563 43.78125-43.78125 43.78125zm0 0" fill="#86d7ea"/><path d="m332.96875 108.222656h-325.46875v57.070313c0 24.105469 19.542969 43.648437 43.648438 43.648437h298.945312c9.980469 0 19.171875-3.355468 26.523438-8.992187v-48.078125c0-24.105469-19.542969-43.648438-43.648438-43.648438zm0 0" fill="#71c5e2"/><path d="m405.472656 264.320312h-298.945312c-24.105469 0-43.648438-19.542968-43.648438-43.648437v-114.144531c0-24.105469 19.542969-43.648438 43.648438-43.648438h298.945312c24.105469 0 43.648438 19.542969 43.648438 43.648438v114.144531c0 24.105469-19.542969 43.648437-43.648438 43.648437zm0 0" fill="#a2e5f4"/><path d="m388.347656 163.601562h-325.46875v57.070313c0 24.105469 19.542969 43.648437 43.648438 43.648437h298.945312c9.976563 0 19.171875-3.355468 26.523438-8.992187v-48.078125c0-24.105469-19.542969-43.648438-43.648438-43.648438zm0 0" fill="#86d7ea"/><path d="m460.851562 319.699219h-298.945312c-24.105469 0-43.648438-19.542969-43.648438-43.648438v-114.144531c0-24.105469 19.542969-43.648438 43.648438-43.648438h298.945312c24.105469 0 43.648438 19.542969 43.648438 43.648438v114.144531c0 24.105469-19.542969 43.648438-43.648438 43.648438zm0 0" fill="#ccf8ff"/><path d="m192.058594 276.050781v-114.144531c0-24.105469 19.542968-43.648438 43.652344-43.648438h-73.804688c-24.105469 0-43.648438 19.542969-43.648438 43.648438v114.144531c0 24.105469 19.542969 43.648438 43.648438 43.648438h73.804688c-24.109376 0-43.652344-19.542969-43.652344-43.648438zm0 0" fill="#b7f3f9"/><path d="m217.28125 178.789062c0 17.535157-14.210938 31.746094-31.746094 31.746094-17.53125 0-31.746094-14.210937-31.746094-31.746094 0-17.53125 14.214844-31.746093 31.746094-31.746093 17.535156 0 31.746094 14.214843 31.746094 31.746093zm0 0" fill="#b2e59c"/><path d="m339.046875 196.183594h-71.320313c-9.566406 0-17.394531-7.828125-17.394531-17.394532 0-9.566406 7.828125-17.394531 17.394531-17.394531h71.320313c9.566406 0 17.394531 7.828125 17.394531 17.394531 0 9.566407-7.828125 17.394532-17.394531 17.394532zm0 0" fill="#d8d7da"/><g fill="#ffde55"><path d="m459.15625 266.335938c0 9.828124-7.964844 17.792968-17.789062 17.792968-9.824219 0-17.792969-7.964844-17.792969-17.792968 0-9.824219 7.96875-17.789063 17.792969-17.789063 9.824218 0 17.789062 7.964844 17.789062 17.789063zm0 0"/><path d="m392.023438 266.335938c0 9.828124-7.964844 17.792968-17.792969 17.792968-9.824219 0-17.789063-7.964844-17.789063-17.792968 0-9.824219 7.964844-17.789063 17.789063-17.789063 9.828125 0 17.792969 7.964844 17.792969 17.789063zm0 0"/><path d="m324.886719 266.335938c0 9.828124-7.964844 17.792968-17.789063 17.792968-9.828125 0-17.792968-7.964844-17.792968-17.792968 0-9.824219 7.964843-17.789063 17.792968-17.789063 9.824219 0 17.789063 7.964844 17.789063 17.789063zm0 0"/></g><path d="m420.28125 198.878906c1.464844 1.464844 6.617188 4.082032 10.609375 0l9.480469-9.480468 9.480468 9.480468c4.484376 3.9375 9.144532 1.464844 10.609376 0 2.925781-2.929687 2.925781-7.679687 0-10.605468l-9.484376-9.484376 9.484376-9.480468c2.925781-2.929688 2.925781-7.679688 0-10.609375-2.929688-2.925781-7.679688-2.925781-10.609376 0l-9.480468 9.484375-9.480469-9.484375c-2.929687-2.925781-7.679687-2.925781-10.609375 0-2.929688 2.933593-2.929688 7.679687 0 10.609375l9.484375 9.480468-9.484375 9.484376c-2.929688 2.929687-2.929688 7.675781 0 10.605468zm0 0"/><path d="m456.621094 110.757812s1.6875-55.378906-55.378906-55.378906c0 0-.230469-55.378906-51.277344-55.378906h-298.683594c-28.277344 0-51.28125 23.003906-51.28125 51.28125v113.878906c0 52.875 55.378906 51.28125 55.378906 51.28125s-.871094 33.871094 26.898438 49.277344c5.421875 3.007812 8.808594-.53125 10.160156-3.042969 1.96875-3.648437.605469-8.195312-3.039062-10.160156-11.734376-6.328125-19.019532-18.53125-19.019532-31.84375v-114.144531c0-19.933594 16.214844-36.148438 36.148438-36.148438h217.410156c4.140625 0 7.5-3.355468 7.5-7.5 0-4.144531-3.359375-7.5-7.5-7.5h-217.410156c-28.203125 0-51.148438 22.945313-51.148438 51.148438v94.914062s-40.378906-.160156-40.378906-36.28125v-113.878906c0-20.003906 16.277344-36.28125 36.28125-36.28125h298.679688c38.015624 0 36.28125 40.378906 36.28125 40.378906h-27.972657c-4.140625 0-7.5 3.355469-7.5 7.5 0 4.144532 3.359375 7.5 7.5 7.5h47.203125c40.121094 1.007813 36.148438 40.378906 36.148438 40.378906h-279.714844c-28.203125 0-51.148438 22.945313-51.148438 51.148438v114.144531c0 28.203125 22.945313 51.148438 51.148438 51.148438h298.945312c28.203126 0 51.148438-22.945313 51.148438-51.148438v-114.144531s0-51.148438-55.378906-51.148438zm40.378906 165.292969c0 19.933594-16.21875 36.148438-36.148438 36.148438h-298.945312c-19.933594 0-36.148438-16.21875-36.148438-36.148438v-114.144531c0-19.933594 16.214844-36.148438 36.148438-36.148438h298.945312c19.929688 0 36.148438 16.21875 36.148438 36.148438zm0 0"/><path d="m185.535156 139.542969c-21.640625 0-39.246094 17.605469-39.246094 39.246093 0 21.640626 17.605469 39.246094 39.246094 39.246094s39.246094-17.605468 39.246094-39.246094c0-21.640624-17.605469-39.246093-39.246094-39.246093zm0 63.492187c-13.367187 0-24.246094-10.875-24.246094-24.246094 0-13.367187 10.878907-24.242187 24.246094-24.242187 13.371094 0 24.246094 10.875 24.246094 24.242187 0 13.371094-10.875 24.246094-24.246094 24.246094zm0 0"/><path d="m363.941406 178.789062c0-13.726562-11.167968-24.894531-24.894531-24.894531h-71.320313c-13.726562 0-24.894531 11.167969-24.894531 24.894531 0 13.726563 11.164063 24.894532 24.894531 24.894532h71.320313c13.726563 0 24.894531-11.167969 24.894531-24.894532zm-24.894531 9.894532h-71.320313c-5.457031 0-9.894531-4.4375-9.894531-9.894532 0-5.453124 4.4375-9.894531 9.894531-9.894531h71.320313c5.457031 0 9.894531 4.441407 9.894531 9.894531 0 5.457032-4.4375 9.894532-9.894531 9.894532zm0 0"/><path d="m441.367188 241.046875c-13.945313 0-25.292969 11.34375-25.292969 25.289063 0 13.945312 11.347656 25.292968 25.292969 25.292968 13.945312 0 25.289062-11.347656 25.289062-25.292968 0-13.945313-11.34375-25.289063-25.289062-25.289063zm0 35.582031c-5.675782 0-10.292969-4.617187-10.292969-10.292968 0-5.675782 4.617187-10.289063 10.292969-10.289063 5.675781 0 10.289062 4.613281 10.289062 10.289063 0 5.675781-4.617188 10.292968-10.289062 10.292968zm0 0"/><path d="m374.230469 241.046875c-13.945313 0-25.289063 11.34375-25.289063 25.289063 0 13.945312 11.34375 25.292968 25.289063 25.292968 13.945312 0 25.292969-11.347656 25.292969-25.292968 0-13.945313-11.34375-25.289063-25.292969-25.289063zm0 35.582031c-5.671875 0-10.289063-4.617187-10.289063-10.292968 0-5.675782 4.617188-10.289063 10.289063-10.289063 5.675781 0 10.292969 4.613281 10.292969 10.289063 0 5.675781-4.617188 10.292968-10.292969 10.292968zm0 0"/><path d="m307.097656 241.046875c-13.945312 0-25.292968 11.34375-25.292968 25.289063 0 13.945312 11.347656 25.292968 25.292968 25.292968 13.945313 0 25.292969-11.347656 25.292969-25.292968-.003906-13.945313-11.347656-25.289063-25.292969-25.289063zm0 35.582031c-5.675781 0-10.292968-4.617187-10.292968-10.292968 0-5.675782 4.617187-10.289063 10.292968-10.289063 5.675782 0 10.292969 4.613281 10.292969 10.289063 0 5.675781-4.621094 10.292968-10.292969 10.292968zm0 0"/></svg>