<svg height="512pt" viewBox="0 -94 512 512" width="512pt" xmlns="http://www.w3.org/2000/svg"><path d="m162.21875 316.941406h187.5625v-309.441406h-187.5625c-85.449219 0-154.71875 69.269531-154.71875 154.722656 0 85.449219 69.269531 154.71875 154.71875 154.71875zm0 0" fill="#b2e59c"/><path d="m162.21875 316.941406h187.5625v-309.441406h-162.976562c-39.863282 41.933594-61.746094 96.644531-61.746094 154.722656 0 10.664063 2.167968 26.207032 4.335937 39.085938 3.722657 22.117187-.53125 44.90625-12.214843 64.046875-6.851563 11.226562-16.351563 22.945312-29.332032 32.570312 22.066406 12.121094 47.417969 19.015625 74.371094 19.015625zm0 0" fill="#9ad880"/><path d="m504.5 162.222656c0 85.449219-69.269531 154.71875-154.71875 154.71875-85.453125 0-154.722656-69.269531-154.722656-154.71875 0-85.453125 69.269531-154.722656 154.722656-154.722656 85.449219 0 154.71875 69.269531 154.71875 154.722656zm0 0" fill="#ccf8ff"/><path d="m422.9375 152.070312v12.449219c0 4.140625 3.355469 7.5 7.5 7.5 4.140625 0 7.5-3.359375 7.5-7.5v-12.449219c0-4.144531-3.359375-7.5-7.5-7.5-4.144531 0-7.5 3.355469-7.5 7.5zm0 0"/><path d="m261.621094 152.070312v12.449219c0 4.140625 3.359375 7.5 7.5 7.5 4.144531 0 7.5-3.359375 7.5-7.5v-12.449219c0-4.144531-3.355469-7.5-7.5-7.5-4.140625 0-7.5 3.355469-7.5 7.5zm0 0"/><path d="m368.101562 158.597656c-10.789062 8.367188-25.855468 8.367188-36.640624 0-3.273438-2.539062-7.988282-1.945312-10.523438 1.328125-2.539062 3.273438-1.945312 7.984375 1.328125 10.523438 8.101563 6.285156 17.808594 9.425781 27.515625 9.425781s19.414062-3.140625 27.511719-9.425781c3.273437-2.539063 3.867187-7.25 1.328125-10.523438-2.535156-3.273437-7.25-3.867187-10.519532-1.328125zm0 0"/><path d="m477.808594 62.585938c-2.546875-3.265626-7.261719-3.851563-10.527344-1.304688s-3.851562 7.257812-1.304688 10.527344c20.296876 26.046875 31.023438 57.308594 31.023438 90.414062 0 81.175782-66.042969 147.21875-147.222656 147.21875-81.175782 0-147.21875-66.042968-147.21875-147.21875 0-81.179687 66.042968-147.222656 147.21875-147.222656 34.132812 0 67.398437 11.945312 93.667968 33.636719 3.195313 2.636719 7.921876 2.183593 10.558594-1.007813 2.640625-3.195312 2.1875-7.925781-1.007812-10.5625-28.953125-23.902344-65.609375-37.066406-103.21875-37.066406h-187.558594c-89.449219 0-162.21875 72.773438-162.21875 162.222656 0 89.449219 72.769531 162.21875 162.21875 162.21875h10.816406c4.144532 0 7.5-3.355468 7.5-7.5 0-4.140625-3.355468-7.5-7.5-7.5h-10.816406c-81.175781 0-147.21875-66.042968-147.21875-147.21875 0-81.179687 66.042969-147.222656 147.21875-147.222656h119.476562c-55.53125 25.785156-94.136718 82.074219-94.136718 147.222656 0 65.144532 38.605468 121.433594 94.136718 147.21875h-74.554687c-4.144531 0-7.5 3.359375-7.5 7.5 0 4.144532 3.355469 7.5 7.5 7.5h142.636719c89.449218 0 162.222656-72.769531 162.222656-162.21875 0-36.476562-11.824219-70.929687-34.191406-99.636718zm0 0"/></svg>