<svg height="511pt" viewBox="1 -55 511.999 511" width="511pt" xmlns="http://www.w3.org/2000/svg"><path d="m461.183594 394.085938h-410.367188c-23.921875 0-43.316406-19.394532-43.316406-43.316407v-299.453125c0-23.925781 19.394531-43.316406 43.316406-43.316406h410.367188c23.921875 0 43.316406 19.390625 43.316406 43.316406v299.453125c0 23.921875-19.394531 43.316407-43.316406 43.316407zm0 0" fill="#ccf8ff"/><path d="m119.152344 350.769531v-299.453125c0-23.925781 19.394531-43.316406 43.316406-43.316406h-111.652344c-23.921875 0-43.316406 19.394531-43.316406 43.316406v299.453125c0 23.921875 19.394531 43.316407 43.316406 43.316407h111.652344c-23.921875 0-43.316406-19.394532-43.316406-43.316407zm0 0" fill="#abebf4"/><path d="m461.183594 8h-410.367188c-23.921875 0-43.316406 19.394531-43.316406 43.316406v44.128906h497v-44.128906c0-23.921875-19.394531-43.316406-43.316406-43.316406zm0 0" fill="#d8d7da"/><path d="m162.46875 8h-111.652344c-23.921875 0-43.316406 19.394531-43.316406 43.316406v44.128906h111.652344v-44.128906c0-23.921875 19.394531-43.316406 43.316406-43.316406zm0 0" fill="#c6c5ca"/><path d="m81.699219 51.722656c0 8.292969-6.722657 15.019532-15.019531 15.019532-8.296876 0-15.023438-6.726563-15.023438-15.019532 0-8.296875 6.726562-15.023437 15.023438-15.023437 8.296874 0 15.019531 6.726562 15.019531 15.023437zm0 0" fill="#ff929f"/><path d="m141.832031 51.722656c0 8.292969-6.726562 15.019532-15.019531 15.019532-8.296875 0-15.023438-6.726563-15.023438-15.019532 0-8.296875 6.726563-15.023437 15.023438-15.023437 8.292969 0 15.019531 6.726562 15.019531 15.023437zm0 0" fill="#ffeb99"/><path d="m201.964844 51.722656c0 8.292969-6.726563 15.019532-15.023438 15.019532-8.292968 0-15.019531-6.726563-15.019531-15.019532 0-8.296875 6.726563-15.023437 15.019531-15.023437 8.296875 0 15.023438 6.726562 15.023438 15.023437zm0 0" fill="#9ad880"/><path d="m97.433594 187.742188c0 12.40625-10.058594 22.464843-22.464844 22.464843s-22.460938-10.058593-22.460938-22.464843 10.054688-22.460938 22.460938-22.460938 22.464844 10.054688 22.464844 22.460938zm0 0" fill="#9ad880"/><path d="m150.035156 301.785156c0 12.40625-10.058594 22.464844-22.464844 22.464844s-22.460937-10.058594-22.460937-22.464844 10.054687-22.460937 22.460937-22.460937 22.464844 10.054687 22.464844 22.460937zm0 0" fill="#b2e59c"/><path d="m105.109375 301.785156c0 9.429688 5.808594 17.5 14.042969 20.832032v-41.664063c-8.234375 3.332031-14.042969 11.40625-14.042969 20.832031zm0 0" fill="#9ad880"/><g fill="#b2e59c"><path d="m221 210.207031c0 12.40625-10.058594 22.460938-22.464844 22.460938s-22.460937-10.054688-22.460937-22.460938 10.054687-22.464843 22.460937-22.464843 22.464844 10.058593 22.464844 22.464843zm0 0"/><path d="m304.308594 301.785156c0 12.40625-10.054688 22.464844-22.460938 22.464844s-22.464844-10.058594-22.464844-22.464844 10.058594-22.460937 22.464844-22.460937 22.460938 10.054687 22.460938 22.460937zm0 0"/><path d="m437.234375 187.742188h-66.234375c-12.292969 0-22.257812-9.964844-22.257812-22.257813s9.964843-22.261719 22.257812-22.261719h66.234375c12.292969 0 22.257813 9.96875 22.257813 22.261719s-9.964844 22.257813-22.257813 22.257813zm0 0"/></g><path d="m437.234375 267.023438h-66.234375c-12.292969 0-22.257812-9.964844-22.257812-22.257813 0-12.296875 9.964843-22.261719 22.257812-22.261719h66.234375c12.292969 0 22.257813 9.964844 22.257813 22.261719 0 12.292969-9.964844 22.257813-22.257813 22.257813zm0 0" fill="#d8d7da"/><path d="m437.234375 346.304688h-66.234375c-12.292969 0-22.257812-9.964844-22.257812-22.261719 0-12.292969 9.964843-22.257813 22.257812-22.257813h66.234375c12.292969 0 22.257813 9.964844 22.257813 22.257813 0 12.296875-9.964844 22.261719-22.257813 22.261719zm0 0" fill="#d8d7da"/><path d="m461.183594.5h-410.367188c-28.019531 0-50.816406 22.796875-50.816406 50.816406v299.453125c0 28.019531 22.796875 50.816407 50.816406 50.816407h410.367188c28.019531 0 50.816406-22.796876 50.816406-50.816407v-299.453125c0-28.019531-22.796875-50.816406-50.816406-50.816406zm0 386.085938h-410.367188c-19.75 0-35.816406-16.066407-35.816406-35.816407v-299.453125c0-19.75 16.066406-35.816406 35.816406-35.816406h410.367188c19.75 0 35.816406 16.066406 35.816406 35.816406v36.628906h-456.933594c-4.144531 0-7.5 3.355469-7.5 7.5 0 4.140626 3.355469 7.5 7.5 7.5h456.933594v247.824219c0 19.75-16.066406 35.816407-35.816406 35.816407zm0 0"/><path d="m66.679688 74.242188c12.417968 0 22.519531-10.101563 22.519531-22.519532 0-12.417968-10.101563-22.523437-22.519531-22.523437-12.417969 0-22.523438 10.105469-22.523438 22.523437 0 12.417969 10.105469 22.519532 22.523438 22.519532zm0-30.042969c4.144531 0 7.519531 3.375 7.519531 7.523437 0 4.144532-3.371094 7.519532-7.519531 7.519532-4.148438 0-7.523438-3.375-7.523438-7.519532 0-4.148437 3.375-7.523437 7.523438-7.523437zm0 0"/><path d="m126.8125 74.242188c12.417969 0 22.519531-10.101563 22.519531-22.519532 0-12.417968-10.101562-22.519531-22.519531-22.519531s-22.523438 10.101563-22.523438 22.519531c0 12.417969 10.105469 22.519532 22.523438 22.519532zm0-30.042969c4.144531 0 7.519531 3.375 7.519531 7.523437 0 4.144532-3.371093 7.519532-7.519531 7.519532s-7.523438-3.375-7.523438-7.519532c0-4.148437 3.375-7.523437 7.523438-7.523437zm0 0"/><path d="m186.941406 74.242188c12.417969 0 22.523438-10.101563 22.523438-22.519532 0-12.417968-10.105469-22.519531-22.523438-22.519531-12.417968 0-22.519531 10.101563-22.519531 22.519531 0 12.417969 10.101563 22.519532 22.519531 22.519532zm0-30.042969c4.148438 0 7.523438 3.375 7.523438 7.523437 0 4.144532-3.375 7.519532-7.523438 7.519532-4.144531 0-7.519531-3.375-7.519531-7.519532 0-4.148437 3.375-7.523437 7.519531-7.523437zm0 0"/><path d="m281.847656 271.824219c-5.042968 0-9.792968 1.253906-13.96875 3.464843l-44.285156-48.683593c3.097656-4.71875 4.90625-10.351563 4.90625-16.402344 0-16.519531-13.441406-29.960937-29.964844-29.960937-16.519531 0-29.960937 13.441406-29.960937 29.960937 0 6.898437 2.347656 13.253906 6.277343 18.320313l-35.445312 45.742187c-5.875-3.066406-15.441406-2.269531-17.171875-1.957031l-28.3125-61.378906c6.714844-5.5 11.007813-13.851563 11.007813-23.1875 0-16.519532-13.441407-29.960938-29.960938-29.960938-16.523438 0-29.964844 13.4375-29.964844 29.960938 0 16.523437 13.15625 32.6875 35.300782 29.476562l28.308593 61.378906c-6.710937 5.5-11.007812 13.851563-11.007812 23.1875 0 16.523438 13.441406 29.964844 29.964843 29.964844 16.519532 0 29.960938-13.441406 29.960938-29.964844 0-6.894531-2.347656-13.25-6.277344-18.320312l35.445313-45.738282c3.632812 1.566407 14.074219 5.296876 25.800781-1.023437l44.285156 48.683594c-3.09375 4.714843-4.902344 10.347656-4.902344 16.398437 0 16.523438 13.441407 29.964844 29.960938 29.964844 16.523438 0 29.964844-13.441406 29.964844-29.964844 0-16.519531-13.441406-29.960937-29.960938-29.960937zm-221.839844-84.082031c0-8.25 6.710938-14.960938 14.960938-14.960938s14.964844 6.710938 14.964844 14.960938-6.714844 14.964843-14.964844 14.964843-14.960938-6.714843-14.960938-14.964843zm67.5625 129.007812c-8.25 0-14.960937-6.714844-14.960937-14.964844s6.710937-14.960937 14.960937-14.960937 14.960938 6.710937 14.960938 14.960937-6.710938 14.964844-14.960938 14.964844zm56.003907-106.542969c0-8.253906 6.710937-14.964843 14.960937-14.964843s14.964844 6.710937 14.964844 14.964843c0 8.25-6.714844 14.960938-14.964844 14.960938s-14.960937-6.710938-14.960937-14.960938zm98.273437 106.542969c-8.253906 0-14.964844-6.714844-14.964844-14.964844s6.710938-14.960937 14.964844-14.960937c8.25 0 14.960938 6.710937 14.960938 14.960937s-6.710938 14.964844-14.960938 14.964844zm0 0"/><path d="m437.234375 135.722656h-66.234375c-16.40625 0-29.757812 13.351563-29.757812 29.761719s13.351562 29.757813 29.757812 29.757813h66.234375c16.410156 0 29.757813-13.351563 29.757813-29.757813 0-16.410156-13.347657-29.761719-29.757813-29.761719zm0 44.519532h-66.234375c-8.136719 0-14.757812-6.621094-14.757812-14.757813 0-8.140625 6.621093-14.761719 14.757812-14.761719h66.234375c8.136719 0 14.757813 6.621094 14.757813 14.761719 0 8.136719-6.621094 14.757813-14.757813 14.757813zm0 0"/><path d="m437.234375 215.003906h-66.234375c-16.40625 0-29.757812 13.351563-29.757812 29.761719 0 16.40625 13.351562 29.757813 29.757812 29.757813h66.234375c16.410156 0 29.757813-13.351563 29.757813-29.757813 0-16.410156-13.347657-29.761719-29.757813-29.761719zm0 44.519532h-66.234375c-8.136719 0-14.757812-6.621094-14.757812-14.757813 0-8.140625 6.621093-14.761719 14.757812-14.761719h66.234375c8.136719 0 14.757813 6.621094 14.757813 14.761719 0 8.136719-6.621094 14.757813-14.757813 14.757813zm0 0"/><path d="m437.234375 294.285156h-66.234375c-16.40625 0-29.757812 13.351563-29.757812 29.761719 0 16.40625 13.351562 29.757813 29.757812 29.757813h24.152344c4.144531 0 7.5-3.355469 7.5-7.5 0-4.140626-3.355469-7.5-7.5-7.5h-24.152344c-8.136719 0-14.757812-6.621094-14.757812-14.757813 0-8.140625 6.621093-14.761719 14.757812-14.761719h66.234375c8.136719 0 14.757813 6.621094 14.757813 14.761719 0 8.136719-6.621094 14.757813-14.757813 14.757813h-8.328125c-4.140625 0-7.5 3.359374-7.5 7.5 0 4.144531 3.359375 7.5 7.5 7.5h8.328125c16.410156 0 29.757813-13.351563 29.757813-29.757813 0-16.410156-13.347657-29.761719-29.757813-29.761719zm0 0"/></svg>