<svg height="512pt" viewBox="0 -127 512 512" width="512pt" xmlns="http://www.w3.org/2000/svg"><path d="m383.027344 250.445312h-254.054688c-67.085937 0-121.472656-54.382812-121.472656-121.472656 0-67.085937 54.386719-121.472656 121.472656-121.472656h254.054688c67.085937 0 121.472656 54.386719 121.472656 121.472656 0 67.089844-54.386719 121.472656-121.472656 121.472656zm0 0" fill="#ffa5b5"/><path d="m218.816406 7.5h-89.84375c-67.085937 0-121.472656 54.386719-121.472656 121.472656 0 67.089844 54.386719 121.472656 121.472656 121.472656h148.148438c-46.140625-37.394531-117.1875-40.871093-123.285156-121.472656-7.726563-102.121094 64.980468-121.472656 64.980468-121.472656zm0 0" fill="#ff929f"/><path d="m416.816406 135.070312c-3.375-3.375-3.375-8.847656 0-12.222656l23.207032-23.210937c6.027343-6.027344 5.855468-15.910157-.523438-21.714844-5.976562-5.433594-15.277344-4.910156-20.988281.800781l-22.910157 22.910156c-3.375 3.375-8.847656 3.375-12.222656 0l-23.210937-23.210937c-5.855469-5.859375-15.355469-5.855469-21.210938 0-5.859375 5.859375-5.859375 15.355469 0 21.214844l23.207031 23.210937c3.375 3.375 3.375 8.847656 0 12.222656l-23.207031 23.210938c-5.859375 5.855469-5.859375 15.355469 0 21.210938 2.929688 2.929687 12.574219 7.917968 21.210938 0l23.210937-23.207032c3.375-3.378906 8.847656-3.378906 12.222656 0l23.210938 23.207032c9.398438 8.285156 18.28125 2.929687 21.210938 0 5.859374-5.855469 5.859374-15.355469 0-21.210938zm0 0" fill="#fff"/><path d="m168.546875 163.300781c-15.519531 0-28.101563-12.582031-28.101563-28.101562v-20.429688c0-4.234375 3.433594-7.667969 7.671876-7.667969h40.859374c4.238282 0 7.671876 3.433594 7.671876 7.667969v20.429688c-.003907 15.519531-12.582032 28.101562-28.101563 28.101562zm0 0" fill="#57565c"/><path d="m104.523438 135.199219c0-13.183594-13.417969-23.867188-29.972657-23.867188-16.554687 0-29.972656 10.683594-29.972656 23.867188 0 13.183593 13.417969 23.871093 29.972656 23.871093 16.554688 0 29.972657-10.6875 29.972657-23.871093zm0 0" fill="#fff"/><path d="m292.515625 135.199219c0-13.183594-13.421875-23.867188-29.972656-23.867188-16.554688 0-29.972657 10.683594-29.972657 23.867188 0 13.183593 13.417969 23.871093 29.972657 23.871093 16.550781 0 29.972656-10.6875 29.972656-23.871093zm0 0" fill="#fff"/><path d="m256.703125 114.597656v-12.449218c0-4.144532-3.355469-7.5-7.5-7.5-4.140625 0-7.5 3.355468-7.5 7.5v12.449218c0 4.140625 3.359375 7.5 7.5 7.5 4.144531 0 7.5-3.359375 7.5-7.5zm0 0"/><path d="m95.390625 114.597656v-12.449218c0-4.144532-3.359375-7.5-7.5-7.5-4.144531 0-7.5 3.355468-7.5 7.5v12.449218c0 4.140625 3.355469 7.5 7.5 7.5 4.140625 0 7.5-3.359375 7.5-7.5zm0 0"/><path d="m383.027344 0h-254.054688c-25.789062 0-50.683594 7.589844-71.988281 21.945312-3.4375 2.316407-4.34375 6.976563-2.03125 10.410157 2.316406 3.4375 6.976563 4.34375 10.410156 2.03125 18.820313-12.683594 40.816407-19.386719 63.609375-19.386719h254.054688c62.84375 0 113.972656 51.128906 113.972656 113.972656 0 62.847656-51.128906 113.976563-113.972656 113.976563h-254.054688c-62.84375 0-113.972656-51.128907-113.972656-113.976563 0-26.574218 9.34375-52.445312 26.308594-72.839844 2.648437-3.183593 2.214844-7.914062-.96875-10.5625-3.183594-2.648437-7.914063-2.214843-10.5625.96875-19.203125 23.085938-29.777344 52.359376-29.777344 82.433594 0 71.117188 57.855469 128.976563 128.972656 128.976563h254.054688c71.117187 0 128.972656-57.859375 128.972656-128.976563 0-71.113281-57.855469-128.972656-128.972656-128.972656zm0 0"/><path d="m333.652344 152.976562c-12.246094 14.476563-4.25 27.570313 0 31.820313 6.320312 6.320313 19.648437 10.566406 31.820312 0 0 0 23.800782-23.542969 24.015625-23.542969.21875 0 4.207031 3.730469 4.207031 3.730469 2.929688 2.925781 7.675782 2.925781 10.605469 0 2.929688-2.929687 2.929688-7.679687 0-10.605469l-3.394531-3.398437c-3.050781-3.050781-7.105469-4.726563-11.417969-4.726563-4.308593 0-8.363281 1.679688-11.414062 4.726563l-23.078125 23.078125c-5.398438 4.824218-10.691406.183594-10.738282.128906-3.832031-4.480469-1.414062-9.1875 0-10.601562l23.210938-23.210938c6.292969-6.296875 6.292969-16.535156 0-22.832031l-23.210938-23.207031c-1.414062-1.417969-4.113281-6.34375.003907-10.605469 4.113281-4.261719 9.1875-1.417969 10.601562-.003907l23.210938 23.210938c6.296875 6.292969 16.535156 6.296875 22.832031 0l22.90625-22.90625c2.957031-2.957031 7.726562-3.207031 10.636719-.558594 1.542969 1.398438 4.746093 6.527344.269531 10.863282l-23.207031 23.207031c-6.292969 6.296875-6.292969 16.535156 0 22.832031l23.207031 23.210938c1.417969 1.414062 4.171875 5.964843 0 10.601562-1.101562 1.226562-5.390625 4.578125-10.949219-.320312-3.109375-2.738282-7.847656-2.441407-10.585937.667968-2.738282 3.105469-2.441406 7.847656.667968 10.585938 5.589844 4.921875 19.113282 11.59375 31.472657-.324219 13.230469-12.753906 4.25-27.570313.003906-31.820313 0 0-23.542969-23.714843-23.546875-24.003906-.003906-.296875 23.542969-24.03125 23.542969-24.03125 13.71875-14.519531 3.824219-28.375-.777344-32.5625-8.894531-8.09375-22.660156-7.636718-31.339844 1.046875 0 0-23.425781 23.242188-23.71875 23.242188s-24.015625-23.546875-24.015625-23.546875c-4.25-4.25-18.839844-13.34375-31.820312 0-12.980469 13.347656-4.25 27.570312 0 31.820312 0 0 23.542968 23.726563 23.542968 24.019532 0 .292968-23.542968 24.015624-23.542968 24.015624zm0 0"/><path d="m204.148438 135.199219v-20.429688c0-8.363281-6.808594-15.167969-15.171876-15.167969h-40.859374c-8.363282 0-15.171876 6.804688-15.171876 15.167969v20.429688c0 19.632812 15.96875 35.601562 35.601563 35.601562 19.628906 0 35.597656-15.972656 35.601563-35.601562zm-56.203126 0s.078126-20.597657.171876-20.597657h40.859374c.09375 0 .171876.074219.171876.167969v20.429688c0 11.359375-9.242188 20.601562-20.601563 20.601562s-20.601563-9.242187-20.601563-20.601562zm0 0"/></svg>