<svg height="512pt" viewBox="-18 0 512 512" width="512pt" xmlns="http://www.w3.org/2000/svg"><path d="m145.746094 169.253906c-38.546875 0-69.90625-36.28125-69.90625-80.875 0-44.597656 31.359375-80.878906 69.90625-80.878906 38.550781 0 69.90625 36.28125 69.90625 80.878906 0 44.59375-31.355469 80.875-69.90625 80.875zm0-126.300781c-18.996094 0-34.453125 20.378906-34.453125 45.425781s15.457031 45.421875 34.453125 45.421875 34.453125-20.375 34.453125-45.421875-15.457031-45.425781-34.453125-45.425781zm0 0" fill="#d8d7da"/><path d="m323.953125 169.253906c-38.546875 0-69.90625-36.28125-69.90625-80.875 0-44.597656 31.359375-80.878906 69.90625-80.878906 38.550781 0 69.90625 36.28125 69.90625 80.878906 0 44.59375-31.355469 80.875-69.90625 80.875zm0-126.300781c-18.996094 0-34.453125 20.378906-34.453125 45.425781s15.457031 45.421875 34.453125 45.421875 34.453125-20.375 34.453125-45.421875-15.457031-45.425781-34.453125-45.425781zm0 0" fill="#d8d7da"/><path d="m393.859375 88.378906c0-18.097656-5.160156-34.820312-13.871094-48.308594-6.90625 6.949219-16.652343 14.214844-29.839843 18.828126 5.148437 7.941406 8.257812 18.238281 8.257812 29.480468 0 25.046875-15.457031 45.421875-34.453125 45.421875v35.457031c38.550781-.003906 69.90625-36.285156 69.90625-80.878906zm0 0" fill="#c6c5ca"/><path d="m215.652344 88.378906c0-18.097656-5.164063-34.820312-13.871094-48.308594-6.90625 6.949219-16.652344 14.210938-29.84375 18.828126 5.152344 7.9375 8.261719 18.238281 8.261719 29.480468 0 25.046875-15.457031 45.421875-34.453125 45.421875v35.457031c38.550781-.003906 69.90625-36.285156 69.90625-80.878906zm0 0" fill="#c6c5ca"/><path d="m394.535156 504.5h-313.707031c-40.496094 0-73.328125-32.828125-73.328125-73.328125v-280.628906c0-40.496094 32.832031-73.328125 73.328125-73.328125h313.710937c40.496094 0 73.328126 32.832031 73.328126 73.328125v280.628906c0 40.496094-32.832032 73.328125-73.332032 73.328125zm0 0" fill="#ccf8ff"/><path d="m7.5 150.542969v280.628906c0 40.5 32.828125 73.328125 73.328125 73.328125h53.507813c-31.949219-18.914062-31.332032-66.574219-31.332032-66.574219s.554688-111.324219.429688-169.421875c-.039063-18.121094 8.339844-35.042968 22.273437-46.632812 25.171875-20.929688 20.039063-52.617188 20.039063-52.617188v-35.453125c-16.867188-36.363281 7.328125-56.585937 7.328125-56.585937h-72.246094c-40.5 0-73.328125 32.832031-73.328125 73.328125zm0 0" fill="#abebf4"/><path d="m394.535156 77.214844h-313.707031c-40.496094 0-73.328125 32.832031-73.328125 73.328125v60.785156h460.367188v-60.785156c0-40.496094-32.832032-73.328125-73.332032-73.328125zm0 0" fill="#ff929f"/><path d="m7.5 150.542969v60.785156h128c13.890625-19.597656 10.246094-42.070313 10.246094-42.070313v-35.457031c-16.867188-36.363281 7.328125-56.585937 7.328125-56.585937h-72.246094c-40.5 0-73.328125 32.832031-73.328125 73.328125zm0 0" fill="#ff737d"/><path d="m145.746094 169.253906c-38.546875 0-69.90625-36.28125-69.90625-80.875 0-44.597656 31.359375-80.878906 69.90625-80.878906 9.792968 0 17.730468 7.9375 17.730468 17.726562 0 9.789063-7.9375 17.726563-17.730468 17.726563-18.996094 0-34.453125 20.378906-34.453125 45.425781s15.457031 45.421875 34.453125 45.421875c9.792968 0 17.730468 7.9375 17.730468 17.726563 0 9.792968-7.9375 17.726562-17.730468 17.726562zm0 0" fill="#d8d7da"/><path d="m323.953125 169.253906c-38.546875 0-69.90625-36.28125-69.90625-80.875 0-44.597656 31.359375-80.878906 69.90625-80.878906 9.792969 0 17.730469 7.9375 17.730469 17.726562 0 9.789063-7.9375 17.726563-17.730469 17.726563-18.996094 0-34.453125 20.378906-34.453125 45.425781s15.457031 45.421875 34.453125 45.421875c9.792969 0 17.730469 7.9375 17.730469 17.726563 0 9.792968-7.9375 17.726562-17.730469 17.726562zm0 0" fill="#d8d7da"/><g fill="#b2e59c"><path d="m126.488281 339.570312h-34.753906c-14.679687 0-26.582031-11.898437-26.582031-26.582031v-34.753906c0-14.683594 11.902344-26.585937 26.582031-26.585937h34.753906c14.683594 0 26.585938 11.902343 26.585938 26.585937v34.753906c0 14.679688-11.902344 26.582031-26.585938 26.582031zm0 0"/><path d="m255.058594 339.570312h-34.753906c-14.679688 0-26.582032-11.898437-26.582032-26.582031v-34.753906c0-14.683594 11.898438-26.585937 26.582032-26.585937h34.753906c14.683594 0 26.585937 11.902343 26.585937 26.585937v34.753906c0 14.679688-11.902343 26.582031-26.585937 26.582031zm0 0"/><path d="m383.628906 339.570312h-34.753906c-14.679688 0-26.585938-11.898437-26.585938-26.582031v-34.753906c0-14.683594 11.902344-26.585937 26.585938-26.585937h34.753906c14.683594 0 26.585938 11.902343 26.585938 26.585937v34.753906c0 14.679688-11.902344 26.582031-26.585938 26.582031zm0 0"/><path d="m126.488281 464.179688h-34.753906c-14.679687 0-26.582031-11.902344-26.582031-26.585938v-34.753906c0-14.683594 11.902344-26.585938 26.582031-26.585938h34.753906c14.683594 0 26.585938 11.902344 26.585938 26.585938v34.753906c0 14.683594-11.902344 26.585938-26.585938 26.585938zm0 0"/></g><path d="m103.433594 268.507812c-.011719-5.789062.832031-11.449218 2.445312-16.859374h-14.140625c-14.683593 0-26.585937 11.902343-26.585937 26.585937v34.753906c0 14.683594 11.902344 26.585938 26.585937 26.585938h11.636719c.066406-25.535157.101562-51.363281.058594-71.066407zm0 0" fill="#9ad880"/><path d="m65.152344 402.839844v34.753906c0 14.683594 11.902344 26.585938 26.585937 26.585938h14.96875c-3.855469-14.308594-3.703125-26.253907-3.703125-26.253907s.136719-27.171875.257813-61.667969h-11.523438c-14.683593 0-26.585937 11.902344-26.585937 26.582032zm0 0" fill="#9ad880"/><path d="m255.058594 464.179688h-34.753906c-14.679688 0-26.582032-11.902344-26.582032-26.585938v-34.753906c0-14.683594 11.898438-26.585938 26.582032-26.585938h34.753906c14.683594 0 26.585937 11.902344 26.585937 26.585938v34.753906c0 14.683594-11.902343 26.585938-26.585937 26.585938zm0 0" fill="#b2e59c"/><path d="m383.628906 464.179688h-34.753906c-14.679688 0-26.585938-11.902344-26.585938-26.585938v-34.753906c0-14.683594 11.902344-26.585938 26.585938-26.585938h34.753906c14.683594 0 26.585938 11.902344 26.585938 26.585938v34.753906c0 14.683594-11.902344 26.585938-26.585938 26.585938zm0 0" fill="#b2e59c"/><path d="m399.640625 69.894531c-7.535156-40.28125-39.078125-69.894531-75.6875-69.894531-37.074219 0-68.140625 29.917969-75.664063 69.714844h-26.890624c-7.59375-40.179688-39.121094-69.714844-75.652344-69.714844-15.128906 0-29.789063 4.996094-42.398438 14.445312-3.316406 2.484376-3.988281 7.183594-1.503906 10.5 2.484375 3.3125 7.1875 3.984376 10.5 1.503907 9.992188-7.488281 21.542969-11.449219 33.402344-11.449219 28.464844 0 53.222656 22.996094 60.34375 54.714844h-21.070313c-6.046875-20.277344-21.605469-34.261719-39.273437-34.261719-23.132813 0-41.953125 23.742187-41.953125 52.925781 0 29.179688 18.820312 52.921875 41.953125 52.921875 5.640625 0 10.230468 4.589844 10.230468 10.226563 0 5.640625-4.589843 10.230468-10.230468 10.230468-34.410156 0-62.40625-32.917968-62.40625-73.378906 0-14.355468 3.550781-28.273437 10.265625-40.242187 2.027343-3.613281.742187-8.1875-2.871094-10.210938-3.613281-2.027343-8.183594-.742187-10.210937 2.871094-5.117188 9.121094-8.675782 19.167969-10.574219 29.667969-39.632813 5.351562-69.949219 39.515625-69.949219 80.078125v280.628906c0 44.566406 36.261719 80.828125 80.828125 80.828125h313.707031c44.570313 0 80.828125-36.261719 80.828125-80.828125v-280.628906c.003907-42.851563-33.523437-78.003907-75.722656-80.648438zm-75.6875-54.894531c28.484375 0 53.226563 22.988281 60.34375 54.714844h-21.054687c-6.050782-20.464844-21.527344-34.261719-39.289063-34.261719-23.132813 0-41.949219 23.742187-41.949219 52.925781 0 29.179688 18.816406 52.921875 41.949219 52.921875 5.640625 0 10.226563 4.589844 10.226563 10.226563 0 5.640625-4.585938 10.230468-10.226563 10.230468-34.410156 0-62.40625-32.917968-62.40625-73.378906 0-40.460937 27.996094-73.378906 62.40625-73.378906zm23.386719 54.714844h-46.71875c4.710937-11.398438 13.507812-19.261719 23.332031-19.261719 9.65625 0 18.625 7.707031 23.386719 19.261719zm-201.59375-19.261719c9.800781 0 18.695312 7.660156 23.414062 19.261719h-46.746094c4.710938-11.398438 13.507813-19.261719 23.332032-19.261719zm314.621094 380.71875c0 36.296875-29.53125 65.828125-65.828126 65.828125h-313.710937c-36.296875 0-65.828125-29.53125-65.828125-65.828125v-212.34375h420.6875c4.140625 0 7.5-3.355469 7.5-7.5 0-4.140625-3.359375-7.5-7.5-7.5h-420.6875v-53.285156c0-31.804688 22.878906-58.773438 53.378906-64.632813-.957031 53.691406 34.683594 90.847656 77.367188 90.847656 13.910156 0 25.230468-11.320312 25.230468-25.230468s-11.320312-25.226563-25.230468-25.226563c-14.609375 0-29.1875-18.316406-26.820313-41.585937h127.691407c-2.726563 52.109375 34.652343 92.042968 77.335937 92.042968 13.910156 0 25.226563-11.320312 25.226563-25.230468s-11.316407-25.226563-25.226563-25.226563c-14.609375 0-30.285156-20.453125-26.820313-41.585937h97.402344c36.300782 0 65.828125 29.53125 65.828125 65.828125v280.628906zm0 0"/><path d="m126.488281 244.148438h-34.75c-18.796875 0-34.085937 15.292968-34.085937 34.085937v34.753906c0 18.792969 15.289062 34.082031 34.085937 34.082031h34.75c18.796875 0 34.085938-15.289062 34.085938-34.082031v-34.753906c0-18.792969-15.289063-34.085937-34.085938-34.085937zm19.085938 68.839843c0 10.523438-8.5625 19.082031-19.085938 19.082031h-34.75c-10.523437 0-19.085937-8.558593-19.085937-19.082031v-34.753906c0-10.523437 8.5625-19.085937 19.085937-19.085937h34.75c10.523438 0 19.085938 8.5625 19.085938 19.085937zm0 0"/><path d="m255.058594 244.148438h-34.75c-18.796875 0-34.085938 15.292968-34.085938 34.085937v34.753906c0 18.792969 15.289063 34.082031 34.085938 34.082031h34.75c18.796875 0 34.085937-15.289062 34.085937-34.082031v-34.753906c0-18.792969-15.289062-34.085937-34.085937-34.085937zm19.085937 68.839843c0 10.523438-8.5625 19.082031-19.085937 19.082031h-34.75c-10.523438 0-19.085938-8.558593-19.085938-19.082031v-34.753906c0-10.523437 8.5625-19.085937 19.085938-19.085937h34.75c10.523437 0 19.085937 8.5625 19.085937 19.085937zm0 0"/><path d="m383.628906 244.148438h-34.753906c-18.792969 0-34.082031 15.292968-34.082031 34.085937v34.753906c0 18.792969 15.289062 34.082031 34.082031 34.082031h34.753906c18.796875 0 34.085938-15.289062 34.085938-34.082031v-34.753906c0-18.792969-15.289063-34.085937-34.085938-34.085937zm19.085938 68.839843c0 10.523438-8.5625 19.082031-19.085938 19.082031h-34.753906c-10.523438 0-19.082031-8.558593-19.082031-19.082031v-34.753906c0-10.523437 8.558593-19.085937 19.082031-19.085937h34.753906c10.523438 0 19.085938 8.5625 19.085938 19.085937zm0 0"/><path d="m126.488281 368.757812h-34.75c-18.796875 0-34.085937 15.289063-34.085937 34.085938v34.75c0 18.796875 15.289062 34.085938 34.085937 34.085938h34.75c18.796875 0 34.085938-15.289063 34.085938-34.085938v-34.75c0-18.796875-15.289063-34.085938-34.085938-34.085938zm19.085938 68.835938c0 10.523438-8.5625 19.085938-19.085938 19.085938h-34.75c-10.523437 0-19.085937-8.5625-19.085937-19.085938v-34.75c0-10.523438 8.5625-19.085938 19.085937-19.085938h34.75c10.523438 0 19.085938 8.558594 19.085938 19.085938zm0 0"/><path d="m255.058594 368.757812h-34.75c-18.796875 0-34.085938 15.289063-34.085938 34.085938 0 4.140625 3.355469 7.5 7.5 7.5 4.140625 0 7.5-3.359375 7.5-7.5 0-10.523438 8.5625-19.085938 19.085938-19.085938h34.75c10.523437 0 19.085937 8.558594 19.085937 19.085938v34.75c0 10.523438-8.5625 19.085938-19.085937 19.085938h-34.75c-10.523438 0-19.085938-8.5625-19.085938-19.085938 0-4.144531-3.359375-7.5-7.5-7.5-4.144531 0-7.5 3.355469-7.5 7.5 0 18.796875 15.289063 34.085938 34.085938 34.085938h34.75c18.796875 0 34.085937-15.289063 34.085937-34.085938v-34.75c0-18.796875-15.289062-34.085938-34.085937-34.085938zm0 0"/><path d="m383.628906 368.757812h-34.753906c-18.792969 0-34.082031 15.289063-34.082031 34.085938v34.75c0 18.796875 15.289062 34.085938 34.082031 34.085938h34.753906c18.796875 0 34.085938-15.289063 34.085938-34.085938v-34.75c0-18.796875-15.289063-34.085938-34.085938-34.085938zm19.085938 68.835938c0 10.523438-8.5625 19.085938-19.085938 19.085938h-34.753906c-10.523438 0-19.082031-8.5625-19.082031-19.085938v-34.75c0-10.523438 8.558593-19.085938 19.082031-19.085938h34.753906c10.523438 0 19.085938 8.558594 19.085938 19.085938zm0 0"/></svg>