<svg height="512pt" viewBox="0 -16 512 511" width="512pt" xmlns="http://www.w3.org/2000/svg"><path d="m421.320312 206.433594h-331.234374v-121.285156c0-22.511719 18.25-40.765626 40.765624-40.765626h249.703126c22.511718 0 40.765624 18.253907 40.765624 40.765626zm0 0" fill="#898890"/><path d="m90.085938 85.148438v121.285156h331.234374v-121.285156c0-4.371094-.695312-8.574219-1.96875-12.523438h-327.296874c-1.273438 3.945312-1.96875 8.152344-1.96875 12.523438zm0 0" fill="#77767c"/><path d="m374.230469 206.433594h-236.460938v-157.007813c0-22.878906 18.546875-41.425781 41.421875-41.425781h153.613282c22.878906 0 41.425781 18.546875 41.425781 41.425781zm0 0" fill="#ccf8ff"/><path d="m137.769531 72.625h236.460938v133.808594h-236.460938zm0 0" fill="#abebf4"/><path d="m456.039062 406.949219h-400.078124c-26.765626 0-48.460938-21.695313-48.460938-48.460938v-146.171875c0-48 38.910156-86.910156 86.90625-86.910156h323.1875c47.996094 0 86.90625 38.910156 86.90625 86.910156v146.171875c0 26.765625-21.695312 48.460938-48.460938 48.460938zm0 0" fill="#acabb1"/><path d="m137.769531 358.488281v-146.171875c0-48 38.910157-86.910156 86.90625-86.910156h-130.269531c-47.996094 0-86.90625 38.910156-86.90625 86.910156v146.171875c0 26.765625 21.695312 48.460938 48.457031 48.460938h130.269531c-26.761718 0-48.457031-21.695313-48.457031-48.460938zm0 0" fill="#9f9fa5"/><path d="m368.691406 266.179688h-225.382812c-17.816406 0-32.261719 14.441406-32.261719 32.261718v108.507813h289.90625v-108.507813c0-17.820312-14.441406-32.261718-32.261719-32.261718zm0 0" fill="#898890"/><path d="m111.046875 298.441406v108.507813h61.476563l20.105468-62.363281c4.386719-13.605469 7.625-27.574219 9.273438-41.777344 4.105468-35.40625 26.097656-36.628906 26.097656-36.628906h-84.691406c-17.820313 0-32.261719 14.441406-32.261719 32.261718zm0 0" fill="#77767c"/><path d="m400.953125 317.753906h-289.90625l-47.828125 104.667969c-10.703125 23.425781 6.417969 50.070313 32.171875 50.070313h321.21875c25.753906 0 42.875-26.644532 32.171875-50.070313zm0 0" fill="#ccf8ff"/><path d="m95.386719 195.742188c0 8.648437-7.011719 15.660156-15.660157 15.660156-8.648437 0-15.660156-7.011719-15.660156-15.660156 0-8.648438 7.011719-15.660157 15.660156-15.660157 8.648438 0 15.660157 7.011719 15.660157 15.660157zm0 0" fill="#b2e59c"/><path d="m153.429688 195.742188c0 8.648437-7.011719 15.660156-15.660157 15.660156-8.648437 0-15.660156-7.011719-15.660156-15.660156 0-8.648438 7.011719-15.660157 15.660156-15.660157 8.648438 0 15.660157 7.011719 15.660157 15.660157zm0 0" fill="#ffa5b5"/><path d="m192.628906 344.582031c2.835938-8.800781 5.195313-17.757812 6.953125-26.828125h-88.535156l-47.828125 104.667969c-10.703125 23.425781 6.417969 50.070313 32.171875 50.070313h56.003906zm0 0" fill="#abebf4"/><path d="m428.820312 118.578125v-33.429687c0-45.976563-48.726562-48.265626-48.726562-48.265626-5.554688-20.917968-24.644531-36.382812-47.289062-36.382812h-153.613282c-22.640625 0-41.730468 15.464844-47.285156 36.382812 0 0-49.320312 2.289063-49.320312 48.265626v33.5c-46.5 5.832031-82.585938 45.613281-82.585938 93.667968v146.171875c0 58.269531 58.617188 55.960938 58.617188 55.960938s-13.804688 23.636719.703124 45.847656c8.019532 12.273437 21.410157 19.695313 36.070313 19.695313h321.21875c14.660156 0 28.183594-7.335938 36.066406-19.695313 14.386719-22.550781.707031-45.847656.707031-45.847656s58.617188.445312 58.617188-55.960938v-146.171875c0-48.257812-36.398438-88.167968-83.179688-93.738281zm-249.628906-103.078125h153.613282c18.707031 0 33.925781 15.21875 33.925781 33.925781v42.574219c0 4.140625 3.355469 7.5 7.5 7.5 4.140625 0 7.5-3.359375 7.5-7.5v-40.085938c17.796875.621094 32.089843 15.285157 32.089843 33.234376v32.761718h-268.550781v-68.484375c0-18.707031 15.21875-33.925781 33.921875-33.925781zm-48.921875 36.398438v66.011718h-32.683593v-32.761718c0-18.144532 14.609374-32.9375 32.683593-33.25zm366.730469 306.589843c0 22.585938-18.375 40.960938-40.960938 40.960938h-9.507812l-38.078125-83.328125v-17.679688c0-21.925781-17.835937-39.761718-39.761719-39.761718h-225.382812c-21.925782 0-39.761719 17.835937-39.761719 39.761718v17.679688l-13.996094 30.628906c-1.722656 3.769531-.0625 8.21875 3.703125 9.9375 3.773438 1.722656 8.21875.0625 9.9375-3.703125l12.671875-27.730469h280.273438l45.824219 100.285156c3.960937 8.667969 3.25 18.632813-1.902344 26.648438-5.152344 8.019531-13.917969 12.804688-23.449219 12.804688h-321.21875c-9.53125 0-18.296875-4.785157-23.449219-12.804688s-5.863281-17.980469-1.902344-26.648438l19.636719-42.96875c1.722657-3.769531.0625-8.21875-3.703125-9.9375-3.773437-1.726562-8.21875-.066406-9.9375 3.703126l-10.566406 23.113281h-9.507812c-22.585938 0-40.960938-18.375-40.960938-40.960938v-146.171875c0-43.785156 35.621094-79.40625 79.40625-79.40625h323.1875c43.785156 0 79.40625 35.621094 79.40625 79.40625zm-103.546875-48.234375h-274.90625v-11.8125c0-13.65625 11.105469-24.765625 24.761719-24.765625h225.382812c13.65625 0 24.761719 11.109375 24.761719 24.765625zm0 0"/><path d="m79.726562 172.578125c-12.773437 0-23.160156 10.390625-23.160156 23.164063 0 12.769531 10.386719 23.160156 23.160156 23.160156 12.769532 0 23.160157-10.390625 23.160157-23.160156 0-12.773438-10.390625-23.164063-23.160157-23.164063zm0 31.324219c-4.5 0-8.160156-3.660156-8.160156-8.160156s3.660156-8.160157 8.160156-8.160157 8.160157 3.660157 8.160157 8.160157-3.660157 8.160156-8.160157 8.160156zm0 0"/><path d="m137.769531 172.578125c-12.769531 0-23.160156 10.390625-23.160156 23.164063 0 12.769531 10.390625 23.160156 23.160156 23.160156s23.160157-10.390625 23.160157-23.160156c0-12.773438-10.390626-23.164063-23.160157-23.164063zm0 31.324219c-4.5 0-8.160156-3.660156-8.160156-8.160156s3.660156-8.160157 8.160156-8.160157 8.160157 3.660157 8.160157 8.160157-3.660157 8.160156-8.160157 8.160156zm0 0"/></svg>