<svg height="512pt" viewBox="0 0 512 512" width="512pt" xmlns="http://www.w3.org/2000/svg"><path d="m380.960938 264.640625-133.601563-133.605469 111.847656-111.847656c15.613281-15.613281 40.929688-15.613281 56.546875 0l77.054688 77.058594c15.617187 15.613281 15.617187 40.929687 0 56.546875zm0 0" fill="#eaeaea"/><path d="m453.753906 191.847656c-72.265625-92.425781-63.792968-153.421875-52.121094-181.792968-14.246093-5.378907-30.957031-2.335938-42.425781 9.132812l-111.847656 111.847656 133.601563 133.605469zm0 0" fill="#d8d7da"/><path d="m44.78125 467.21875c-49.792969-49.792969-49.792969-130.519531 0-180.3125l207.394531-207.390625c18.035157-18.039063 47.277344-18.039063 65.316407 0l114.992187 114.992187c18.039063 18.035157 18.039063 47.28125 0 65.316407l-207.394531 207.394531c-49.789063 49.789062-130.515625 49.789062-180.308594 0zm0 0" fill="#8ed7e8"/><path d="m44.78125 467.214844c9.535156 9.535156 20.203125 17.246094 31.574219 23.128906 1.089843-23.085938 5.636719-46.101562 11.875-66.574219 23.625-77.515625 80.628906-140.796875 130.355469-189.9375 34.757812-34.34375 86.355468-45.96875 132.082031-28.75 37.558593 14.144531 72.257812 12.828125 93.644531 9.636719-2.0625-7.402344-6.003906-14.390625-11.828125-20.210938l-114.992187-114.992187c-18.039063-18.039063-47.28125-18.039063-65.316407 0l-207.394531 207.390625c-49.792969 49.792969-49.792969 130.519531 0 180.308594zm0 0" fill="#7ac1dd"/><path d="m200.988281 377.0625c0 36.480469-29.570312 66.050781-66.050781 66.050781s-66.054688-29.570312-66.054688-66.050781 29.574219-66.054688 66.054688-66.054688 66.050781 29.574219 66.050781 66.054688zm0 0" fill="#eaeaea"/><path d="m370.535156 91.0625c-5.777344-5.773438-5.777344-15.222656 0-21l16.800782-16.800781c5.773437-5.773438 15.222656-5.773438 21 0 5.773437 5.777343 5.773437 15.226562 0 21.003906l-16.800782 16.796875c-5.777344 5.777344-15.226562 5.777344-21 0zm0 0" fill="#c6c5ca"/><path d="m420.933594 141.464844c-5.773438-5.777344-5.773438-15.226563 0-21l16.800781-16.800782c5.777344-5.777343 15.226563-5.777343 21 0 5.777344 5.773438 5.777344 15.222657 0 21l-16.800781 16.800782c-5.773438 5.773437-15.222656 5.773437-21 0zm0 0" fill="#c6c5ca"/><path d="m88.230469 330.355469c-25.796875 25.792969-25.796875 67.617187 0 93.414062 12.542969-41.160156 34.503906-78.316406 59.785156-111.460937-20.949219-4.207032-43.546875 1.804687-59.785156 18.046875zm0 0" fill="#d8d7da"/><path d="m437.789062 189.203125s-117.75-117.605469-119.207031-118.78125l45.929688-45.929687c12.664062-12.664063 33.269531-12.664063 45.9375 0l77.054687 77.058593c12.667969 12.664063 12.667969 33.273438 0 45.9375l-29.050781 29.050781c-2.929687 2.929688-2.929687 7.679688 0 10.609376 2.929687 2.929687 7.675781 2.929687 10.609375 0l29.050781-29.050782c18.515625-18.515625 18.515625-48.640625 0-67.15625l-77.054687-77.054687c-18.515625-18.515625-48.640625-18.515625-67.15625 0l-48.644532 48.640625c-19.433593-7.964844-42.628906-4.074219-58.386718 11.683594l-207.394532 207.390624c-52.636718 52.636719-52.636718 138.28125 0 190.917969 52.636719 52.636719 138.28125 52.636719 190.917969 0l207.394531-207.390625c20.933594-20.933594 20.933594-54.992187 0-75.925781zm-218 272.710937c-46.789062 46.785157-122.917968 46.785157-169.703124 0-46.789063-46.789062-46.789063-122.917968 0-169.703124l207.394531-207.394532c15.082031-15.082031 39.625-15.082031 54.707031 0l114.992188 114.996094c15.085937 15.082031 15.082031 39.625 0 54.707031zm0 0"/><path d="m186.945312 325.050781c-28.675781-28.679687-75.339843-28.679687-104.019531 0-3.929687 3.929688-7.410156 8.289063-10.335937 12.957031-2.203125 3.511719-1.144532 8.136719 2.367187 10.34375 3.507813 2.203126 8.136719 1.140626 10.339844-2.367187 2.332031-3.71875 5.101563-7.191406 8.238281-10.324219 22.828125-22.832031 59.972656-22.828125 82.804688 0 22.828125 22.828125 22.828125 59.976563 0 82.804688-22.832032 22.828125-59.976563 22.828125-82.804688 0-11.589844-11.589844-17.820312-27.632813-17.09375-44.015625.183594-4.140625-3.023437-7.640625-7.160156-7.828125-4.140625-.183594-7.644531 3.023437-7.828125 7.160156-.910156 20.578125 6.914063 40.730469 21.472656 55.289062 28.679688 28.679688 75.34375 28.679688 104.019531 0 28.679688-28.675781 28.679688-75.339843 0-104.019531zm0 0"/><path d="m382.03125 47.957031-16.800781 16.800781c-8.714844 8.714844-8.714844 22.894532 0 31.609376 8.714843 8.714843 22.894531 8.714843 31.609375 0l16.796875-16.800782c8.714843-8.714844 8.71875-22.894531.003906-31.609375-8.714844-8.714843-22.898437-8.714843-31.609375 0zm21 21.003907-16.800781 16.796874c-2.867188 2.867188-7.527344 2.867188-10.390625.003907-2.867188-2.867188-2.867188-7.527344 0-10.394531l16.796875-16.800782c2.867187-2.863281 7.527343-2.863281 10.394531 0 2.863281 2.867188 2.863281 7.527344 0 10.394532zm0 0"/><path d="m464.039062 98.359375c-8.714843-8.714844-22.894531-8.714844-31.609374 0l-16.796876 16.800781c-8.714843 8.714844-8.71875 22.894532-.003906 31.609375 8.714844 8.714844 22.894532 8.714844 31.609375 0l16.800781-16.800781c8.714844-8.714844 8.714844-22.894531 0-31.609375zm-27.40625 37.800781c-2.867187 2.867188-7.527343 2.867188-10.394531 0-2.863281-2.863281-2.863281-7.527344 0-10.390625l16.800781-16.800781c2.867188-2.867188 7.527344-2.867188 10.394532 0 2.863281 2.863281 2.863281 7.527344 0 10.390625zm0 0"/></svg>