<svg height="512pt" viewBox="0 -79 512.00001 512" width="512pt" xmlns="http://www.w3.org/2000/svg"><path d="m403.257812 7.503906h-294.511718c-20.460938 0-39.753906 9.523438-52.195313 25.769532l-37.117187 48.46875c-18.59375 24.277343-15.25 58.796874 7.652344 79.058593l194.226562 171.820313c19.808594 17.523437 49.570312 17.523437 69.378906 0l194.226563-171.820313c22.902343-20.261719 26.246093-54.78125 7.652343-79.058593l-37.117187-48.46875c-12.441406-16.246094-31.738281-25.769532-52.195313-25.769532zm0 0" fill="#ffb15c"/><path d="m128.832031 90.035156 47.078125-82.53125h-67.164062c-20.460938 0-39.753906 9.523438-52.195313 25.769532l-37.117187 48.46875c-18.59375 24.277343-15.25 58.796874 7.652344 79.058593l164.488281 145.515625-65.996094-145.007812c-10.421875-22.898438-9.214844-49.417969 3.253906-71.273438zm0 0" fill="#ff9d3b"/><path d="m345.859375 124.835938h158.207031c1.96875-14.828126-1.75-30.367188-11.496094-43.09375l-37.121093-48.472657c-6.53125-8.527343-14.964844-15.183593-24.457031-19.601562zm0 0" fill="#ffc885"/><path d="m166.144531 124.835938h179.714844l-89.859375-117.332032zm0 0" fill="#ffdaaa"/><path d="m81.007812 13.667969c-9.488281 4.417969-17.925781 11.074219-24.457031 19.605469l-37.121093 48.46875c-9.746094 12.726562-13.464844 28.265624-11.496094 43.09375h158.210937zm0 0" fill="#ffc885"/><path d="m7.933594 124.835938c1.785156 13.457031 8.25 26.328124 19.144531 35.96875l194.226563 171.820312c6.628906 5.863281 14.371093 9.757812 22.476562 11.699219l-77.636719-219.488281zm0 0" fill="#ff9d3b"/><path d="m504.066406 124.835938c-1.785156 13.457031-8.246094 26.328124-19.144531 35.96875l-194.226563 171.820312c-6.625 5.863281-14.371093 9.757812-22.480468 11.699219l77.644531-219.488281zm0 0" fill="#ff9d3b"/><path d="m125.578125 161.308594c-5.273437-11.585938-7.570313-24.105469-6.933594-36.472656h-110.710937c1.785156 13.457031 8.25 26.328124 19.144531 35.96875l164.503906 145.527343zm0 0" fill="#ff8b22"/><path d="m118.644531 124.835938c.617188-12.074219 4.03125-24.003907 10.1875-34.800782l4.550781-7.976562-52.375-68.390625c-9.488281 4.417969-17.925781 11.074219-24.457031 19.605469l-37.121093 48.46875c-9.746094 12.726562-13.464844 28.265624-11.496094 43.09375zm0 0" fill="#ffb15c"/><path d="m498.527344 77.183594-37.121094-48.472656c-13.769531-17.980469-35.507812-28.710938-58.148438-28.710938h-294.511718c-22.644532 0-44.382813 10.730469-58.152344 28.710938l-37.121094 48.46875c-20.886718 27.277343-17.09375 66.476562 8.640625 89.238281l111.988281 99.070312c3.105469 2.746094 7.84375 2.453125 10.589844-.644531 2.746094-3.105469 2.457032-7.847656-.648437-10.589844l-111.988281-99.074218c-7.136719-6.3125-12.074219-14.265626-14.738282-22.839844h143.523438l70.140625 198.289062c-1.625-1.09375-62.714844-54.949218-62.714844-54.949218-3.101563-2.746094-7.84375-2.453126-10.589844.648437-2.742187 3.105469-2.453125 7.84375.648438 10.589844l58.015625 51.324219c11.308594 10 25.484375 15 39.660156 15 14.179688 0 28.359375-5 39.660156-15l194.226563-171.820313c25.734375-22.765625 29.527343-61.960937 8.640625-89.238281zm-49.03125-39.351563 37.117187 48.472657c7.042969 9.195312 10.449219 20.144531 10.398438 31.027343h-135.960938l72.023438-94.042969c6.285156 3.742188 11.898437 8.640626 16.421875 14.542969zm-30.640625-20.652343-72.996094 95.316406-27.011719-35.269532c-2.519531-3.289062-7.226562-3.910156-10.519531-1.394531-3.289063 2.519531-3.914063 7.226563-1.394531 10.515625l23.726562 30.984375h-149.320312l74.660156-97.492187 32.078125 41.886718c2.519531 3.292969 7.226563 3.917969 10.515625 1.398438 3.292969-2.519531 3.914062-7.230469 1.398438-10.519531l-28.796876-37.601563h132.058594c5.3125 0 10.558594.761719 15.601563 2.175782zm-178.050781-2.175782-74.660157 97.492188-72.996093-95.316406c5.042968-1.414063 10.285156-2.175782 15.597656-2.175782zm-225.816407 102.328125c-.050781-10.878906 3.355469-21.832031 10.398438-31.027343l37.117187-48.472657c4.523438-5.902343 10.132813-10.800781 16.417969-14.542969l72.023437 94.042969zm234.425781 220.417969-72.660156-205.410156h158.492188l-72.664063 205.414062c-4.363281.640625-8.800781.640625-13.167969-.003906zm230.53125-182.570312s-197.304687 174.355468-198.929687 175.449218l70.144531-198.289062h143.527344c-2.667969 8.574218-7.605469 16.527344-14.742188 22.839844zm0 0"/></svg>